<?xml version="1.0" encoding="UTF-8"?>
<svg xmlns="http://www.w3.org/2000/svg" xmlns:xlink="http://www.w3.org/1999/xlink" width="1690pt" height="411pt" viewBox="0 0 1690 411" version="1.1">
<defs>
<g>
<symbol overflow="visible" id="glyph0-0">
<path style="stroke:none;" d="M 2 7.078125 L 2 -28.203125 L 22 -28.203125 L 22 7.078125 Z M 4.234375 4.84375 L 19.765625 4.84375 L 19.765625 -25.953125 L 4.234375 -25.953125 Z M 4.234375 4.84375 "/>
</symbol>
<symbol overflow="visible" id="glyph0-1">
<path style="stroke:none;" d="M 25.765625 -26.921875 L 25.765625 -22.75 C 24.429688 -23.988281 23.015625 -24.914062 21.515625 -25.53125 C 20.015625 -26.144531 18.414062 -26.453125 16.71875 -26.453125 C 13.382812 -26.453125 10.832031 -25.429688 9.0625 -23.390625 C 7.289062 -21.347656 6.40625 -18.398438 6.40625 -14.546875 C 6.40625 -10.710938 7.289062 -7.773438 9.0625 -5.734375 C 10.832031 -3.691406 13.382812 -2.671875 16.71875 -2.671875 C 18.414062 -2.671875 20.015625 -2.976562 21.515625 -3.59375 C 23.015625 -4.207031 24.429688 -5.132812 25.765625 -6.375 L 25.765625 -2.25 C 24.378906 -1.3125 22.914062 -0.609375 21.375 -0.140625 C 19.832031 0.328125 18.203125 0.5625 16.484375 0.5625 C 12.066406 0.5625 8.585938 -0.785156 6.046875 -3.484375 C 3.515625 -6.191406 2.25 -9.878906 2.25 -14.546875 C 2.25 -19.234375 3.515625 -22.925781 6.046875 -25.625 C 8.585938 -28.332031 12.066406 -29.6875 16.484375 -29.6875 C 18.234375 -29.6875 19.878906 -29.453125 21.421875 -28.984375 C 22.960938 -28.523438 24.410156 -27.835938 25.765625 -26.921875 Z M 25.765625 -26.921875 "/>
</symbol>
<symbol overflow="visible" id="glyph0-2">
<path style="stroke:none;" d="M 12.25 -19.359375 C 10.320312 -19.359375 8.796875 -18.601562 7.671875 -17.09375 C 6.554688 -15.59375 6 -13.535156 6 -10.921875 C 6 -8.304688 6.554688 -6.242188 7.671875 -4.734375 C 8.785156 -3.234375 10.3125 -2.484375 12.25 -2.484375 C 14.164062 -2.484375 15.679688 -3.238281 16.796875 -4.75 C 17.921875 -6.257812 18.484375 -8.316406 18.484375 -10.921875 C 18.484375 -13.515625 17.921875 -15.566406 16.796875 -17.078125 C 15.679688 -18.597656 14.164062 -19.359375 12.25 -19.359375 Z M 12.25 -22.40625 C 15.375 -22.40625 17.828125 -21.390625 19.609375 -19.359375 C 21.390625 -17.328125 22.28125 -14.515625 22.28125 -10.921875 C 22.28125 -7.335938 21.390625 -4.523438 19.609375 -2.484375 C 17.828125 -0.453125 15.375 0.5625 12.25 0.5625 C 9.113281 0.5625 6.65625 -0.453125 4.875 -2.484375 C 3.09375 -4.523438 2.203125 -7.335938 2.203125 -10.921875 C 2.203125 -14.515625 3.09375 -17.328125 4.875 -19.359375 C 6.65625 -21.390625 9.113281 -22.40625 12.25 -22.40625 Z M 12.25 -22.40625 "/>
</symbol>
<symbol overflow="visible" id="glyph0-3">
<path style="stroke:none;" d="M 21.953125 -13.203125 L 21.953125 0 L 18.359375 0 L 18.359375 -13.09375 C 18.359375 -15.15625 17.953125 -16.703125 17.140625 -17.734375 C 16.335938 -18.765625 15.128906 -19.28125 13.515625 -19.28125 C 11.578125 -19.28125 10.046875 -18.660156 8.921875 -17.421875 C 7.804688 -16.179688 7.25 -14.492188 7.25 -12.359375 L 7.25 0 L 3.640625 0 L 3.640625 -21.875 L 7.25 -21.875 L 7.25 -18.484375 C 8.101562 -19.796875 9.113281 -20.773438 10.28125 -21.421875 C 11.445312 -22.078125 12.789062 -22.40625 14.3125 -22.40625 C 16.832031 -22.40625 18.734375 -21.625 20.015625 -20.0625 C 21.304688 -18.507812 21.953125 -16.222656 21.953125 -13.203125 Z M 21.953125 -13.203125 "/>
</symbol>
<symbol overflow="visible" id="glyph0-4">
<path style="stroke:none;" d="M 19.515625 -21.03125 L 19.515625 -17.671875 C 18.492188 -18.234375 17.472656 -18.65625 16.453125 -18.9375 C 15.429688 -19.21875 14.398438 -19.359375 13.359375 -19.359375 C 11.023438 -19.359375 9.210938 -18.617188 7.921875 -17.140625 C 6.640625 -15.660156 6 -13.585938 6 -10.921875 C 6 -8.253906 6.640625 -6.179688 7.921875 -4.703125 C 9.210938 -3.222656 11.023438 -2.484375 13.359375 -2.484375 C 14.398438 -2.484375 15.429688 -2.625 16.453125 -2.90625 C 17.472656 -3.1875 18.492188 -3.601562 19.515625 -4.15625 L 19.515625 -0.84375 C 18.515625 -0.375 17.472656 -0.0234375 16.390625 0.203125 C 15.316406 0.441406 14.175781 0.5625 12.96875 0.5625 C 9.675781 0.5625 7.054688 -0.46875 5.109375 -2.53125 C 3.171875 -4.601562 2.203125 -7.398438 2.203125 -10.921875 C 2.203125 -14.484375 3.179688 -17.285156 5.140625 -19.328125 C 7.109375 -21.378906 9.796875 -22.40625 13.203125 -22.40625 C 14.304688 -22.40625 15.382812 -22.289062 16.4375 -22.0625 C 17.5 -21.832031 18.523438 -21.488281 19.515625 -21.03125 Z M 19.515625 -21.03125 "/>
</symbol>
<symbol overflow="visible" id="glyph0-5">
<path style="stroke:none;" d="M 22.484375 -11.84375 L 22.484375 -10.078125 L 5.953125 -10.078125 C 6.109375 -7.609375 6.851562 -5.722656 8.1875 -4.421875 C 9.53125 -3.128906 11.390625 -2.484375 13.765625 -2.484375 C 15.148438 -2.484375 16.488281 -2.648438 17.78125 -2.984375 C 19.082031 -3.328125 20.367188 -3.835938 21.640625 -4.515625 L 21.640625 -1.109375 C 20.347656 -0.566406 19.023438 -0.15625 17.671875 0.125 C 16.316406 0.414062 14.945312 0.5625 13.5625 0.5625 C 10.070312 0.5625 7.304688 -0.453125 5.265625 -2.484375 C 3.222656 -4.515625 2.203125 -7.257812 2.203125 -10.71875 C 2.203125 -14.300781 3.171875 -17.144531 5.109375 -19.25 C 7.046875 -21.351562 9.65625 -22.40625 12.9375 -22.40625 C 15.875 -22.40625 18.195312 -21.457031 19.90625 -19.5625 C 21.625 -17.664062 22.484375 -15.09375 22.484375 -11.84375 Z M 18.890625 -12.890625 C 18.859375 -14.859375 18.304688 -16.425781 17.234375 -17.59375 C 16.160156 -18.769531 14.738281 -19.359375 12.96875 -19.359375 C 10.96875 -19.359375 9.363281 -18.789062 8.15625 -17.65625 C 6.945312 -16.519531 6.253906 -14.925781 6.078125 -12.875 Z M 18.890625 -12.890625 "/>
</symbol>
<symbol overflow="visible" id="glyph0-6">
<path style="stroke:none;" d="M 16.453125 -18.515625 C 16.046875 -18.753906 15.601562 -18.925781 15.125 -19.03125 C 14.65625 -19.144531 14.132812 -19.203125 13.5625 -19.203125 C 11.53125 -19.203125 9.96875 -18.539062 8.875 -17.21875 C 7.789062 -15.894531 7.25 -14 7.25 -11.53125 L 7.25 0 L 3.640625 0 L 3.640625 -21.875 L 7.25 -21.875 L 7.25 -18.484375 C 8 -19.804688 8.976562 -20.789062 10.1875 -21.4375 C 11.40625 -22.082031 12.878906 -22.40625 14.609375 -22.40625 C 14.859375 -22.40625 15.128906 -22.390625 15.421875 -22.359375 C 15.722656 -22.328125 16.054688 -22.273438 16.421875 -22.203125 Z M 16.453125 -18.515625 "/>
</symbol>
<symbol overflow="visible" id="glyph0-7">
<path style="stroke:none;" d="M 7.328125 -28.09375 L 7.328125 -21.875 L 14.734375 -21.875 L 14.734375 -19.078125 L 7.328125 -19.078125 L 7.328125 -7.203125 C 7.328125 -5.421875 7.570312 -4.273438 8.0625 -3.765625 C 8.550781 -3.265625 9.539062 -3.015625 11.03125 -3.015625 L 14.734375 -3.015625 L 14.734375 0 L 11.03125 0 C 8.257812 0 6.347656 -0.515625 5.296875 -1.546875 C 4.242188 -2.585938 3.71875 -4.472656 3.71875 -7.203125 L 3.71875 -19.078125 L 1.078125 -19.078125 L 1.078125 -21.875 L 3.71875 -21.875 L 3.71875 -28.09375 Z M 7.328125 -28.09375 "/>
</symbol>
<symbol overflow="visible" id="glyph0-8">
<path style="stroke:none;" d="M 14.84375 -30.390625 L 14.84375 -27.40625 L 11.40625 -27.40625 C 10.113281 -27.40625 9.21875 -27.144531 8.71875 -26.625 C 8.21875 -26.101562 7.96875 -25.164062 7.96875 -23.8125 L 7.96875 -21.875 L 13.890625 -21.875 L 13.890625 -19.078125 L 7.96875 -19.078125 L 7.96875 0 L 4.359375 0 L 4.359375 -19.078125 L 0.921875 -19.078125 L 0.921875 -21.875 L 4.359375 -21.875 L 4.359375 -23.40625 C 4.359375 -25.832031 4.921875 -27.601562 6.046875 -28.71875 C 7.179688 -29.832031 8.984375 -30.390625 11.453125 -30.390625 Z M 14.84375 -30.390625 "/>
</symbol>
<symbol overflow="visible" id="glyph0-9">
<path style="stroke:none;" d="M -0.125 -29.15625 L 24.546875 -29.15625 L 24.546875 -25.84375 L 14.203125 -25.84375 L 14.203125 0 L 10.234375 0 L 10.234375 -25.84375 L -0.125 -25.84375 Z M -0.125 -29.15625 "/>
</symbol>
<symbol overflow="visible" id="glyph0-10">
<path style="stroke:none;" d="M 1.6875 -21.875 L 5.28125 -21.875 L 9.765625 -4.8125 L 14.234375 -21.875 L 18.484375 -21.875 L 22.96875 -4.8125 L 27.4375 -21.875 L 31.03125 -21.875 L 25.3125 0 L 21.078125 0 L 16.375 -17.9375 L 11.640625 0 L 7.40625 0 Z M 1.6875 -21.875 "/>
</symbol>
<symbol overflow="visible" id="glyph0-11">
<path style="stroke:none;" d="M 7.875 -25.921875 L 7.875 -14.96875 L 12.828125 -14.96875 C 14.671875 -14.96875 16.09375 -15.441406 17.09375 -16.390625 C 18.09375 -17.335938 18.59375 -18.691406 18.59375 -20.453125 C 18.59375 -22.191406 18.09375 -23.535156 17.09375 -24.484375 C 16.09375 -25.441406 14.671875 -25.921875 12.828125 -25.921875 Z M 3.921875 -29.15625 L 12.828125 -29.15625 C 16.097656 -29.15625 18.566406 -28.414062 20.234375 -26.9375 C 21.910156 -25.46875 22.75 -23.304688 22.75 -20.453125 C 22.75 -17.578125 21.910156 -15.398438 20.234375 -13.921875 C 18.566406 -12.453125 16.097656 -11.71875 12.828125 -11.71875 L 7.875 -11.71875 L 7.875 0 L 3.921875 0 Z M 3.921875 -29.15625 "/>
</symbol>
<symbol overflow="visible" id="glyph0-12">
<path style="stroke:none;" d="M 3.765625 -21.875 L 7.359375 -21.875 L 7.359375 0 L 3.765625 0 Z M 3.765625 -30.390625 L 7.359375 -30.390625 L 7.359375 -25.84375 L 3.765625 -25.84375 Z M 3.765625 -30.390625 "/>
</symbol>
<symbol overflow="visible" id="glyph0-13">
<path style="stroke:none;" d="M 13.71875 -11 C 10.8125 -11 8.796875 -10.664062 7.671875 -10 C 6.554688 -9.332031 6 -8.203125 6 -6.609375 C 6 -5.328125 6.414062 -4.3125 7.25 -3.5625 C 8.09375 -2.8125 9.238281 -2.4375 10.6875 -2.4375 C 12.675781 -2.4375 14.269531 -3.144531 15.46875 -4.5625 C 16.675781 -5.976562 17.28125 -7.859375 17.28125 -10.203125 L 17.28125 -11 Z M 20.875 -12.484375 L 20.875 0 L 17.28125 0 L 17.28125 -3.328125 C 16.46875 -1.992188 15.445312 -1.007812 14.21875 -0.375 C 13 0.25 11.503906 0.5625 9.734375 0.5625 C 7.492188 0.5625 5.710938 -0.0625 4.390625 -1.3125 C 3.066406 -2.570312 2.40625 -4.257812 2.40625 -6.375 C 2.40625 -8.832031 3.226562 -10.6875 4.875 -11.9375 C 6.519531 -13.1875 8.976562 -13.8125 12.25 -13.8125 L 17.28125 -13.8125 L 17.28125 -14.15625 C 17.28125 -15.8125 16.738281 -17.09375 15.65625 -18 C 14.570312 -18.90625 13.046875 -19.359375 11.078125 -19.359375 C 9.828125 -19.359375 8.609375 -19.207031 7.421875 -18.90625 C 6.234375 -18.601562 5.09375 -18.15625 4 -17.5625 L 4 -20.875 C 5.320312 -21.382812 6.597656 -21.765625 7.828125 -22.015625 C 9.066406 -22.273438 10.273438 -22.40625 11.453125 -22.40625 C 14.609375 -22.40625 16.96875 -21.582031 18.53125 -19.9375 C 20.09375 -18.300781 20.875 -15.816406 20.875 -12.484375 Z M 20.875 -12.484375 "/>
</symbol>
<symbol overflow="visible" id="glyph0-14">
<path style="stroke:none;" d="M 18.171875 -18.5625 L 18.171875 -30.390625 L 21.765625 -30.390625 L 21.765625 0 L 18.171875 0 L 18.171875 -3.28125 C 17.410156 -1.976562 16.453125 -1.007812 15.296875 -0.375 C 14.148438 0.25 12.769531 0.5625 11.15625 0.5625 C 8.507812 0.5625 6.351562 -0.488281 4.6875 -2.59375 C 3.03125 -4.707031 2.203125 -7.484375 2.203125 -10.921875 C 2.203125 -14.359375 3.03125 -17.128906 4.6875 -19.234375 C 6.351562 -21.347656 8.507812 -22.40625 11.15625 -22.40625 C 12.769531 -22.40625 14.148438 -22.085938 15.296875 -21.453125 C 16.453125 -20.828125 17.410156 -19.863281 18.171875 -18.5625 Z M 5.921875 -10.921875 C 5.921875 -8.273438 6.460938 -6.195312 7.546875 -4.6875 C 8.640625 -3.1875 10.132812 -2.4375 12.03125 -2.4375 C 13.9375 -2.4375 15.4375 -3.1875 16.53125 -4.6875 C 17.625 -6.195312 18.171875 -8.273438 18.171875 -10.921875 C 18.171875 -13.566406 17.625 -15.640625 16.53125 -17.140625 C 15.4375 -18.640625 13.9375 -19.390625 12.03125 -19.390625 C 10.132812 -19.390625 8.640625 -18.640625 7.546875 -17.140625 C 6.460938 -15.640625 5.921875 -13.566406 5.921875 -10.921875 Z M 5.921875 -10.921875 "/>
</symbol>
<symbol overflow="visible" id="glyph1-0">
<path style="stroke:none;" d="M 1.3125 4.640625 L 1.3125 -18.53125 L 14.453125 -18.53125 L 14.453125 4.640625 Z M 2.78125 3.1875 L 12.984375 3.1875 L 12.984375 -17.046875 L 2.78125 -17.046875 Z M 2.78125 3.1875 "/>
</symbol>
<symbol overflow="visible" id="glyph1-1">
<path style="stroke:none;" d="M 2.484375 -14.375 L 4.84375 -14.375 L 4.84375 0 L 2.484375 0 Z M 2.484375 -19.96875 L 4.84375 -19.96875 L 4.84375 -16.984375 L 2.484375 -16.984375 Z M 2.484375 -19.96875 "/>
</symbol>
<symbol overflow="visible" id="glyph1-2">
<path style="stroke:none;" d="M 14.421875 -8.671875 L 14.421875 0 L 12.0625 0 L 12.0625 -8.59375 C 12.0625 -9.957031 11.796875 -10.976562 11.265625 -11.65625 C 10.734375 -12.332031 9.9375 -12.671875 8.875 -12.671875 C 7.601562 -12.671875 6.597656 -12.265625 5.859375 -11.453125 C 5.128906 -10.640625 4.765625 -9.53125 4.765625 -8.125 L 4.765625 0 L 2.390625 0 L 2.390625 -14.375 L 4.765625 -14.375 L 4.765625 -12.140625 C 5.328125 -13.003906 5.988281 -13.648438 6.75 -14.078125 C 7.519531 -14.503906 8.40625 -14.71875 9.40625 -14.71875 C 11.0625 -14.71875 12.3125 -14.207031 13.15625 -13.1875 C 14 -12.164062 14.421875 -10.660156 14.421875 -8.671875 Z M 14.421875 -8.671875 "/>
</symbol>
<symbol overflow="visible" id="glyph2-0">
<path style="stroke:none;" d="M 0.859375 3.0625 L 0.859375 -12.203125 L 9.515625 -12.203125 L 9.515625 3.0625 Z M 1.828125 2.09375 L 8.546875 2.09375 L 8.546875 -11.21875 L 1.828125 -11.21875 Z M 1.828125 2.09375 "/>
</symbol>
<symbol overflow="visible" id="glyph2-1">
<path style="stroke:none;" d="M 10.296875 -1.796875 L 10.296875 -5.1875 L 7.515625 -5.1875 L 7.515625 -6.59375 L 11.984375 -6.59375 L 11.984375 -1.171875 C 11.328125 -0.703125 10.597656 -0.347656 9.796875 -0.109375 C 9.003906 0.128906 8.160156 0.25 7.265625 0.25 C 5.296875 0.25 3.753906 -0.320312 2.640625 -1.46875 C 1.523438 -2.625 0.96875 -4.234375 0.96875 -6.296875 C 0.96875 -8.359375 1.523438 -9.960938 2.640625 -11.109375 C 3.753906 -12.265625 5.296875 -12.84375 7.265625 -12.84375 C 8.085938 -12.84375 8.867188 -12.738281 9.609375 -12.53125 C 10.347656 -12.332031 11.03125 -12.035156 11.65625 -11.640625 L 11.65625 -9.828125 C 11.019531 -10.359375 10.347656 -10.757812 9.640625 -11.03125 C 8.929688 -11.300781 8.1875 -11.4375 7.40625 -11.4375 C 5.863281 -11.4375 4.703125 -11.003906 3.921875 -10.140625 C 3.148438 -9.273438 2.765625 -7.992188 2.765625 -6.296875 C 2.765625 -4.585938 3.148438 -3.300781 3.921875 -2.4375 C 4.703125 -1.582031 5.863281 -1.15625 7.40625 -1.15625 C 8.007812 -1.15625 8.546875 -1.207031 9.015625 -1.3125 C 9.492188 -1.414062 9.921875 -1.578125 10.296875 -1.796875 Z M 10.296875 -1.796875 "/>
</symbol>
<symbol overflow="visible" id="glyph2-2">
<path style="stroke:none;" d="M 7.109375 -8 C 6.929688 -8.101562 6.738281 -8.175781 6.53125 -8.21875 C 6.332031 -8.269531 6.109375 -8.296875 5.859375 -8.296875 C 4.984375 -8.296875 4.3125 -8.007812 3.84375 -7.4375 C 3.375 -6.875 3.140625 -6.054688 3.140625 -4.984375 L 3.140625 0 L 1.578125 0 L 1.578125 -9.453125 L 3.140625 -9.453125 L 3.140625 -7.984375 C 3.460938 -8.554688 3.882812 -8.984375 4.40625 -9.265625 C 4.925781 -9.546875 5.5625 -9.6875 6.3125 -9.6875 C 6.425781 -9.6875 6.546875 -9.675781 6.671875 -9.65625 C 6.796875 -9.644531 6.941406 -9.628906 7.109375 -9.609375 Z M 7.109375 -8 "/>
</symbol>
<symbol overflow="visible" id="glyph2-3">
<path style="stroke:none;" d="M 5.296875 -8.375 C 4.460938 -8.375 3.800781 -8.046875 3.3125 -7.390625 C 2.832031 -6.742188 2.59375 -5.851562 2.59375 -4.71875 C 2.59375 -3.59375 2.832031 -2.703125 3.3125 -2.046875 C 3.789062 -1.398438 4.453125 -1.078125 5.296875 -1.078125 C 6.117188 -1.078125 6.769531 -1.398438 7.25 -2.046875 C 7.738281 -2.703125 7.984375 -3.59375 7.984375 -4.71875 C 7.984375 -5.84375 7.738281 -6.734375 7.25 -7.390625 C 6.769531 -8.046875 6.117188 -8.375 5.296875 -8.375 Z M 5.296875 -9.6875 C 6.648438 -9.6875 7.710938 -9.242188 8.484375 -8.359375 C 9.253906 -7.484375 9.640625 -6.269531 9.640625 -4.71875 C 9.640625 -3.175781 9.253906 -1.960938 8.484375 -1.078125 C 7.710938 -0.191406 6.648438 0.25 5.296875 0.25 C 3.941406 0.25 2.878906 -0.191406 2.109375 -1.078125 C 1.335938 -1.960938 0.953125 -3.175781 0.953125 -4.71875 C 0.953125 -6.269531 1.335938 -7.484375 2.109375 -8.359375 C 2.878906 -9.242188 3.941406 -9.6875 5.296875 -9.6875 Z M 5.296875 -9.6875 "/>
</symbol>
<symbol overflow="visible" id="glyph2-4">
<path style="stroke:none;" d="M 7.65625 -9.1875 L 7.65625 -7.71875 C 7.21875 -7.9375 6.757812 -8.101562 6.28125 -8.21875 C 5.8125 -8.332031 5.328125 -8.390625 4.828125 -8.390625 C 4.054688 -8.390625 3.476562 -8.269531 3.09375 -8.03125 C 2.707031 -7.789062 2.515625 -7.4375 2.515625 -6.96875 C 2.515625 -6.601562 2.648438 -6.316406 2.921875 -6.109375 C 3.203125 -5.910156 3.757812 -5.71875 4.59375 -5.53125 L 5.125 -5.40625 C 6.226562 -5.175781 7.007812 -4.84375 7.46875 -4.40625 C 7.9375 -3.976562 8.171875 -3.378906 8.171875 -2.609375 C 8.171875 -1.734375 7.820312 -1.035156 7.125 -0.515625 C 6.425781 -0.00390625 5.46875 0.25 4.25 0.25 C 3.75 0.25 3.222656 0.195312 2.671875 0.09375 C 2.117188 0 1.539062 -0.144531 0.9375 -0.34375 L 0.9375 -1.953125 C 1.507812 -1.648438 2.070312 -1.425781 2.625 -1.28125 C 3.1875 -1.132812 3.742188 -1.0625 4.296875 -1.0625 C 5.023438 -1.0625 5.585938 -1.1875 5.984375 -1.4375 C 6.378906 -1.6875 6.578125 -2.035156 6.578125 -2.484375 C 6.578125 -2.910156 6.429688 -3.234375 6.140625 -3.453125 C 5.859375 -3.679688 5.238281 -3.898438 4.28125 -4.109375 L 3.734375 -4.234375 C 2.765625 -4.441406 2.066406 -4.753906 1.640625 -5.171875 C 1.210938 -5.585938 1 -6.164062 1 -6.90625 C 1 -7.789062 1.3125 -8.472656 1.9375 -8.953125 C 2.570312 -9.441406 3.472656 -9.6875 4.640625 -9.6875 C 5.210938 -9.6875 5.75 -9.644531 6.25 -9.5625 C 6.757812 -9.476562 7.226562 -9.351562 7.65625 -9.1875 Z M 7.65625 -9.1875 "/>
</symbol>
<symbol overflow="visible" id="glyph3-0">
<path style="stroke:none;" d="M 0.84375 3 L 0.84375 -11.96875 L 9.328125 -11.96875 L 9.328125 3 Z M 1.796875 2.0625 L 8.390625 2.0625 L 8.390625 -11.015625 L 1.796875 -11.015625 Z M 1.796875 2.0625 "/>
</symbol>
<symbol overflow="visible" id="glyph3-1">
<path style="stroke:none;" d="M 3.078125 -1.390625 L 3.078125 3.53125 L 1.546875 3.53125 L 1.546875 -9.28125 L 3.078125 -9.28125 L 3.078125 -7.875 C 3.390625 -8.425781 3.789062 -8.832031 4.28125 -9.09375 C 4.769531 -9.363281 5.359375 -9.5 6.046875 -9.5 C 7.171875 -9.5 8.082031 -9.050781 8.78125 -8.15625 C 9.488281 -7.257812 9.84375 -6.082031 9.84375 -4.625 C 9.84375 -3.164062 9.488281 -1.988281 8.78125 -1.09375 C 8.082031 -0.207031 7.171875 0.234375 6.046875 0.234375 C 5.359375 0.234375 4.769531 0.101562 4.28125 -0.15625 C 3.789062 -0.425781 3.390625 -0.835938 3.078125 -1.390625 Z M 8.265625 -4.625 C 8.265625 -5.75 8.03125 -6.628906 7.5625 -7.265625 C 7.101562 -7.910156 6.472656 -8.234375 5.671875 -8.234375 C 4.859375 -8.234375 4.222656 -7.910156 3.765625 -7.265625 C 3.304688 -6.628906 3.078125 -5.75 3.078125 -4.625 C 3.078125 -3.507812 3.304688 -2.628906 3.765625 -1.984375 C 4.222656 -1.347656 4.859375 -1.03125 5.671875 -1.03125 C 6.472656 -1.03125 7.101562 -1.347656 7.5625 -1.984375 C 8.03125 -2.628906 8.265625 -3.507812 8.265625 -4.625 Z M 8.265625 -4.625 "/>
</symbol>
<symbol overflow="visible" id="glyph3-2">
<path style="stroke:none;" d="M 9.53125 -5.015625 L 9.53125 -4.28125 L 2.53125 -4.28125 C 2.59375 -3.226562 2.90625 -2.425781 3.46875 -1.875 C 4.039062 -1.320312 4.832031 -1.046875 5.84375 -1.046875 C 6.425781 -1.046875 6.992188 -1.117188 7.546875 -1.265625 C 8.097656 -1.410156 8.644531 -1.625 9.1875 -1.90625 L 9.1875 -0.46875 C 8.632812 -0.238281 8.070312 -0.0664062 7.5 0.046875 C 6.925781 0.171875 6.34375 0.234375 5.75 0.234375 C 4.269531 0.234375 3.097656 -0.191406 2.234375 -1.046875 C 1.367188 -1.910156 0.9375 -3.078125 0.9375 -4.546875 C 0.9375 -6.066406 1.34375 -7.269531 2.15625 -8.15625 C 2.976562 -9.050781 4.085938 -9.5 5.484375 -9.5 C 6.734375 -9.5 7.71875 -9.097656 8.4375 -8.296875 C 9.164062 -7.492188 9.53125 -6.398438 9.53125 -5.015625 Z M 8.015625 -5.46875 C 8.003906 -6.300781 7.769531 -6.96875 7.3125 -7.46875 C 6.851562 -7.96875 6.25 -8.21875 5.5 -8.21875 C 4.644531 -8.21875 3.960938 -7.972656 3.453125 -7.484375 C 2.941406 -7.003906 2.648438 -6.328125 2.578125 -5.453125 Z M 8.015625 -5.46875 "/>
</symbol>
<symbol overflow="visible" id="glyph3-3">
<path style="stroke:none;" d="M 6.96875 -7.859375 C 6.800781 -7.953125 6.613281 -8.019531 6.40625 -8.0625 C 6.207031 -8.113281 5.988281 -8.140625 5.75 -8.140625 C 4.882812 -8.140625 4.222656 -7.859375 3.765625 -7.296875 C 3.304688 -6.742188 3.078125 -5.941406 3.078125 -4.890625 L 3.078125 0 L 1.546875 0 L 1.546875 -9.28125 L 3.078125 -9.28125 L 3.078125 -7.84375 C 3.390625 -8.40625 3.800781 -8.820312 4.3125 -9.09375 C 4.832031 -9.363281 5.460938 -9.5 6.203125 -9.5 C 6.304688 -9.5 6.421875 -9.492188 6.546875 -9.484375 C 6.671875 -9.472656 6.8125 -9.453125 6.96875 -9.421875 Z M 6.96875 -7.859375 "/>
</symbol>
<symbol overflow="visible" id="glyph4-0">
<path style="stroke:none;" d="M 1.59375 5.65625 L 1.59375 -22.5625 L 17.59375 -22.5625 L 17.59375 5.65625 Z M 3.390625 3.875 L 15.8125 3.875 L 15.8125 -20.765625 L 3.390625 -20.765625 Z M 3.390625 3.875 "/>
</symbol>
<symbol overflow="visible" id="glyph4-1">
<path style="stroke:none;" d="M 9.15625 0 L 0.25 -23.328125 L 3.546875 -23.328125 L 10.9375 -3.6875 L 18.34375 -23.328125 L 21.625 -23.328125 L 12.734375 0 Z M 9.15625 0 "/>
</symbol>
<symbol overflow="visible" id="glyph4-2">
<path style="stroke:none;" d="M 3.015625 -17.5 L 5.890625 -17.5 L 5.890625 0 L 3.015625 0 Z M 3.015625 -24.3125 L 5.890625 -24.3125 L 5.890625 -20.671875 L 3.015625 -20.671875 Z M 3.015625 -24.3125 "/>
</symbol>
<symbol overflow="visible" id="glyph4-3">
<path style="stroke:none;" d="M 9.796875 -15.484375 C 8.253906 -15.484375 7.035156 -14.878906 6.140625 -13.671875 C 5.242188 -12.472656 4.796875 -10.828125 4.796875 -8.734375 C 4.796875 -6.640625 5.238281 -4.988281 6.125 -3.78125 C 7.019531 -2.582031 8.242188 -1.984375 9.796875 -1.984375 C 11.328125 -1.984375 12.539062 -2.585938 13.4375 -3.796875 C 14.332031 -5.003906 14.78125 -6.648438 14.78125 -8.734375 C 14.78125 -10.804688 14.332031 -12.445312 13.4375 -13.65625 C 12.539062 -14.875 11.328125 -15.484375 9.796875 -15.484375 Z M 9.796875 -17.921875 C 12.296875 -17.921875 14.257812 -17.109375 15.6875 -15.484375 C 17.113281 -13.859375 17.828125 -11.609375 17.828125 -8.734375 C 17.828125 -5.867188 17.113281 -3.617188 15.6875 -1.984375 C 14.257812 -0.359375 12.296875 0.453125 9.796875 0.453125 C 7.285156 0.453125 5.316406 -0.359375 3.890625 -1.984375 C 2.472656 -3.617188 1.765625 -5.867188 1.765625 -8.734375 C 1.765625 -11.609375 2.472656 -13.859375 3.890625 -15.484375 C 5.316406 -17.109375 7.285156 -17.921875 9.796875 -17.921875 Z M 9.796875 -17.921875 "/>
</symbol>
<symbol overflow="visible" id="glyph4-4">
<path style="stroke:none;" d="M 3.015625 -24.3125 L 5.890625 -24.3125 L 5.890625 0 L 3.015625 0 Z M 3.015625 -24.3125 "/>
</symbol>
<symbol overflow="visible" id="glyph4-5">
<path style="stroke:none;" d="M 17.5625 -10.5625 L 17.5625 0 L 14.6875 0 L 14.6875 -10.46875 C 14.6875 -12.125 14.363281 -13.363281 13.71875 -14.1875 C 13.070312 -15.007812 12.101562 -15.421875 10.8125 -15.421875 C 9.257812 -15.421875 8.035156 -14.925781 7.140625 -13.9375 C 6.242188 -12.945312 5.796875 -11.597656 5.796875 -9.890625 L 5.796875 0 L 2.90625 0 L 2.90625 -17.5 L 5.796875 -17.5 L 5.796875 -14.78125 C 6.484375 -15.832031 7.289062 -16.617188 8.21875 -17.140625 C 9.15625 -17.660156 10.234375 -17.921875 11.453125 -17.921875 C 13.460938 -17.921875 14.984375 -17.296875 16.015625 -16.046875 C 17.046875 -14.804688 17.5625 -12.976562 17.5625 -10.5625 Z M 17.5625 -10.5625 "/>
</symbol>
<symbol overflow="visible" id="glyph5-0">
<path style="stroke:none;" d="M 1.359375 4.8125 L 1.359375 -19.1875 L 14.953125 -19.1875 L 14.953125 4.8125 Z M 2.875 3.296875 L 13.4375 3.296875 L 13.4375 -17.65625 L 2.875 -17.65625 Z M 2.875 3.296875 "/>
</symbol>
<symbol overflow="visible" id="glyph5-1">
<path style="stroke:none;" d="M 10.71875 -18.015625 C 8.769531 -18.015625 7.222656 -17.285156 6.078125 -15.828125 C 4.929688 -14.378906 4.359375 -12.398438 4.359375 -9.890625 C 4.359375 -7.398438 4.929688 -5.425781 6.078125 -3.96875 C 7.222656 -2.519531 8.769531 -1.796875 10.71875 -1.796875 C 12.664062 -1.796875 14.207031 -2.519531 15.34375 -3.96875 C 16.488281 -5.425781 17.0625 -7.398438 17.0625 -9.890625 C 17.0625 -12.398438 16.488281 -14.378906 15.34375 -15.828125 C 14.207031 -17.285156 12.664062 -18.015625 10.71875 -18.015625 Z M 10.71875 -20.1875 C 13.5 -20.1875 15.722656 -19.253906 17.390625 -17.390625 C 19.054688 -15.523438 19.890625 -13.023438 19.890625 -9.890625 C 19.890625 -6.765625 19.054688 -4.269531 17.390625 -2.40625 C 15.722656 -0.539062 13.5 0.390625 10.71875 0.390625 C 7.925781 0.390625 5.695312 -0.535156 4.03125 -2.390625 C 2.363281 -4.253906 1.53125 -6.753906 1.53125 -9.890625 C 1.53125 -13.023438 2.363281 -15.523438 4.03125 -17.390625 C 5.695312 -19.253906 7.925781 -20.1875 10.71875 -20.1875 Z M 10.71875 -20.1875 "/>
</symbol>
<symbol overflow="visible" id="glyph5-2">
<path style="stroke:none;" d="M 11.1875 -12.59375 C 10.90625 -12.75 10.601562 -12.863281 10.28125 -12.9375 C 9.957031 -13.019531 9.601562 -13.0625 9.21875 -13.0625 C 7.832031 -13.0625 6.769531 -12.609375 6.03125 -11.703125 C 5.289062 -10.804688 4.921875 -9.519531 4.921875 -7.84375 L 4.921875 0 L 2.46875 0 L 2.46875 -14.875 L 4.921875 -14.875 L 4.921875 -12.5625 C 5.441406 -13.46875 6.113281 -14.140625 6.9375 -14.578125 C 7.757812 -15.015625 8.757812 -15.234375 9.9375 -15.234375 C 10.101562 -15.234375 10.285156 -15.222656 10.484375 -15.203125 C 10.691406 -15.179688 10.921875 -15.148438 11.171875 -15.109375 Z M 11.1875 -12.59375 "/>
</symbol>
<symbol overflow="visible" id="glyph5-3">
<path style="stroke:none;" d="M 13.265625 -14.3125 L 13.265625 -12.015625 C 12.578125 -12.398438 11.882812 -12.6875 11.1875 -12.875 C 10.488281 -13.0625 9.785156 -13.15625 9.078125 -13.15625 C 7.492188 -13.15625 6.265625 -12.648438 5.390625 -11.640625 C 4.515625 -10.640625 4.078125 -9.234375 4.078125 -7.421875 C 4.078125 -5.609375 4.515625 -4.195312 5.390625 -3.1875 C 6.265625 -2.1875 7.492188 -1.6875 9.078125 -1.6875 C 9.785156 -1.6875 10.488281 -1.78125 11.1875 -1.96875 C 11.882812 -2.164062 12.578125 -2.453125 13.265625 -2.828125 L 13.265625 -0.578125 C 12.585938 -0.253906 11.882812 -0.015625 11.15625 0.140625 C 10.425781 0.304688 9.644531 0.390625 8.8125 0.390625 C 6.570312 0.390625 4.789062 -0.3125 3.46875 -1.71875 C 2.15625 -3.132812 1.5 -5.035156 1.5 -7.421875 C 1.5 -9.847656 2.164062 -11.753906 3.5 -13.140625 C 4.832031 -14.535156 6.660156 -15.234375 8.984375 -15.234375 C 9.734375 -15.234375 10.46875 -15.15625 11.1875 -15 C 11.90625 -14.84375 12.597656 -14.613281 13.265625 -14.3125 Z M 13.265625 -14.3125 "/>
</symbol>
<symbol overflow="visible" id="glyph5-4">
<path style="stroke:none;" d="M 14.9375 -8.984375 L 14.9375 0 L 12.484375 0 L 12.484375 -8.90625 C 12.484375 -10.3125 12.207031 -11.363281 11.65625 -12.0625 C 11.113281 -12.757812 10.289062 -13.109375 9.1875 -13.109375 C 7.875 -13.109375 6.832031 -12.6875 6.0625 -11.84375 C 5.300781 -11.007812 4.921875 -9.863281 4.921875 -8.40625 L 4.921875 0 L 2.46875 0 L 2.46875 -20.671875 L 4.921875 -20.671875 L 4.921875 -12.5625 C 5.503906 -13.457031 6.191406 -14.125 6.984375 -14.5625 C 7.785156 -15.007812 8.703125 -15.234375 9.734375 -15.234375 C 11.441406 -15.234375 12.734375 -14.703125 13.609375 -13.640625 C 14.492188 -12.585938 14.9375 -11.035156 14.9375 -8.984375 Z M 14.9375 -8.984375 "/>
</symbol>
<symbol overflow="visible" id="glyph5-5">
<path style="stroke:none;" d="M 15.28125 -8.046875 L 15.28125 -6.859375 L 4.046875 -6.859375 C 4.148438 -5.171875 4.65625 -3.882812 5.5625 -3 C 6.476562 -2.125 7.742188 -1.6875 9.359375 -1.6875 C 10.296875 -1.6875 11.207031 -1.800781 12.09375 -2.03125 C 12.976562 -2.257812 13.851562 -2.601562 14.71875 -3.0625 L 14.71875 -0.75 C 13.84375 -0.382812 12.941406 -0.101562 12.015625 0.09375 C 11.097656 0.289062 10.164062 0.390625 9.21875 0.390625 C 6.84375 0.390625 4.960938 -0.300781 3.578125 -1.6875 C 2.191406 -3.070312 1.5 -4.941406 1.5 -7.296875 C 1.5 -9.722656 2.15625 -11.648438 3.46875 -13.078125 C 4.789062 -14.515625 6.566406 -15.234375 8.796875 -15.234375 C 10.796875 -15.234375 12.375 -14.585938 13.53125 -13.296875 C 14.695312 -12.015625 15.28125 -10.265625 15.28125 -8.046875 Z M 12.84375 -8.765625 C 12.820312 -10.097656 12.445312 -11.160156 11.71875 -11.953125 C 10.988281 -12.753906 10.019531 -13.15625 8.8125 -13.15625 C 7.457031 -13.15625 6.367188 -12.769531 5.546875 -12 C 4.722656 -11.238281 4.25 -10.15625 4.125 -8.75 Z M 12.84375 -8.765625 "/>
</symbol>
<symbol overflow="visible" id="glyph5-6">
<path style="stroke:none;" d="M 12.046875 -14.4375 L 12.046875 -12.125 C 11.359375 -12.476562 10.640625 -12.742188 9.890625 -12.921875 C 9.148438 -13.097656 8.378906 -13.1875 7.578125 -13.1875 C 6.367188 -13.1875 5.457031 -13 4.84375 -12.625 C 4.238281 -12.257812 3.9375 -11.703125 3.9375 -10.953125 C 3.9375 -10.390625 4.15625 -9.945312 4.59375 -9.625 C 5.03125 -9.300781 5.90625 -8.992188 7.21875 -8.703125 L 8.046875 -8.515625 C 9.785156 -8.140625 11.019531 -7.613281 11.75 -6.9375 C 12.476562 -6.257812 12.84375 -5.316406 12.84375 -4.109375 C 12.84375 -2.722656 12.296875 -1.625 11.203125 -0.8125 C 10.109375 -0.0078125 8.601562 0.390625 6.6875 0.390625 C 5.894531 0.390625 5.066406 0.3125 4.203125 0.15625 C 3.335938 0 2.425781 -0.234375 1.46875 -0.546875 L 1.46875 -3.0625 C 2.375 -2.59375 3.265625 -2.238281 4.140625 -2 C 5.015625 -1.769531 5.882812 -1.65625 6.75 -1.65625 C 7.894531 -1.65625 8.773438 -1.851562 9.390625 -2.25 C 10.015625 -2.644531 10.328125 -3.203125 10.328125 -3.921875 C 10.328125 -4.585938 10.101562 -5.097656 9.65625 -5.453125 C 9.21875 -5.804688 8.238281 -6.144531 6.71875 -6.46875 L 5.875 -6.671875 C 4.351562 -6.984375 3.253906 -7.46875 2.578125 -8.125 C 1.910156 -8.789062 1.578125 -9.703125 1.578125 -10.859375 C 1.578125 -12.253906 2.070312 -13.332031 3.0625 -14.09375 C 4.0625 -14.851562 5.472656 -15.234375 7.296875 -15.234375 C 8.191406 -15.234375 9.035156 -15.164062 9.828125 -15.03125 C 10.628906 -14.90625 11.367188 -14.707031 12.046875 -14.4375 Z M 12.046875 -14.4375 "/>
</symbol>
<symbol overflow="visible" id="glyph5-7">
<path style="stroke:none;" d="M 4.984375 -19.09375 L 4.984375 -14.875 L 10.015625 -14.875 L 10.015625 -12.984375 L 4.984375 -12.984375 L 4.984375 -4.90625 C 4.984375 -3.6875 5.148438 -2.90625 5.484375 -2.5625 C 5.816406 -2.21875 6.488281 -2.046875 7.5 -2.046875 L 10.015625 -2.046875 L 10.015625 0 L 7.5 0 C 5.613281 0 4.3125 -0.347656 3.59375 -1.046875 C 2.882812 -1.753906 2.53125 -3.039062 2.53125 -4.90625 L 2.53125 -12.984375 L 0.734375 -12.984375 L 0.734375 -14.875 L 2.53125 -14.875 L 2.53125 -19.09375 Z M 4.984375 -19.09375 "/>
</symbol>
<symbol overflow="visible" id="glyph5-8">
<path style="stroke:none;" d="M 9.328125 -7.484375 C 7.347656 -7.484375 5.976562 -7.253906 5.21875 -6.796875 C 4.457031 -6.347656 4.078125 -5.578125 4.078125 -4.484375 C 4.078125 -3.617188 4.363281 -2.929688 4.9375 -2.421875 C 5.507812 -1.910156 6.285156 -1.65625 7.265625 -1.65625 C 8.617188 -1.65625 9.703125 -2.132812 10.515625 -3.09375 C 11.335938 -4.0625 11.75 -5.34375 11.75 -6.9375 L 11.75 -7.484375 Z M 14.203125 -8.484375 L 14.203125 0 L 11.75 0 L 11.75 -2.265625 C 11.195312 -1.359375 10.503906 -0.6875 9.671875 -0.25 C 8.835938 0.175781 7.816406 0.390625 6.609375 0.390625 C 5.085938 0.390625 3.878906 -0.0351562 2.984375 -0.890625 C 2.085938 -1.742188 1.640625 -2.890625 1.640625 -4.328125 C 1.640625 -6.003906 2.195312 -7.265625 3.3125 -8.109375 C 4.4375 -8.960938 6.109375 -9.390625 8.328125 -9.390625 L 11.75 -9.390625 L 11.75 -9.625 C 11.75 -10.75 11.378906 -11.617188 10.640625 -12.234375 C 9.898438 -12.847656 8.863281 -13.15625 7.53125 -13.15625 C 6.675781 -13.15625 5.847656 -13.050781 5.046875 -12.84375 C 4.242188 -12.644531 3.46875 -12.34375 2.71875 -11.9375 L 2.71875 -14.203125 C 3.613281 -14.546875 4.484375 -14.800781 5.328125 -14.96875 C 6.171875 -15.144531 6.988281 -15.234375 7.78125 -15.234375 C 9.9375 -15.234375 11.546875 -14.675781 12.609375 -13.5625 C 13.671875 -12.445312 14.203125 -10.753906 14.203125 -8.484375 Z M 14.203125 -8.484375 "/>
</symbol>
<symbol overflow="visible" id="glyph6-0">
<path style="stroke:none;" d="M 1.03125 3.671875 L 1.03125 -14.65625 L 11.4375 -14.65625 L 11.4375 3.671875 Z M 2.203125 2.515625 L 10.28125 2.515625 L 10.28125 -13.5 L 2.203125 -13.5 Z M 2.203125 2.515625 "/>
</symbol>
<symbol overflow="visible" id="glyph6-1">
<path style="stroke:none;" d="M 11.125 -14.65625 L 11.125 -12.65625 C 10.351562 -13.03125 9.617188 -13.304688 8.921875 -13.484375 C 8.234375 -13.671875 7.566406 -13.765625 6.921875 -13.765625 C 5.804688 -13.765625 4.945312 -13.546875 4.34375 -13.109375 C 3.738281 -12.679688 3.4375 -12.066406 3.4375 -11.265625 C 3.4375 -10.597656 3.632812 -10.09375 4.03125 -9.75 C 4.4375 -9.40625 5.203125 -9.128906 6.328125 -8.921875 L 7.5625 -8.671875 C 9.09375 -8.378906 10.222656 -7.863281 10.953125 -7.125 C 11.679688 -6.394531 12.046875 -5.414062 12.046875 -4.1875 C 12.046875 -2.71875 11.550781 -1.601562 10.5625 -0.84375 C 9.582031 -0.0820312 8.140625 0.296875 6.234375 0.296875 C 5.515625 0.296875 4.75 0.210938 3.9375 0.046875 C 3.132812 -0.109375 2.300781 -0.347656 1.4375 -0.671875 L 1.4375 -2.78125 C 2.269531 -2.3125 3.082031 -1.957031 3.875 -1.71875 C 4.675781 -1.488281 5.460938 -1.375 6.234375 -1.375 C 7.398438 -1.375 8.300781 -1.601562 8.9375 -2.0625 C 9.582031 -2.519531 9.90625 -3.175781 9.90625 -4.03125 C 9.90625 -4.78125 9.675781 -5.363281 9.21875 -5.78125 C 8.757812 -6.195312 8.007812 -6.507812 6.96875 -6.71875 L 5.71875 -6.96875 C 4.1875 -7.269531 3.078125 -7.742188 2.390625 -8.390625 C 1.710938 -9.046875 1.375 -9.953125 1.375 -11.109375 C 1.375 -12.453125 1.84375 -13.507812 2.78125 -14.28125 C 3.726562 -15.050781 5.03125 -15.4375 6.6875 -15.4375 C 7.40625 -15.4375 8.128906 -15.367188 8.859375 -15.234375 C 9.597656 -15.109375 10.351562 -14.914062 11.125 -14.65625 Z M 11.125 -14.65625 "/>
</symbol>
<symbol overflow="visible" id="glyph6-2">
<path style="stroke:none;" d="M 3.8125 -14.609375 L 3.8125 -11.375 L 7.65625 -11.375 L 7.65625 -9.921875 L 3.8125 -9.921875 L 3.8125 -3.75 C 3.8125 -2.820312 3.9375 -2.222656 4.1875 -1.953125 C 4.4375 -1.691406 4.953125 -1.5625 5.734375 -1.5625 L 7.65625 -1.5625 L 7.65625 0 L 5.734375 0 C 4.296875 0 3.300781 -0.265625 2.75 -0.796875 C 2.195312 -1.335938 1.921875 -2.320312 1.921875 -3.75 L 1.921875 -9.921875 L 0.5625 -9.921875 L 0.5625 -11.375 L 1.921875 -11.375 L 1.921875 -14.609375 Z M 3.8125 -14.609375 "/>
</symbol>
<symbol overflow="visible" id="glyph6-3">
<path style="stroke:none;" d="M 8.546875 -9.625 C 8.335938 -9.75 8.109375 -9.835938 7.859375 -9.890625 C 7.617188 -9.953125 7.347656 -9.984375 7.046875 -9.984375 C 5.992188 -9.984375 5.179688 -9.640625 4.609375 -8.953125 C 4.046875 -8.265625 3.765625 -7.273438 3.765625 -5.984375 L 3.765625 0 L 1.890625 0 L 1.890625 -11.375 L 3.765625 -11.375 L 3.765625 -9.609375 C 4.160156 -10.296875 4.671875 -10.804688 5.296875 -11.140625 C 5.929688 -11.472656 6.695312 -11.640625 7.59375 -11.640625 C 7.71875 -11.640625 7.859375 -11.628906 8.015625 -11.609375 C 8.171875 -11.597656 8.347656 -11.578125 8.546875 -11.546875 Z M 8.546875 -9.625 "/>
</symbol>
<symbol overflow="visible" id="glyph6-4">
<path style="stroke:none;" d="M 1.953125 -11.375 L 3.828125 -11.375 L 3.828125 0 L 1.953125 0 Z M 1.953125 -15.796875 L 3.828125 -15.796875 L 3.828125 -13.4375 L 1.953125 -13.4375 Z M 1.953125 -15.796875 "/>
</symbol>
<symbol overflow="visible" id="glyph6-5">
<path style="stroke:none;" d="M 11.40625 -6.859375 L 11.40625 0 L 9.546875 0 L 9.546875 -6.796875 C 9.546875 -7.878906 9.332031 -8.6875 8.90625 -9.21875 C 8.488281 -9.75 7.863281 -10.015625 7.03125 -10.015625 C 6.019531 -10.015625 5.222656 -9.691406 4.640625 -9.046875 C 4.054688 -8.410156 3.765625 -7.535156 3.765625 -6.421875 L 3.765625 0 L 1.890625 0 L 1.890625 -11.375 L 3.765625 -11.375 L 3.765625 -9.609375 C 4.210938 -10.285156 4.738281 -10.789062 5.34375 -11.125 C 5.945312 -11.46875 6.644531 -11.640625 7.4375 -11.640625 C 8.75 -11.640625 9.738281 -11.234375 10.40625 -10.421875 C 11.070312 -9.617188 11.40625 -8.429688 11.40625 -6.859375 Z M 11.40625 -6.859375 "/>
</symbol>
<symbol overflow="visible" id="glyph6-6">
<path style="stroke:none;" d="M 9.4375 -5.8125 C 9.4375 -7.164062 9.15625 -8.210938 8.59375 -8.953125 C 8.039062 -9.703125 7.257812 -10.078125 6.25 -10.078125 C 5.25 -10.078125 4.46875 -9.703125 3.90625 -8.953125 C 3.351562 -8.210938 3.078125 -7.164062 3.078125 -5.8125 C 3.078125 -4.46875 3.351562 -3.421875 3.90625 -2.671875 C 4.46875 -1.929688 5.25 -1.5625 6.25 -1.5625 C 7.257812 -1.5625 8.039062 -1.929688 8.59375 -2.671875 C 9.15625 -3.421875 9.4375 -4.46875 9.4375 -5.8125 Z M 11.3125 -1.40625 C 11.3125 0.53125 10.878906 1.96875 10.015625 2.90625 C 9.160156 3.851562 7.847656 4.328125 6.078125 4.328125 C 5.421875 4.328125 4.800781 4.273438 4.21875 4.171875 C 3.632812 4.078125 3.066406 3.929688 2.515625 3.734375 L 2.515625 1.90625 C 3.066406 2.207031 3.609375 2.425781 4.140625 2.5625 C 4.679688 2.707031 5.226562 2.78125 5.78125 2.78125 C 7 2.78125 7.910156 2.457031 8.515625 1.8125 C 9.128906 1.175781 9.4375 0.210938 9.4375 -1.078125 L 9.4375 -2 C 9.050781 -1.332031 8.554688 -0.832031 7.953125 -0.5 C 7.359375 -0.164062 6.640625 0 5.796875 0 C 4.398438 0 3.273438 -0.53125 2.421875 -1.59375 C 1.566406 -2.65625 1.140625 -4.0625 1.140625 -5.8125 C 1.140625 -7.570312 1.566406 -8.984375 2.421875 -10.046875 C 3.273438 -11.109375 4.398438 -11.640625 5.796875 -11.640625 C 6.640625 -11.640625 7.359375 -11.472656 7.953125 -11.140625 C 8.554688 -10.816406 9.050781 -10.316406 9.4375 -9.640625 L 9.4375 -11.375 L 11.3125 -11.375 Z M 11.3125 -1.40625 "/>
</symbol>
<symbol overflow="visible" id="glyph6-7">
<path style="stroke:none;" d="M 10.625 -9.15625 L 7.671875 -9.15625 L 6.828125 -5.75 L 9.796875 -5.75 Z M 9.109375 -14.921875 L 8.046875 -10.71875 L 11.015625 -10.71875 L 12.078125 -14.921875 L 13.703125 -14.921875 L 12.65625 -10.71875 L 15.828125 -10.71875 L 15.828125 -9.15625 L 12.265625 -9.15625 L 11.4375 -5.75 L 14.65625 -5.75 L 14.65625 -4.203125 L 11.03125 -4.203125 L 9.984375 0 L 8.359375 0 L 9.40625 -4.203125 L 6.421875 -4.203125 L 5.375 0 L 3.75 0 L 4.796875 -4.203125 L 1.609375 -4.203125 L 1.609375 -5.75 L 5.171875 -5.75 L 6.03125 -9.15625 L 2.765625 -9.15625 L 2.765625 -10.71875 L 6.421875 -10.71875 L 7.46875 -14.921875 Z M 9.109375 -14.921875 "/>
</symbol>
<symbol overflow="visible" id="glyph6-8">
<path style="stroke:none;" d="M 2.578125 -1.71875 L 5.9375 -1.71875 L 5.9375 -13.296875 L 2.28125 -12.5625 L 2.28125 -14.4375 L 5.90625 -15.15625 L 7.96875 -15.15625 L 7.96875 -1.71875 L 11.3125 -1.71875 L 11.3125 0 L 2.578125 0 Z M 2.578125 -1.71875 "/>
</symbol>
<symbol overflow="visible" id="glyph7-0">
<path style="stroke:none;" d="M 1.515625 5.375 L 1.515625 -21.4375 L 16.71875 -21.4375 L 16.71875 5.375 Z M 3.21875 3.6875 L 15.03125 3.6875 L 15.03125 -19.734375 L 3.21875 -19.734375 Z M 3.21875 3.6875 "/>
</symbol>
<symbol overflow="visible" id="glyph7-1">
<path style="stroke:none;" d="M 5.984375 -19.703125 L 5.984375 -11.375 L 9.75 -11.375 C 11.144531 -11.375 12.222656 -11.734375 12.984375 -12.453125 C 13.753906 -13.179688 14.140625 -14.210938 14.140625 -15.546875 C 14.140625 -16.867188 13.753906 -17.890625 12.984375 -18.609375 C 12.222656 -19.335938 11.144531 -19.703125 9.75 -19.703125 Z M 2.984375 -22.171875 L 9.75 -22.171875 C 12.238281 -22.171875 14.117188 -21.609375 15.390625 -20.484375 C 16.660156 -19.359375 17.296875 -17.710938 17.296875 -15.546875 C 17.296875 -13.359375 16.660156 -11.703125 15.390625 -10.578125 C 14.117188 -9.460938 12.238281 -8.90625 9.75 -8.90625 L 5.984375 -8.90625 L 5.984375 0 L 2.984375 0 Z M 2.984375 -22.171875 "/>
</symbol>
<symbol overflow="visible" id="glyph7-2">
<path style="stroke:none;" d="M 2.859375 -16.625 L 5.59375 -16.625 L 5.59375 0 L 2.859375 0 Z M 2.859375 -23.109375 L 5.59375 -23.109375 L 5.59375 -19.640625 L 2.859375 -19.640625 Z M 2.859375 -23.109375 "/>
</symbol>
<symbol overflow="visible" id="glyph7-3">
<path style="stroke:none;" d="M 10.421875 -8.359375 C 8.210938 -8.359375 6.679688 -8.101562 5.828125 -7.59375 C 4.984375 -7.09375 4.5625 -6.234375 4.5625 -5.015625 C 4.5625 -4.046875 4.878906 -3.273438 5.515625 -2.703125 C 6.148438 -2.140625 7.019531 -1.859375 8.125 -1.859375 C 9.632812 -1.859375 10.847656 -2.394531 11.765625 -3.46875 C 12.679688 -4.539062 13.140625 -5.96875 13.140625 -7.75 L 13.140625 -8.359375 Z M 15.875 -9.484375 L 15.875 0 L 13.140625 0 L 13.140625 -2.53125 C 12.515625 -1.519531 11.734375 -0.769531 10.796875 -0.28125 C 9.867188 0.195312 8.734375 0.4375 7.390625 0.4375 C 5.691406 0.4375 4.335938 -0.0390625 3.328125 -1 C 2.328125 -1.957031 1.828125 -3.238281 1.828125 -4.84375 C 1.828125 -6.707031 2.453125 -8.113281 3.703125 -9.0625 C 4.953125 -10.019531 6.820312 -10.5 9.3125 -10.5 L 13.140625 -10.5 L 13.140625 -10.765625 C 13.140625 -12.023438 12.722656 -13 11.890625 -13.6875 C 11.066406 -14.375 9.910156 -14.71875 8.421875 -14.71875 C 7.472656 -14.71875 6.546875 -14.601562 5.640625 -14.375 C 4.742188 -14.144531 3.878906 -13.800781 3.046875 -13.34375 L 3.046875 -15.875 C 4.046875 -16.257812 5.015625 -16.546875 5.953125 -16.734375 C 6.890625 -16.929688 7.804688 -17.03125 8.703125 -17.03125 C 11.109375 -17.03125 12.90625 -16.40625 14.09375 -15.15625 C 15.28125 -13.90625 15.875 -12.015625 15.875 -9.484375 Z M 15.875 -9.484375 "/>
</symbol>
<symbol overflow="visible" id="glyph7-4">
<path style="stroke:none;" d="M 16.6875 -10.03125 L 16.6875 0 L 13.953125 0 L 13.953125 -9.953125 C 13.953125 -11.523438 13.644531 -12.703125 13.03125 -13.484375 C 12.414062 -14.265625 11.5 -14.65625 10.28125 -14.65625 C 8.800781 -14.65625 7.632812 -14.179688 6.78125 -13.234375 C 5.9375 -12.296875 5.515625 -11.015625 5.515625 -9.390625 L 5.515625 0 L 2.765625 0 L 2.765625 -16.625 L 5.515625 -16.625 L 5.515625 -14.046875 C 6.160156 -15.046875 6.925781 -15.789062 7.8125 -16.28125 C 8.695312 -16.78125 9.71875 -17.03125 10.875 -17.03125 C 12.789062 -17.03125 14.238281 -16.4375 15.21875 -15.25 C 16.195312 -14.070312 16.6875 -12.332031 16.6875 -10.03125 Z M 16.6875 -10.03125 "/>
</symbol>
<symbol overflow="visible" id="glyph7-5">
<path style="stroke:none;" d="M 9.3125 -14.71875 C 7.84375 -14.71875 6.679688 -14.144531 5.828125 -13 C 4.984375 -11.851562 4.5625 -10.285156 4.5625 -8.296875 C 4.5625 -6.304688 4.984375 -4.738281 5.828125 -3.59375 C 6.671875 -2.457031 7.832031 -1.890625 9.3125 -1.890625 C 10.757812 -1.890625 11.910156 -2.460938 12.765625 -3.609375 C 13.617188 -4.753906 14.046875 -6.316406 14.046875 -8.296875 C 14.046875 -10.265625 13.617188 -11.828125 12.765625 -12.984375 C 11.910156 -14.140625 10.757812 -14.71875 9.3125 -14.71875 Z M 9.3125 -17.03125 C 11.6875 -17.03125 13.550781 -16.253906 14.90625 -14.703125 C 16.257812 -13.160156 16.9375 -11.023438 16.9375 -8.296875 C 16.9375 -5.578125 16.257812 -3.441406 14.90625 -1.890625 C 13.550781 -0.335938 11.6875 0.4375 9.3125 0.4375 C 6.925781 0.4375 5.054688 -0.335938 3.703125 -1.890625 C 2.347656 -3.441406 1.671875 -5.578125 1.671875 -8.296875 C 1.671875 -11.023438 2.347656 -13.160156 3.703125 -14.703125 C 5.054688 -16.253906 6.925781 -17.03125 9.3125 -17.03125 Z M 9.3125 -17.03125 "/>
</symbol>
<symbol overflow="visible" id="glyph7-6">
<path style="stroke:none;" d="M 13.46875 -16.140625 L 13.46875 -13.5625 C 12.695312 -13.957031 11.894531 -14.253906 11.0625 -14.453125 C 10.226562 -14.648438 9.367188 -14.75 8.484375 -14.75 C 7.117188 -14.75 6.097656 -14.539062 5.421875 -14.125 C 4.742188 -13.707031 4.40625 -13.082031 4.40625 -12.25 C 4.40625 -11.613281 4.644531 -11.113281 5.125 -10.75 C 5.613281 -10.394531 6.59375 -10.050781 8.0625 -9.71875 L 9 -9.515625 C 10.9375 -9.097656 12.3125 -8.507812 13.125 -7.75 C 13.945312 -7 14.359375 -5.945312 14.359375 -4.59375 C 14.359375 -3.039062 13.742188 -1.8125 12.515625 -0.90625 C 11.296875 -0.0078125 9.617188 0.4375 7.484375 0.4375 C 6.585938 0.4375 5.65625 0.347656 4.6875 0.171875 C 3.726562 -0.00390625 2.710938 -0.265625 1.640625 -0.609375 L 1.640625 -3.421875 C 2.648438 -2.898438 3.644531 -2.507812 4.625 -2.25 C 5.613281 -1.988281 6.585938 -1.859375 7.546875 -1.859375 C 8.828125 -1.859375 9.8125 -2.078125 10.5 -2.515625 C 11.195312 -2.953125 11.546875 -3.570312 11.546875 -4.375 C 11.546875 -5.125 11.296875 -5.695312 10.796875 -6.09375 C 10.296875 -6.488281 9.203125 -6.867188 7.515625 -7.234375 L 6.5625 -7.453125 C 4.875 -7.804688 3.648438 -8.351562 2.890625 -9.09375 C 2.140625 -9.832031 1.765625 -10.84375 1.765625 -12.125 C 1.765625 -13.6875 2.316406 -14.894531 3.421875 -15.75 C 4.535156 -16.601562 6.113281 -17.03125 8.15625 -17.03125 C 9.164062 -17.03125 10.113281 -16.953125 11 -16.796875 C 11.894531 -16.648438 12.71875 -16.429688 13.46875 -16.140625 Z M 13.46875 -16.140625 "/>
</symbol>
</g>
<clipPath id="clip1">
  <path d="M 36 36 L 1654 36 L 1654 374.644531 L 36 374.644531 Z M 36 36 "/>
</clipPath>
<clipPath id="clip2">
  <path d="M 327 36 L 1543 36 L 1543 242 L 327 242 Z M 327 36 "/>
</clipPath>
</defs>
<g id="surface1">
<g clip-path="url(#clip1)" clip-rule="nonzero">
<path style=" stroke:none;fill-rule:nonzero;fill:rgb(97.253418%,97.253418%,97.253418%);fill-opacity:1;" d="M 36 36 L 1654 36 L 1654 374.644531 L 36 374.644531 Z M 36 36 "/>
</g>
<g style="fill:rgb(0%,0%,0%);fill-opacity:1;">
  <use xlink:href="#glyph0-1" x="152" y="237.644531"/>
</g>
<g style="fill:rgb(0%,0%,0%);fill-opacity:1;">
  <use xlink:href="#glyph0-2" x="179.759831" y="237.644531"/>
</g>
<g style="fill:rgb(0%,0%,0%);fill-opacity:1;">
  <use xlink:href="#glyph0-3" x="204.43968" y="237.644531"/>
</g>
<g style="fill:rgb(0%,0%,0%);fill-opacity:1;">
  <use xlink:href="#glyph0-4" x="229.919525" y="237.644531"/>
</g>
<g style="fill:rgb(0%,0%,0%);fill-opacity:1;">
  <use xlink:href="#glyph0-5" x="251.639392" y="237.644531"/>
</g>
<g style="fill:rgb(0%,0%,0%);fill-opacity:1;">
  <use xlink:href="#glyph0-6" x="276.399241" y="237.644531"/>
  <use xlink:href="#glyph0-7" x="292.839141" y="237.644531"/>
</g>
<g style="fill:rgb(0%,0%,0%);fill-opacity:1;">
  <use xlink:href="#glyph0-2" x="308.639044" y="237.644531"/>
</g>
<g style="fill:rgb(0%,0%,0%);fill-opacity:1;">
  <use xlink:href="#glyph0-8" x="569.000016" y="206.64452"/>
</g>
<g style="fill:rgb(0%,0%,0%);fill-opacity:1;">
  <use xlink:href="#glyph0-2" x="583.239929" y="206.64452"/>
</g>
<g style="fill:rgb(0%,0%,0%);fill-opacity:1;">
  <use xlink:href="#glyph0-6" x="607.959779" y="206.64452"/>
</g>
<path style="fill:none;stroke-width:1;stroke-linecap:butt;stroke-linejoin:miter;stroke:rgb(66.665649%,66.665649%,66.665649%);stroke-opacity:1;stroke-miterlimit:10;" d="M 342 227.644531 C 439.863281 227.644531 462.136719 196.644531 560 196.644531 "/>
<g style="fill:rgb(0%,0%,0%);fill-opacity:1;">
  <use xlink:href="#glyph1-1" x="1543.5" y="73.171875"/>
</g>
<g style="fill:rgb(0%,0%,0%);fill-opacity:1;">
  <use xlink:href="#glyph1-2" x="1550.991269" y="73.171875"/>
</g>
<g clip-path="url(#clip2)" clip-rule="nonzero">
<path style="fill:none;stroke-width:1;stroke-linecap:butt;stroke-linejoin:miter;stroke:rgb(66.665649%,66.665649%,66.665649%);stroke-opacity:1;stroke-miterlimit:10;" d="M 342 227.644531 C 457.117188 227.644531 713.734375 66.195312 827 45.644531 C 892.59375 33.742188 910.332031 45.351562 977 45.644531 C 1130.335938 46.308594 1168.835938 41.296875 1322 48.644531 C 1413.800781 53.046875 1436.09375 66.644531 1528 66.644531 "/>
</g>
<g style="fill:rgb(0%,0%,0%);fill-opacity:1;">
  <use xlink:href="#glyph2-1" x="567" y="262.980469"/>
</g>
<g style="fill:rgb(0%,0%,0%);fill-opacity:1;">
  <use xlink:href="#glyph2-2" x="580.491562" y="262.980469"/>
</g>
<g style="fill:rgb(0%,0%,0%);fill-opacity:1;">
  <use xlink:href="#glyph2-3" x="587.237344" y="262.980469"/>
</g>
<g style="fill:rgb(0%,0%,0%);fill-opacity:1;">
  <use xlink:href="#glyph2-4" x="597.71925" y="262.980469"/>
  <use xlink:href="#glyph2-4" x="606.713625" y="262.980469"/>
  <use xlink:href="#glyph2-3" x="615.708" y="262.980469"/>
</g>
<path style="fill:none;stroke-width:1;stroke-linecap:butt;stroke-linejoin:miter;stroke:rgb(66.665649%,66.665649%,66.665649%);stroke-opacity:1;stroke-miterlimit:10;" d="M 342 227.644531 C 439.421875 227.644531 461.578125 258.644531 559 258.644531 "/>
<g style="fill:rgb(0%,0%,0%);fill-opacity:1;">
  <use xlink:href="#glyph3-1" x="583" y="316.722656"/>
</g>
<g style="fill:rgb(0%,0%,0%);fill-opacity:1;">
  <use xlink:href="#glyph3-2" x="593.488951" y="316.722656"/>
</g>
<g style="fill:rgb(0%,0%,0%);fill-opacity:1;">
  <use xlink:href="#glyph3-3" x="603.977901" y="316.722656"/>
</g>
<path style="fill:none;stroke-width:1;stroke-linecap:butt;stroke-linejoin:miter;stroke:rgb(66.665649%,66.665649%,66.665649%);stroke-opacity:1;stroke-miterlimit:10;" d="M 342 227.644531 C 449.730469 227.644531 461.269531 312.644531 569 312.644531 "/>
<g style="fill:rgb(0%,0%,0%);fill-opacity:1;">
  <use xlink:href="#glyph0-9" x="864" y="90.644531"/>
</g>
<g style="fill:rgb(0%,0%,0%);fill-opacity:1;">
  <use xlink:href="#glyph0-10" x="881.95989" y="90.644531"/>
</g>
<g style="fill:rgb(0%,0%,0%);fill-opacity:1;">
  <use xlink:href="#glyph0-2" x="914.919689" y="90.644531"/>
</g>
<path style="fill:none;stroke-width:1;stroke-linecap:butt;stroke-linejoin:miter;stroke:rgb(66.665649%,66.665649%,66.665649%);stroke-opacity:1;stroke-miterlimit:10;" d="M 634 196.644531 C 744.929688 196.644531 744.070312 80.644531 855 80.644531 "/>
<g style="fill:rgb(0%,0%,0%);fill-opacity:1;">
  <use xlink:href="#glyph4-1" x="858" y="154.742187"/>
</g>
<g style="fill:rgb(0%,0%,0%);fill-opacity:1;">
  <use xlink:href="#glyph4-2" x="878.99216" y="154.742187"/>
</g>
<g style="fill:rgb(0%,0%,0%);fill-opacity:1;">
  <use xlink:href="#glyph4-3" x="887.984229" y="154.742187"/>
</g>
<g style="fill:rgb(0%,0%,0%);fill-opacity:1;">
  <use xlink:href="#glyph4-4" x="907.440377" y="154.742187"/>
</g>
<g style="fill:rgb(0%,0%,0%);fill-opacity:1;">
  <use xlink:href="#glyph4-2" x="916.432446" y="154.742187"/>
</g>
<g style="fill:rgb(0%,0%,0%);fill-opacity:1;">
  <use xlink:href="#glyph4-5" x="925.392514" y="154.742187"/>
</g>
<path style="fill:none;stroke-width:1;stroke-linecap:butt;stroke-linejoin:miter;stroke:rgb(66.665649%,66.665649%,66.665649%);stroke-opacity:1;stroke-miterlimit:10;" d="M 634 196.644531 C 732.105469 196.644531 750.894531 146.644531 849 146.644531 "/>
<g style="fill:rgb(0%,0%,0%);fill-opacity:1;">
  <use xlink:href="#glyph0-11" x="1204" y="206.644531"/>
</g>
<g style="fill:rgb(0%,0%,0%);fill-opacity:1;">
  <use xlink:href="#glyph0-12" x="1227.239858" y="206.644531"/>
</g>
<g style="fill:rgb(0%,0%,0%);fill-opacity:1;">
  <use xlink:href="#glyph0-13" x="1238.47979" y="206.644531"/>
</g>
<g style="fill:rgb(0%,0%,0%);fill-opacity:1;">
  <use xlink:href="#glyph0-3" x="1263.199639" y="206.644531"/>
</g>
<g style="fill:rgb(0%,0%,0%);fill-opacity:1;">
  <use xlink:href="#glyph0-2" x="1288.639484" y="206.644531"/>
</g>
<path style="fill:none;stroke-width:1;stroke-linecap:butt;stroke-linejoin:miter;stroke:rgb(66.665649%,66.665649%,66.665649%);stroke-opacity:1;stroke-miterlimit:10;" d="M 634 196.644531 C 883.777344 196.644531 946.222656 196.644531 1196 196.644531 "/>
<g style="fill:rgb(0%,0%,0%);fill-opacity:1;">
  <use xlink:href="#glyph5-1" x="835" y="250.402344"/>
</g>
<g style="fill:rgb(0%,0%,0%);fill-opacity:1;">
  <use xlink:href="#glyph5-2" x="856.759375" y="250.402344"/>
</g>
<g style="fill:rgb(0%,0%,0%);fill-opacity:1;">
  <use xlink:href="#glyph5-3" x="867.231075" y="250.402344"/>
  <use xlink:href="#glyph5-4" x="882.163446" y="250.402344"/>
</g>
<g style="fill:rgb(0%,0%,0%);fill-opacity:1;">
  <use xlink:href="#glyph5-5" x="899.462149" y="250.402344"/>
</g>
<g style="fill:rgb(0%,0%,0%);fill-opacity:1;">
  <use xlink:href="#glyph5-6" x="915.944876" y="250.402344"/>
</g>
<g style="fill:rgb(0%,0%,0%);fill-opacity:1;">
  <use xlink:href="#glyph5-7" x="930.170067" y="250.402344"/>
</g>
<g style="fill:rgb(0%,0%,0%);fill-opacity:1;">
  <use xlink:href="#glyph5-2" x="940.668966" y="250.402344"/>
  <use xlink:href="#glyph5-8" x="951.847845" y="250.402344"/>
</g>
<path style="fill:none;stroke-width:1;stroke-linecap:butt;stroke-linejoin:miter;stroke:rgb(66.665649%,66.665649%,66.665649%);stroke-opacity:1;stroke-miterlimit:10;" d="M 634 196.644531 C 722.285156 196.644531 738.714844 243.644531 827 243.644531 "/>
<g style="fill:rgb(0%,0%,0%);fill-opacity:1;">
  <use xlink:href="#glyph6-1" x="870" y="303.78125"/>
</g>
<g style="fill:rgb(0%,0%,0%);fill-opacity:1;">
  <use xlink:href="#glyph6-2" x="883.478432" y="303.78125"/>
</g>
<g style="fill:rgb(0%,0%,0%);fill-opacity:1;">
  <use xlink:href="#glyph6-3" x="891.736051" y="303.78125"/>
</g>
<g style="fill:rgb(0%,0%,0%);fill-opacity:1;">
  <use xlink:href="#glyph6-4" x="899.972871" y="303.78125"/>
</g>
<g style="fill:rgb(0%,0%,0%);fill-opacity:1;">
  <use xlink:href="#glyph6-5" x="905.963285" y="303.78125"/>
</g>
<g style="fill:rgb(0%,0%,0%);fill-opacity:1;">
  <use xlink:href="#glyph6-6" x="919.441716" y="303.78125"/>
</g>
<path style="fill:none;stroke-width:1;stroke-linecap:butt;stroke-linejoin:miter;stroke:rgb(66.665649%,66.665649%,66.665649%);stroke-opacity:1;stroke-miterlimit:10;" d="M 634 196.644531 C 744.605469 196.644531 750.394531 298.644531 861 298.644531 "/>
<g style="fill:rgb(0%,0%,0%);fill-opacity:1;">
  <use xlink:href="#glyph7-1" x="1209" y="86.460938"/>
</g>
<g style="fill:rgb(0%,0%,0%);fill-opacity:1;">
  <use xlink:href="#glyph7-2" x="1226.996309" y="86.460938"/>
</g>
<g style="fill:rgb(0%,0%,0%);fill-opacity:1;">
  <use xlink:href="#glyph7-3" x="1235.234484" y="86.460938"/>
</g>
<g style="fill:rgb(0%,0%,0%);fill-opacity:1;">
  <use xlink:href="#glyph7-4" x="1253.960372" y="86.460938"/>
</g>
<g style="fill:rgb(0%,0%,0%);fill-opacity:1;">
  <use xlink:href="#glyph7-5" x="1273.415841" y="86.460938"/>
</g>
<g style="fill:rgb(0%,0%,0%);fill-opacity:1;">
  <use xlink:href="#glyph7-6" x="1292.14173" y="86.460938"/>
</g>
<path style="fill:none;stroke-width:1;stroke-linecap:butt;stroke-linejoin:miter;stroke:rgb(66.665649%,66.665649%,66.665649%);stroke-opacity:1;stroke-miterlimit:10;" d="M 949 80.644531 C 1060.558594 80.644531 1088.441406 78.644531 1200 78.644531 "/>
<path style="fill:none;stroke-width:1;stroke-linecap:butt;stroke-linejoin:miter;stroke:rgb(66.665649%,66.665649%,66.665649%);stroke-opacity:1;stroke-miterlimit:10;" d="M 1318 78.644531 C 1411.484375 78.644531 1434.515625 66.644531 1528 66.644531 "/>
<g style="fill:rgb(0%,0%,0%);fill-opacity:1;">
  <use xlink:href="#glyph0-13" x="1518" y="165.644531"/>
</g>
<g style="fill:rgb(0%,0%,0%);fill-opacity:1;">
  <use xlink:href="#glyph0-3" x="1542.719849" y="165.644531"/>
</g>
<g style="fill:rgb(0%,0%,0%);fill-opacity:1;">
  <use xlink:href="#glyph0-14" x="1568.199694" y="165.644531"/>
</g>
<path style="fill:none;stroke-width:1;stroke-linecap:butt;stroke-linejoin:miter;stroke:rgb(66.665649%,66.665649%,66.665649%);stroke-opacity:1;stroke-miterlimit:10;" d="M 955 146.644531 C 1201.699219 146.644531 1263.300781 155.644531 1510 155.644531 "/>
<path style="fill:none;stroke-width:1;stroke-linecap:butt;stroke-linejoin:miter;stroke:rgb(66.665649%,66.665649%,66.665649%);stroke-opacity:1;stroke-miterlimit:10;" d="M 955 146.644531 C 1064.390625 146.644531 1086.609375 196.644531 1196 196.644531 "/>
<path style="fill:none;stroke-width:1;stroke-linecap:butt;stroke-linejoin:miter;stroke:rgb(66.665649%,66.665649%,66.665649%);stroke-opacity:1;stroke-miterlimit:10;" d="M 1322 196.644531 C 1407.519531 196.644531 1424.480469 155.644531 1510 155.644531 "/>
<g style="fill:rgb(0%,0%,0%);fill-opacity:1;">
  <use xlink:href="#glyph6-7" x="886.5" y="357.78125"/>
</g>
<g style="fill:rgb(0%,0%,0%);fill-opacity:1;">
  <use xlink:href="#glyph6-8" x="903.722441" y="357.78125"/>
</g>
<path style="fill:none;stroke-width:1;stroke-linecap:butt;stroke-linejoin:miter;stroke:rgb(66.665649%,66.665649%,66.665649%);stroke-opacity:1;stroke-miterlimit:10;" d="M 635 258.644531 C 749.144531 258.644531 759.855469 352.644531 874 352.644531 "/>
</g>
</svg>
