<?xml version="1.0" encoding="UTF-8"?>
<svg xmlns="http://www.w3.org/2000/svg" xmlns:xlink="http://www.w3.org/1999/xlink" width="2092pt" height="1122pt" viewBox="0 0 2092 1122" version="1.1">
<defs>
<g>
<symbol overflow="visible" id="glyph0-0">
<path style="stroke:none;" d="M 2 7.078125 L 2 -28.203125 L 22 -28.203125 L 22 7.078125 Z M 4.234375 4.84375 L 19.765625 4.84375 L 19.765625 -25.953125 L 4.234375 -25.953125 Z M 4.234375 4.84375 "/>
</symbol>
<symbol overflow="visible" id="glyph0-1">
<path style="stroke:none;" d="M 21.40625 -28.203125 L 21.40625 -24.359375 C 19.90625 -25.078125 18.488281 -25.609375 17.15625 -25.953125 C 15.832031 -26.304688 14.554688 -26.484375 13.328125 -26.484375 C 11.171875 -26.484375 9.507812 -26.066406 8.34375 -25.234375 C 7.1875 -24.398438 6.609375 -23.21875 6.609375 -21.6875 C 6.609375 -20.394531 6.992188 -19.421875 7.765625 -18.765625 C 8.535156 -18.109375 10.003906 -17.578125 12.171875 -17.171875 L 14.546875 -16.6875 C 17.492188 -16.125 19.664062 -15.132812 21.0625 -13.71875 C 22.46875 -12.3125 23.171875 -10.421875 23.171875 -8.046875 C 23.171875 -5.222656 22.222656 -3.082031 20.328125 -1.625 C 18.429688 -0.164062 15.65625 0.5625 12 0.5625 C 10.613281 0.5625 9.140625 0.40625 7.578125 0.09375 C 6.023438 -0.21875 4.414062 -0.679688 2.75 -1.296875 L 2.75 -5.359375 C 4.351562 -4.453125 5.921875 -3.769531 7.453125 -3.3125 C 8.992188 -2.863281 10.507812 -2.640625 12 -2.640625 C 14.25 -2.640625 15.984375 -3.082031 17.203125 -3.96875 C 18.429688 -4.851562 19.046875 -6.113281 19.046875 -7.75 C 19.046875 -9.1875 18.601562 -10.304688 17.71875 -11.109375 C 16.84375 -11.921875 15.40625 -12.53125 13.40625 -12.9375 L 11 -13.40625 C 8.050781 -13.988281 5.921875 -14.90625 4.609375 -16.15625 C 3.296875 -17.40625 2.640625 -19.144531 2.640625 -21.375 C 2.640625 -23.945312 3.546875 -25.972656 5.359375 -27.453125 C 7.179688 -28.941406 9.6875 -29.6875 12.875 -29.6875 C 14.238281 -29.6875 15.628906 -29.5625 17.046875 -29.3125 C 18.472656 -29.070312 19.925781 -28.703125 21.40625 -28.203125 Z M 21.40625 -28.203125 "/>
</symbol>
<symbol overflow="visible" id="glyph0-2">
<path style="stroke:none;" d="M 7.328125 -28.09375 L 7.328125 -21.875 L 14.734375 -21.875 L 14.734375 -19.078125 L 7.328125 -19.078125 L 7.328125 -7.203125 C 7.328125 -5.421875 7.570312 -4.273438 8.0625 -3.765625 C 8.550781 -3.265625 9.539062 -3.015625 11.03125 -3.015625 L 14.734375 -3.015625 L 14.734375 0 L 11.03125 0 C 8.257812 0 6.347656 -0.515625 5.296875 -1.546875 C 4.242188 -2.585938 3.71875 -4.472656 3.71875 -7.203125 L 3.71875 -19.078125 L 1.078125 -19.078125 L 1.078125 -21.875 L 3.71875 -21.875 L 3.71875 -28.09375 Z M 7.328125 -28.09375 "/>
</symbol>
<symbol overflow="visible" id="glyph0-3">
<path style="stroke:none;" d="M 16.453125 -18.515625 C 16.046875 -18.753906 15.601562 -18.925781 15.125 -19.03125 C 14.65625 -19.144531 14.132812 -19.203125 13.5625 -19.203125 C 11.53125 -19.203125 9.96875 -18.539062 8.875 -17.21875 C 7.789062 -15.894531 7.25 -14 7.25 -11.53125 L 7.25 0 L 3.640625 0 L 3.640625 -21.875 L 7.25 -21.875 L 7.25 -18.484375 C 8 -19.804688 8.976562 -20.789062 10.1875 -21.4375 C 11.40625 -22.082031 12.878906 -22.40625 14.609375 -22.40625 C 14.859375 -22.40625 15.128906 -22.390625 15.421875 -22.359375 C 15.722656 -22.328125 16.054688 -22.273438 16.421875 -22.203125 Z M 16.453125 -18.515625 "/>
</symbol>
<symbol overflow="visible" id="glyph0-4">
<path style="stroke:none;" d="M 3.765625 -21.875 L 7.359375 -21.875 L 7.359375 0 L 3.765625 0 Z M 3.765625 -30.390625 L 7.359375 -30.390625 L 7.359375 -25.84375 L 3.765625 -25.84375 Z M 3.765625 -30.390625 "/>
</symbol>
<symbol overflow="visible" id="glyph0-5">
<path style="stroke:none;" d="M 21.953125 -13.203125 L 21.953125 0 L 18.359375 0 L 18.359375 -13.09375 C 18.359375 -15.15625 17.953125 -16.703125 17.140625 -17.734375 C 16.335938 -18.765625 15.128906 -19.28125 13.515625 -19.28125 C 11.578125 -19.28125 10.046875 -18.660156 8.921875 -17.421875 C 7.804688 -16.179688 7.25 -14.492188 7.25 -12.359375 L 7.25 0 L 3.640625 0 L 3.640625 -21.875 L 7.25 -21.875 L 7.25 -18.484375 C 8.101562 -19.796875 9.113281 -20.773438 10.28125 -21.421875 C 11.445312 -22.078125 12.789062 -22.40625 14.3125 -22.40625 C 16.832031 -22.40625 18.734375 -21.625 20.015625 -20.0625 C 21.304688 -18.507812 21.953125 -16.222656 21.953125 -13.203125 Z M 21.953125 -13.203125 "/>
</symbol>
<symbol overflow="visible" id="glyph0-6">
<path style="stroke:none;" d="M 18.171875 -11.1875 C 18.171875 -13.789062 17.628906 -15.804688 16.546875 -17.234375 C 15.472656 -18.671875 13.96875 -19.390625 12.03125 -19.390625 C 10.101562 -19.390625 8.601562 -18.671875 7.53125 -17.234375 C 6.457031 -15.804688 5.921875 -13.789062 5.921875 -11.1875 C 5.921875 -8.601562 6.457031 -6.59375 7.53125 -5.15625 C 8.601562 -3.726562 10.101562 -3.015625 12.03125 -3.015625 C 13.96875 -3.015625 15.472656 -3.726562 16.546875 -5.15625 C 17.628906 -6.59375 18.171875 -8.601562 18.171875 -11.1875 Z M 21.765625 -2.71875 C 21.765625 1.007812 20.9375 3.78125 19.28125 5.59375 C 17.625 7.414062 15.09375 8.328125 11.6875 8.328125 C 10.414062 8.328125 9.21875 8.226562 8.09375 8.03125 C 6.976562 7.84375 5.894531 7.554688 4.84375 7.171875 L 4.84375 3.671875 C 5.894531 4.242188 6.9375 4.664062 7.96875 4.9375 C 9 5.21875 10.046875 5.359375 11.109375 5.359375 C 13.472656 5.359375 15.238281 4.738281 16.40625 3.5 C 17.582031 2.269531 18.171875 0.410156 18.171875 -2.078125 L 18.171875 -3.84375 C 17.421875 -2.5625 16.46875 -1.597656 15.3125 -0.953125 C 14.15625 -0.316406 12.769531 0 11.15625 0 C 8.46875 0 6.300781 -1.019531 4.65625 -3.0625 C 3.019531 -5.113281 2.203125 -7.820312 2.203125 -11.1875 C 2.203125 -14.570312 3.019531 -17.285156 4.65625 -19.328125 C 6.300781 -21.378906 8.46875 -22.40625 11.15625 -22.40625 C 12.769531 -22.40625 14.15625 -22.082031 15.3125 -21.4375 C 16.46875 -20.800781 17.421875 -19.84375 18.171875 -18.5625 L 18.171875 -21.875 L 21.765625 -21.875 Z M 21.765625 -2.71875 "/>
</symbol>
<symbol overflow="visible" id="glyph0-7">
<path style="stroke:none;" d="M 15.765625 -26.484375 C 12.898438 -26.484375 10.625 -25.414062 8.9375 -23.28125 C 7.25 -21.144531 6.40625 -18.234375 6.40625 -14.546875 C 6.40625 -10.878906 7.25 -7.976562 8.9375 -5.84375 C 10.625 -3.707031 12.898438 -2.640625 15.765625 -2.640625 C 18.628906 -2.640625 20.894531 -3.707031 22.5625 -5.84375 C 24.238281 -7.976562 25.078125 -10.878906 25.078125 -14.546875 C 25.078125 -18.234375 24.238281 -21.144531 22.5625 -23.28125 C 20.894531 -25.414062 18.628906 -26.484375 15.765625 -26.484375 Z M 21.296875 -0.53125 L 26.484375 5.15625 L 21.71875 5.15625 L 17.40625 0.484375 C 16.976562 0.515625 16.648438 0.535156 16.421875 0.546875 C 16.191406 0.554688 15.972656 0.5625 15.765625 0.5625 C 11.660156 0.5625 8.378906 -0.804688 5.921875 -3.546875 C 3.472656 -6.285156 2.25 -9.953125 2.25 -14.546875 C 2.25 -19.160156 3.472656 -22.835938 5.921875 -25.578125 C 8.378906 -28.316406 11.660156 -29.6875 15.765625 -29.6875 C 19.847656 -29.6875 23.113281 -28.316406 25.5625 -25.578125 C 28.007812 -22.835938 29.234375 -19.160156 29.234375 -14.546875 C 29.234375 -11.160156 28.550781 -8.265625 27.1875 -5.859375 C 25.832031 -3.453125 23.867188 -1.675781 21.296875 -0.53125 Z M 21.296875 -0.53125 "/>
</symbol>
<symbol overflow="visible" id="glyph0-8">
<path style="stroke:none;" d="M 3.40625 -8.640625 L 3.40625 -21.875 L 7 -21.875 L 7 -8.765625 C 7 -6.703125 7.398438 -5.148438 8.203125 -4.109375 C 9.015625 -3.078125 10.226562 -2.5625 11.84375 -2.5625 C 13.78125 -2.5625 15.3125 -3.175781 16.4375 -4.40625 C 17.5625 -5.644531 18.125 -7.332031 18.125 -9.46875 L 18.125 -21.875 L 21.71875 -21.875 L 21.71875 0 L 18.125 0 L 18.125 -3.359375 C 17.25 -2.035156 16.234375 -1.050781 15.078125 -0.40625 C 13.929688 0.238281 12.597656 0.5625 11.078125 0.5625 C 8.566406 0.5625 6.660156 -0.21875 5.359375 -1.78125 C 4.054688 -3.34375 3.40625 -5.628906 3.40625 -8.640625 Z M 12.4375 -22.40625 Z M 12.4375 -22.40625 "/>
</symbol>
<symbol overflow="visible" id="glyph0-9">
<path style="stroke:none;" d="M 13.71875 -11 C 10.8125 -11 8.796875 -10.664062 7.671875 -10 C 6.554688 -9.332031 6 -8.203125 6 -6.609375 C 6 -5.328125 6.414062 -4.3125 7.25 -3.5625 C 8.09375 -2.8125 9.238281 -2.4375 10.6875 -2.4375 C 12.675781 -2.4375 14.269531 -3.144531 15.46875 -4.5625 C 16.675781 -5.976562 17.28125 -7.859375 17.28125 -10.203125 L 17.28125 -11 Z M 20.875 -12.484375 L 20.875 0 L 17.28125 0 L 17.28125 -3.328125 C 16.46875 -1.992188 15.445312 -1.007812 14.21875 -0.375 C 13 0.25 11.503906 0.5625 9.734375 0.5625 C 7.492188 0.5625 5.710938 -0.0625 4.390625 -1.3125 C 3.066406 -2.570312 2.40625 -4.257812 2.40625 -6.375 C 2.40625 -8.832031 3.226562 -10.6875 4.875 -11.9375 C 6.519531 -13.1875 8.976562 -13.8125 12.25 -13.8125 L 17.28125 -13.8125 L 17.28125 -14.15625 C 17.28125 -15.8125 16.738281 -17.09375 15.65625 -18 C 14.570312 -18.90625 13.046875 -19.359375 11.078125 -19.359375 C 9.828125 -19.359375 8.609375 -19.207031 7.421875 -18.90625 C 6.234375 -18.601562 5.09375 -18.15625 4 -17.5625 L 4 -20.875 C 5.320312 -21.382812 6.597656 -21.765625 7.828125 -22.015625 C 9.066406 -22.273438 10.273438 -22.40625 11.453125 -22.40625 C 14.609375 -22.40625 16.96875 -21.582031 18.53125 -19.9375 C 20.09375 -18.300781 20.875 -15.816406 20.875 -12.484375 Z M 20.875 -12.484375 "/>
</symbol>
<symbol overflow="visible" id="glyph0-10">
<path style="stroke:none;" d="M 22.484375 -11.84375 L 22.484375 -10.078125 L 5.953125 -10.078125 C 6.109375 -7.609375 6.851562 -5.722656 8.1875 -4.421875 C 9.53125 -3.128906 11.390625 -2.484375 13.765625 -2.484375 C 15.148438 -2.484375 16.488281 -2.648438 17.78125 -2.984375 C 19.082031 -3.328125 20.367188 -3.835938 21.640625 -4.515625 L 21.640625 -1.109375 C 20.347656 -0.566406 19.023438 -0.15625 17.671875 0.125 C 16.316406 0.414062 14.945312 0.5625 13.5625 0.5625 C 10.070312 0.5625 7.304688 -0.453125 5.265625 -2.484375 C 3.222656 -4.515625 2.203125 -7.257812 2.203125 -10.71875 C 2.203125 -14.300781 3.171875 -17.144531 5.109375 -19.25 C 7.046875 -21.351562 9.65625 -22.40625 12.9375 -22.40625 C 15.875 -22.40625 18.195312 -21.457031 19.90625 -19.5625 C 21.625 -17.664062 22.484375 -15.09375 22.484375 -11.84375 Z M 18.890625 -12.890625 C 18.859375 -14.859375 18.304688 -16.425781 17.234375 -17.59375 C 16.160156 -18.769531 14.738281 -19.359375 12.96875 -19.359375 C 10.96875 -19.359375 9.363281 -18.789062 8.15625 -17.65625 C 6.945312 -16.519531 6.253906 -14.925781 6.078125 -12.875 Z M 18.890625 -12.890625 "/>
</symbol>
<symbol overflow="visible" id="glyph0-11">
<path style="stroke:none;" d="M 20.453125 -17.59375 L 14.765625 -17.59375 L 13.125 -11.078125 L 18.84375 -11.078125 Z M 17.515625 -28.71875 L 15.484375 -20.609375 L 21.1875 -20.609375 L 23.25 -28.71875 L 26.375 -28.71875 L 24.359375 -20.609375 L 30.453125 -20.609375 L 30.453125 -17.59375 L 23.59375 -17.59375 L 22 -11.078125 L 28.203125 -11.078125 L 28.203125 -8.09375 L 21.234375 -8.09375 L 19.203125 0 L 16.078125 0 L 18.09375 -8.09375 L 12.359375 -8.09375 L 10.359375 0 L 7.203125 0 L 9.234375 -8.09375 L 3.09375 -8.09375 L 3.09375 -11.078125 L 9.96875 -11.078125 L 11.609375 -17.59375 L 5.3125 -17.59375 L 5.3125 -20.609375 L 12.359375 -20.609375 L 14.359375 -28.71875 Z M 17.515625 -28.71875 "/>
</symbol>
<symbol overflow="visible" id="glyph0-12">
<path style="stroke:none;" d="M 7.671875 -3.328125 L 21.453125 -3.328125 L 21.453125 0 L 2.9375 0 L 2.9375 -3.328125 C 4.425781 -4.867188 6.460938 -6.945312 9.046875 -9.5625 C 11.640625 -12.175781 13.265625 -13.859375 13.921875 -14.609375 C 15.191406 -16.023438 16.078125 -17.222656 16.578125 -18.203125 C 17.078125 -19.191406 17.328125 -20.160156 17.328125 -21.109375 C 17.328125 -22.660156 16.78125 -23.925781 15.6875 -24.90625 C 14.601562 -25.882812 13.191406 -26.375 11.453125 -26.375 C 10.210938 -26.375 8.90625 -26.15625 7.53125 -25.71875 C 6.15625 -25.289062 4.6875 -24.640625 3.125 -23.765625 L 3.125 -27.75 C 4.71875 -28.394531 6.203125 -28.878906 7.578125 -29.203125 C 8.960938 -29.523438 10.226562 -29.6875 11.375 -29.6875 C 14.394531 -29.6875 16.800781 -28.929688 18.59375 -27.421875 C 20.394531 -25.910156 21.296875 -23.894531 21.296875 -21.375 C 21.296875 -20.175781 21.066406 -19.035156 20.609375 -17.953125 C 20.160156 -16.878906 19.347656 -15.613281 18.171875 -14.15625 C 17.835938 -13.78125 16.796875 -12.691406 15.046875 -10.890625 C 13.304688 -9.085938 10.847656 -6.566406 7.671875 -3.328125 Z M 7.671875 -3.328125 "/>
</symbol>
<symbol overflow="visible" id="glyph0-13">
<path style="stroke:none;" d="M 12.25 -19.359375 C 10.320312 -19.359375 8.796875 -18.601562 7.671875 -17.09375 C 6.554688 -15.59375 6 -13.535156 6 -10.921875 C 6 -8.304688 6.554688 -6.242188 7.671875 -4.734375 C 8.785156 -3.234375 10.3125 -2.484375 12.25 -2.484375 C 14.164062 -2.484375 15.679688 -3.238281 16.796875 -4.75 C 17.921875 -6.257812 18.484375 -8.316406 18.484375 -10.921875 C 18.484375 -13.515625 17.921875 -15.566406 16.796875 -17.078125 C 15.679688 -18.597656 14.164062 -19.359375 12.25 -19.359375 Z M 12.25 -22.40625 C 15.375 -22.40625 17.828125 -21.390625 19.609375 -19.359375 C 21.390625 -17.328125 22.28125 -14.515625 22.28125 -10.921875 C 22.28125 -7.335938 21.390625 -4.523438 19.609375 -2.484375 C 17.828125 -0.453125 15.375 0.5625 12.25 0.5625 C 9.113281 0.5625 6.65625 -0.453125 4.875 -2.484375 C 3.09375 -4.523438 2.203125 -7.335938 2.203125 -10.921875 C 2.203125 -14.515625 3.09375 -17.328125 4.875 -19.359375 C 6.65625 -21.390625 9.113281 -22.40625 12.25 -22.40625 Z M 12.25 -22.40625 "/>
</symbol>
<symbol overflow="visible" id="glyph0-14">
<path style="stroke:none;" d="M 7.25 -3.28125 L 7.25 8.328125 L 3.640625 8.328125 L 3.640625 -21.875 L 7.25 -21.875 L 7.25 -18.5625 C 8 -19.863281 8.953125 -20.828125 10.109375 -21.453125 C 11.265625 -22.085938 12.640625 -22.40625 14.234375 -22.40625 C 16.890625 -22.40625 19.046875 -21.347656 20.703125 -19.234375 C 22.367188 -17.128906 23.203125 -14.359375 23.203125 -10.921875 C 23.203125 -7.484375 22.367188 -4.707031 20.703125 -2.59375 C 19.046875 -0.488281 16.890625 0.5625 14.234375 0.5625 C 12.640625 0.5625 11.265625 0.25 10.109375 -0.375 C 8.953125 -1.007812 8 -1.976562 7.25 -3.28125 Z M 19.46875 -10.921875 C 19.46875 -13.566406 18.925781 -15.640625 17.84375 -17.140625 C 16.757812 -18.640625 15.265625 -19.390625 13.359375 -19.390625 C 11.460938 -19.390625 9.96875 -18.640625 8.875 -17.140625 C 7.789062 -15.640625 7.25 -13.566406 7.25 -10.921875 C 7.25 -8.273438 7.789062 -6.195312 8.875 -4.6875 C 9.96875 -3.1875 11.460938 -2.4375 13.359375 -2.4375 C 15.265625 -2.4375 16.757812 -3.1875 17.84375 -4.6875 C 18.925781 -6.195312 19.46875 -8.273438 19.46875 -10.921875 Z M 19.46875 -10.921875 "/>
</symbol>
<symbol overflow="visible" id="glyph0-15">
<path style="stroke:none;" d="M 4.28125 -4.96875 L 8.40625 -4.96875 L 8.40625 0 L 4.28125 0 Z M 4.28125 -4.96875 "/>
</symbol>
<symbol overflow="visible" id="glyph0-16">
<path style="stroke:none;" d="M 7.875 -25.921875 L 7.875 -3.25 L 12.640625 -3.25 C 16.660156 -3.25 19.601562 -4.160156 21.46875 -5.984375 C 23.34375 -7.804688 24.28125 -10.679688 24.28125 -14.609375 C 24.28125 -18.515625 23.34375 -21.375 21.46875 -23.1875 C 19.601562 -25.007812 16.660156 -25.921875 12.640625 -25.921875 Z M 3.921875 -29.15625 L 12.03125 -29.15625 C 17.6875 -29.15625 21.832031 -27.976562 24.46875 -25.625 C 27.113281 -23.28125 28.4375 -19.609375 28.4375 -14.609375 C 28.4375 -9.585938 27.109375 -5.894531 24.453125 -3.53125 C 21.796875 -1.175781 17.65625 0 12.03125 0 L 3.921875 0 Z M 3.921875 -29.15625 "/>
</symbol>
<symbol overflow="visible" id="glyph0-17">
<path style="stroke:none;" d="M 20.796875 -17.671875 C 21.703125 -19.285156 22.78125 -20.476562 24.03125 -21.25 C 25.28125 -22.019531 26.75 -22.40625 28.4375 -22.40625 C 30.71875 -22.40625 32.472656 -21.609375 33.703125 -20.015625 C 34.941406 -18.421875 35.5625 -16.148438 35.5625 -13.203125 L 35.5625 0 L 31.953125 0 L 31.953125 -13.09375 C 31.953125 -15.1875 31.582031 -16.738281 30.84375 -17.75 C 30.101562 -18.769531 28.96875 -19.28125 27.4375 -19.28125 C 25.582031 -19.28125 24.113281 -18.660156 23.03125 -17.421875 C 21.945312 -16.179688 21.40625 -14.492188 21.40625 -12.359375 L 21.40625 0 L 17.796875 0 L 17.796875 -13.09375 C 17.796875 -15.195312 17.421875 -16.753906 16.671875 -17.765625 C 15.929688 -18.773438 14.789062 -19.28125 13.25 -19.28125 C 11.40625 -19.28125 9.941406 -18.65625 8.859375 -17.40625 C 7.785156 -16.164062 7.25 -14.484375 7.25 -12.359375 L 7.25 0 L 3.640625 0 L 3.640625 -21.875 L 7.25 -21.875 L 7.25 -18.484375 C 8.070312 -19.816406 9.054688 -20.800781 10.203125 -21.4375 C 11.347656 -22.082031 12.707031 -22.40625 14.28125 -22.40625 C 15.863281 -22.40625 17.210938 -22 18.328125 -21.1875 C 19.441406 -20.382812 20.265625 -19.210938 20.796875 -17.671875 Z M 20.796875 -17.671875 "/>
</symbol>
<symbol overflow="visible" id="glyph1-0">
<path style="stroke:none;" d="M 0.875 3.125 L 0.875 -12.453125 L 9.703125 -12.453125 L 9.703125 3.125 Z M 1.875 2.140625 L 8.71875 2.140625 L 8.71875 -11.453125 L 1.875 -11.453125 Z M 1.875 2.140625 "/>
</symbol>
<symbol overflow="visible" id="glyph1-1">
<path style="stroke:none;" d="M 6.953125 -11.6875 C 5.691406 -11.6875 4.6875 -11.210938 3.9375 -10.265625 C 3.195312 -9.328125 2.828125 -8.046875 2.828125 -6.421875 C 2.828125 -4.796875 3.195312 -3.507812 3.9375 -2.5625 C 4.6875 -1.625 5.691406 -1.15625 6.953125 -1.15625 C 8.222656 -1.15625 9.222656 -1.625 9.953125 -2.5625 C 10.691406 -3.507812 11.0625 -4.796875 11.0625 -6.421875 C 11.0625 -8.046875 10.691406 -9.328125 9.953125 -10.265625 C 9.222656 -11.210938 8.222656 -11.6875 6.953125 -11.6875 Z M 9.390625 -0.234375 L 11.6875 2.28125 L 9.59375 2.28125 L 7.6875 0.21875 C 7.488281 0.226562 7.335938 0.234375 7.234375 0.234375 C 7.140625 0.242188 7.046875 0.25 6.953125 0.25 C 5.140625 0.25 3.691406 -0.351562 2.609375 -1.5625 C 1.523438 -2.769531 0.984375 -4.390625 0.984375 -6.421875 C 0.984375 -8.453125 1.523438 -10.070312 2.609375 -11.28125 C 3.691406 -12.5 5.140625 -13.109375 6.953125 -13.109375 C 8.765625 -13.109375 10.207031 -12.5 11.28125 -11.28125 C 12.363281 -10.070312 12.90625 -8.453125 12.90625 -6.421875 C 12.90625 -4.929688 12.601562 -3.648438 12 -2.578125 C 11.40625 -1.515625 10.535156 -0.734375 9.390625 -0.234375 Z M 9.390625 -0.234375 "/>
</symbol>
<symbol overflow="visible" id="glyph1-2">
<path style="stroke:none;" d="M 1.5 -3.8125 L 1.5 -9.65625 L 3.09375 -9.65625 L 3.09375 -3.875 C 3.09375 -2.957031 3.269531 -2.269531 3.625 -1.8125 C 3.976562 -1.351562 4.507812 -1.125 5.21875 -1.125 C 6.082031 -1.125 6.757812 -1.394531 7.25 -1.9375 C 7.75 -2.488281 8 -3.238281 8 -4.1875 L 8 -9.65625 L 9.59375 -9.65625 L 9.59375 0 L 8 0 L 8 -1.484375 C 7.613281 -0.898438 7.164062 -0.460938 6.65625 -0.171875 C 6.144531 0.109375 5.554688 0.25 4.890625 0.25 C 3.773438 0.25 2.929688 -0.09375 2.359375 -0.78125 C 1.785156 -1.46875 1.5 -2.476562 1.5 -3.8125 Z M 5.484375 -9.890625 Z M 5.484375 -9.890625 "/>
</symbol>
<symbol overflow="visible" id="glyph1-3">
<path style="stroke:none;" d="M 1.65625 -9.65625 L 3.25 -9.65625 L 3.25 0 L 1.65625 0 Z M 1.65625 -13.421875 L 3.25 -13.421875 L 3.25 -11.40625 L 1.65625 -11.40625 Z M 1.65625 -13.421875 "/>
</symbol>
<symbol overflow="visible" id="glyph1-4">
<path style="stroke:none;" d="M 9.6875 -5.828125 L 9.6875 0 L 8.109375 0 L 8.109375 -5.78125 C 8.109375 -6.6875 7.925781 -7.367188 7.5625 -7.828125 C 7.207031 -8.285156 6.675781 -8.515625 5.96875 -8.515625 C 5.113281 -8.515625 4.4375 -8.238281 3.9375 -7.6875 C 3.445312 -7.144531 3.203125 -6.398438 3.203125 -5.453125 L 3.203125 0 L 1.609375 0 L 1.609375 -9.65625 L 3.203125 -9.65625 L 3.203125 -8.15625 C 3.578125 -8.738281 4.019531 -9.171875 4.53125 -9.453125 C 5.050781 -9.742188 5.644531 -9.890625 6.3125 -9.890625 C 7.425781 -9.890625 8.265625 -9.546875 8.828125 -8.859375 C 9.398438 -8.171875 9.6875 -7.160156 9.6875 -5.828125 Z M 9.6875 -5.828125 "/>
</symbol>
<symbol overflow="visible" id="glyph1-5">
<path style="stroke:none;" d="M 3.234375 -12.390625 L 3.234375 -9.65625 L 6.5 -9.65625 L 6.5 -8.421875 L 3.234375 -8.421875 L 3.234375 -3.1875 C 3.234375 -2.394531 3.335938 -1.882812 3.546875 -1.65625 C 3.765625 -1.4375 4.207031 -1.328125 4.875 -1.328125 L 6.5 -1.328125 L 6.5 0 L 4.875 0 C 3.644531 0 2.796875 -0.226562 2.328125 -0.6875 C 1.867188 -1.144531 1.640625 -1.976562 1.640625 -3.1875 L 1.640625 -8.421875 L 0.46875 -8.421875 L 0.46875 -9.65625 L 1.640625 -9.65625 L 1.640625 -12.390625 Z M 3.234375 -12.390625 "/>
</symbol>
<symbol overflow="visible" id="glyph1-6">
<path style="stroke:none;" d="M 9.921875 -5.21875 L 9.921875 -4.453125 L 2.625 -4.453125 C 2.695312 -3.359375 3.023438 -2.523438 3.609375 -1.953125 C 4.203125 -1.378906 5.023438 -1.09375 6.078125 -1.09375 C 6.679688 -1.09375 7.269531 -1.164062 7.84375 -1.3125 C 8.414062 -1.46875 8.984375 -1.691406 9.546875 -1.984375 L 9.546875 -0.484375 C 8.984375 -0.242188 8.398438 -0.0625 7.796875 0.0625 C 7.203125 0.1875 6.597656 0.25 5.984375 0.25 C 4.441406 0.25 3.21875 -0.195312 2.3125 -1.09375 C 1.414062 -1.988281 0.96875 -3.203125 0.96875 -4.734375 C 0.96875 -6.316406 1.394531 -7.570312 2.25 -8.5 C 3.101562 -9.425781 4.253906 -9.890625 5.703125 -9.890625 C 7.003906 -9.890625 8.03125 -9.46875 8.78125 -8.625 C 9.539062 -7.789062 9.921875 -6.65625 9.921875 -5.21875 Z M 8.34375 -5.6875 C 8.320312 -6.550781 8.070312 -7.242188 7.59375 -7.765625 C 7.125 -8.285156 6.5 -8.546875 5.71875 -8.546875 C 4.832031 -8.546875 4.125 -8.296875 3.59375 -7.796875 C 3.0625 -7.296875 2.757812 -6.59375 2.6875 -5.6875 Z M 8.34375 -5.6875 "/>
</symbol>
<symbol overflow="visible" id="glyph2-0">
<path style="stroke:none;" d="M 0.859375 3.03125 L 0.859375 -12.078125 L 9.421875 -12.078125 L 9.421875 3.03125 Z M 1.8125 2.078125 L 8.46875 2.078125 L 8.46875 -11.109375 L 1.8125 -11.109375 Z M 1.8125 2.078125 "/>
</symbol>
<symbol overflow="visible" id="glyph2-1">
<path style="stroke:none;" d="M 6.75 -11.34375 C 5.519531 -11.34375 4.546875 -10.882812 3.828125 -9.96875 C 3.109375 -9.050781 2.75 -7.804688 2.75 -6.234375 C 2.75 -4.660156 3.109375 -3.414062 3.828125 -2.5 C 4.546875 -1.582031 5.519531 -1.125 6.75 -1.125 C 7.976562 -1.125 8.945312 -1.582031 9.65625 -2.5 C 10.375 -3.414062 10.734375 -4.660156 10.734375 -6.234375 C 10.734375 -7.804688 10.375 -9.050781 9.65625 -9.96875 C 8.945312 -10.882812 7.976562 -11.34375 6.75 -11.34375 Z M 9.109375 -0.21875 L 11.34375 2.203125 L 9.296875 2.203125 L 7.453125 0.203125 C 7.265625 0.210938 7.117188 0.222656 7.015625 0.234375 C 6.921875 0.242188 6.832031 0.25 6.75 0.25 C 4.988281 0.25 3.582031 -0.335938 2.53125 -1.515625 C 1.488281 -2.691406 0.96875 -4.265625 0.96875 -6.234375 C 0.96875 -8.203125 1.488281 -9.769531 2.53125 -10.9375 C 3.582031 -12.113281 4.988281 -12.703125 6.75 -12.703125 C 8.5 -12.703125 9.894531 -12.113281 10.9375 -10.9375 C 11.988281 -9.769531 12.515625 -8.203125 12.515625 -6.234375 C 12.515625 -4.785156 12.222656 -3.546875 11.640625 -2.515625 C 11.054688 -1.484375 10.210938 -0.71875 9.109375 -0.21875 Z M 9.109375 -0.21875 "/>
</symbol>
<symbol overflow="visible" id="glyph2-2">
<path style="stroke:none;" d="M 1.453125 -3.703125 L 1.453125 -9.359375 L 3 -9.359375 L 3 -3.75 C 3 -2.863281 3.171875 -2.195312 3.515625 -1.75 C 3.859375 -1.3125 4.375 -1.09375 5.0625 -1.09375 C 5.894531 -1.09375 6.550781 -1.359375 7.03125 -1.890625 C 7.519531 -2.421875 7.765625 -3.144531 7.765625 -4.0625 L 7.765625 -9.359375 L 9.296875 -9.359375 L 9.296875 0 L 7.765625 0 L 7.765625 -1.4375 C 7.390625 -0.863281 6.953125 -0.4375 6.453125 -0.15625 C 5.960938 0.113281 5.390625 0.25 4.734375 0.25 C 3.660156 0.25 2.84375 -0.0820312 2.28125 -0.75 C 1.726562 -1.425781 1.453125 -2.410156 1.453125 -3.703125 Z M 5.328125 -9.59375 Z M 5.328125 -9.59375 "/>
</symbol>
<symbol overflow="visible" id="glyph2-3">
<path style="stroke:none;" d="M 5.875 -4.703125 C 4.625 -4.703125 3.757812 -4.5625 3.28125 -4.28125 C 2.800781 -4 2.5625 -3.515625 2.5625 -2.828125 C 2.5625 -2.273438 2.738281 -1.835938 3.09375 -1.515625 C 3.457031 -1.203125 3.953125 -1.046875 4.578125 -1.046875 C 5.429688 -1.046875 6.113281 -1.347656 6.625 -1.953125 C 7.144531 -2.554688 7.40625 -3.359375 7.40625 -4.359375 L 7.40625 -4.703125 Z M 8.9375 -5.34375 L 8.9375 0 L 7.40625 0 L 7.40625 -1.421875 C 7.050781 -0.847656 6.609375 -0.425781 6.078125 -0.15625 C 5.554688 0.113281 4.921875 0.25 4.171875 0.25 C 3.203125 0.25 2.4375 -0.0195312 1.875 -0.5625 C 1.3125 -1.101562 1.03125 -1.820312 1.03125 -2.71875 C 1.03125 -3.78125 1.378906 -4.578125 2.078125 -5.109375 C 2.785156 -5.640625 3.84375 -5.90625 5.25 -5.90625 L 7.40625 -5.90625 L 7.40625 -6.0625 C 7.40625 -6.769531 7.171875 -7.316406 6.703125 -7.703125 C 6.234375 -8.085938 5.578125 -8.28125 4.734375 -8.28125 C 4.203125 -8.28125 3.679688 -8.21875 3.171875 -8.09375 C 2.671875 -7.96875 2.1875 -7.773438 1.71875 -7.515625 L 1.71875 -8.9375 C 2.28125 -9.15625 2.820312 -9.316406 3.34375 -9.421875 C 3.875 -9.535156 4.394531 -9.59375 4.90625 -9.59375 C 6.257812 -9.59375 7.269531 -9.238281 7.9375 -8.53125 C 8.601562 -7.832031 8.9375 -6.769531 8.9375 -5.34375 Z M 8.9375 -5.34375 "/>
</symbol>
<symbol overflow="visible" id="glyph2-4">
<path style="stroke:none;" d="M 7.046875 -7.921875 C 6.867188 -8.023438 6.675781 -8.097656 6.46875 -8.140625 C 6.269531 -8.191406 6.046875 -8.21875 5.796875 -8.21875 C 4.929688 -8.21875 4.265625 -7.929688 3.796875 -7.359375 C 3.335938 -6.796875 3.109375 -5.988281 3.109375 -4.9375 L 3.109375 0 L 1.5625 0 L 1.5625 -9.359375 L 3.109375 -9.359375 L 3.109375 -7.90625 C 3.429688 -8.476562 3.847656 -8.898438 4.359375 -9.171875 C 4.878906 -9.453125 5.507812 -9.59375 6.25 -9.59375 C 6.351562 -9.59375 6.46875 -9.582031 6.59375 -9.5625 C 6.726562 -9.550781 6.875 -9.53125 7.03125 -9.5 Z M 7.046875 -7.921875 "/>
</symbol>
<symbol overflow="visible" id="glyph2-5">
<path style="stroke:none;" d="M 3.140625 -12.03125 L 3.140625 -9.359375 L 6.3125 -9.359375 L 6.3125 -8.171875 L 3.140625 -8.171875 L 3.140625 -3.078125 C 3.140625 -2.316406 3.242188 -1.828125 3.453125 -1.609375 C 3.660156 -1.390625 4.082031 -1.28125 4.71875 -1.28125 L 6.3125 -1.28125 L 6.3125 0 L 4.71875 0 C 3.53125 0 2.710938 -0.21875 2.265625 -0.65625 C 1.816406 -1.101562 1.59375 -1.910156 1.59375 -3.078125 L 1.59375 -8.171875 L 0.453125 -8.171875 L 0.453125 -9.359375 L 1.59375 -9.359375 L 1.59375 -12.03125 Z M 3.140625 -12.03125 "/>
</symbol>
<symbol overflow="visible" id="glyph2-6">
<path style="stroke:none;" d="M 9.625 -5.0625 L 9.625 -4.3125 L 2.546875 -4.3125 C 2.617188 -3.25 2.9375 -2.441406 3.5 -1.890625 C 4.070312 -1.335938 4.867188 -1.0625 5.890625 -1.0625 C 6.484375 -1.0625 7.054688 -1.132812 7.609375 -1.28125 C 8.171875 -1.425781 8.722656 -1.644531 9.265625 -1.9375 L 9.265625 -0.484375 C 8.710938 -0.242188 8.144531 -0.0625 7.5625 0.0625 C 6.988281 0.1875 6.398438 0.25 5.796875 0.25 C 4.304688 0.25 3.125 -0.179688 2.25 -1.046875 C 1.375 -1.921875 0.9375 -3.101562 0.9375 -4.59375 C 0.9375 -6.125 1.347656 -7.335938 2.171875 -8.234375 C 3.003906 -9.140625 4.125 -9.59375 5.53125 -9.59375 C 6.789062 -9.59375 7.785156 -9.1875 8.515625 -8.375 C 9.253906 -7.5625 9.625 -6.457031 9.625 -5.0625 Z M 8.078125 -5.515625 C 8.066406 -6.359375 7.832031 -7.03125 7.375 -7.53125 C 6.914062 -8.03125 6.304688 -8.28125 5.546875 -8.28125 C 4.691406 -8.28125 4.003906 -8.035156 3.484375 -7.546875 C 2.972656 -7.066406 2.675781 -6.390625 2.59375 -5.515625 Z M 8.078125 -5.515625 "/>
</symbol>
<symbol overflow="visible" id="glyph2-7">
<path style="stroke:none;" d="M 7.578125 -9.09375 L 7.578125 -7.640625 C 7.148438 -7.859375 6.703125 -8.019531 6.234375 -8.125 C 5.765625 -8.238281 5.28125 -8.296875 4.78125 -8.296875 C 4.007812 -8.296875 3.429688 -8.175781 3.046875 -7.9375 C 2.671875 -7.707031 2.484375 -7.363281 2.484375 -6.90625 C 2.484375 -6.539062 2.617188 -6.253906 2.890625 -6.046875 C 3.160156 -5.847656 3.710938 -5.660156 4.546875 -5.484375 L 5.0625 -5.359375 C 6.15625 -5.128906 6.929688 -4.800781 7.390625 -4.375 C 7.847656 -3.945312 8.078125 -3.347656 8.078125 -2.578125 C 8.078125 -1.710938 7.734375 -1.023438 7.046875 -0.515625 C 6.359375 -0.00390625 5.414062 0.25 4.21875 0.25 C 3.71875 0.25 3.191406 0.195312 2.640625 0.09375 C 2.097656 0 1.523438 -0.144531 0.921875 -0.34375 L 0.921875 -1.9375 C 1.492188 -1.632812 2.054688 -1.410156 2.609375 -1.265625 C 3.160156 -1.117188 3.707031 -1.046875 4.25 -1.046875 C 4.96875 -1.046875 5.519531 -1.171875 5.90625 -1.421875 C 6.300781 -1.671875 6.5 -2.019531 6.5 -2.46875 C 6.5 -2.882812 6.359375 -3.203125 6.078125 -3.421875 C 5.796875 -3.648438 5.179688 -3.867188 4.234375 -4.078125 L 3.703125 -4.203125 C 2.742188 -4.398438 2.050781 -4.707031 1.625 -5.125 C 1.207031 -5.539062 1 -6.109375 1 -6.828125 C 1 -7.710938 1.3125 -8.394531 1.9375 -8.875 C 2.5625 -9.351562 3.445312 -9.59375 4.59375 -9.59375 C 5.15625 -9.59375 5.6875 -9.550781 6.1875 -9.46875 C 6.695312 -9.382812 7.160156 -9.257812 7.578125 -9.09375 Z M 7.578125 -9.09375 "/>
</symbol>
<symbol overflow="visible" id="glyph3-0">
<path style="stroke:none;" d="M 0.828125 2.921875 L 0.828125 -11.640625 L 9.078125 -11.640625 L 9.078125 2.921875 Z M 1.75 2 L 8.15625 2 L 8.15625 -10.71875 L 1.75 -10.71875 Z M 1.75 2 "/>
</symbol>
<symbol overflow="visible" id="glyph3-1">
<path style="stroke:none;" d="M 8.84375 -11.640625 L 8.84375 -10.0625 C 8.21875 -10.351562 7.628906 -10.570312 7.078125 -10.71875 C 6.535156 -10.863281 6.007812 -10.9375 5.5 -10.9375 C 4.613281 -10.9375 3.925781 -10.765625 3.4375 -10.421875 C 2.957031 -10.078125 2.71875 -9.585938 2.71875 -8.953125 C 2.71875 -8.421875 2.878906 -8.019531 3.203125 -7.75 C 3.523438 -7.476562 4.132812 -7.257812 5.03125 -7.09375 L 6.015625 -6.890625 C 7.222656 -6.660156 8.113281 -6.253906 8.6875 -5.671875 C 9.269531 -5.085938 9.5625 -4.304688 9.5625 -3.328125 C 9.5625 -2.160156 9.171875 -1.273438 8.390625 -0.671875 C 7.609375 -0.0664062 6.460938 0.234375 4.953125 0.234375 C 4.378906 0.234375 3.769531 0.164062 3.125 0.03125 C 2.488281 -0.09375 1.828125 -0.28125 1.140625 -0.53125 L 1.140625 -2.203125 C 1.796875 -1.835938 2.441406 -1.5625 3.078125 -1.375 C 3.710938 -1.1875 4.335938 -1.09375 4.953125 -1.09375 C 5.878906 -1.09375 6.59375 -1.273438 7.09375 -1.640625 C 7.601562 -2.003906 7.859375 -2.523438 7.859375 -3.203125 C 7.859375 -3.796875 7.675781 -4.257812 7.3125 -4.59375 C 6.957031 -4.925781 6.363281 -5.175781 5.53125 -5.34375 L 4.546875 -5.53125 C 3.328125 -5.769531 2.445312 -6.144531 1.90625 -6.65625 C 1.363281 -7.175781 1.09375 -7.898438 1.09375 -8.828125 C 1.09375 -9.890625 1.46875 -10.722656 2.21875 -11.328125 C 2.96875 -11.941406 4 -12.25 5.3125 -12.25 C 5.875 -12.25 6.445312 -12.195312 7.03125 -12.09375 C 7.625 -12 8.226562 -11.847656 8.84375 -11.640625 Z M 8.84375 -11.640625 "/>
</symbol>
<symbol overflow="visible" id="glyph3-2">
<path style="stroke:none;" d="M 9.28125 -4.890625 L 9.28125 -4.15625 L 2.453125 -4.15625 C 2.523438 -3.132812 2.832031 -2.359375 3.375 -1.828125 C 3.925781 -1.296875 4.695312 -1.03125 5.6875 -1.03125 C 6.257812 -1.03125 6.8125 -1.097656 7.34375 -1.234375 C 7.875 -1.367188 8.40625 -1.578125 8.9375 -1.859375 L 8.9375 -0.453125 C 8.40625 -0.234375 7.859375 -0.0664062 7.296875 0.046875 C 6.734375 0.171875 6.164062 0.234375 5.59375 0.234375 C 4.15625 0.234375 3.015625 -0.179688 2.171875 -1.015625 C 1.328125 -1.859375 0.90625 -2.992188 0.90625 -4.421875 C 0.90625 -5.898438 1.304688 -7.070312 2.109375 -7.9375 C 2.910156 -8.8125 3.988281 -9.25 5.34375 -9.25 C 6.550781 -9.25 7.507812 -8.859375 8.21875 -8.078125 C 8.925781 -7.296875 9.28125 -6.234375 9.28125 -4.890625 Z M 7.796875 -5.328125 C 7.785156 -6.140625 7.554688 -6.785156 7.109375 -7.265625 C 6.671875 -7.742188 6.085938 -7.984375 5.359375 -7.984375 C 4.523438 -7.984375 3.859375 -7.75 3.359375 -7.28125 C 2.867188 -6.820312 2.585938 -6.164062 2.515625 -5.3125 Z M 7.796875 -5.328125 "/>
</symbol>
<symbol overflow="visible" id="glyph3-3">
<path style="stroke:none;" d="M 9.0625 -9.03125 L 5.796875 -4.640625 L 9.234375 0 L 7.484375 0 L 4.859375 -3.546875 L 2.21875 0 L 0.46875 0 L 3.984375 -4.71875 L 0.78125 -9.03125 L 2.53125 -9.03125 L 4.921875 -5.8125 L 7.3125 -9.03125 Z M 9.0625 -9.03125 "/>
</symbol>
<symbol overflow="visible" id="glyph3-4">
<path style="stroke:none;" d="M 3.03125 -11.59375 L 3.03125 -9.03125 L 6.078125 -9.03125 L 6.078125 -7.875 L 3.03125 -7.875 L 3.03125 -2.96875 C 3.03125 -2.238281 3.128906 -1.765625 3.328125 -1.546875 C 3.523438 -1.335938 3.9375 -1.234375 4.5625 -1.234375 L 6.078125 -1.234375 L 6.078125 0 L 4.5625 0 C 3.414062 0 2.625 -0.210938 2.1875 -0.640625 C 1.75 -1.066406 1.53125 -1.84375 1.53125 -2.96875 L 1.53125 -7.875 L 0.4375 -7.875 L 0.4375 -9.03125 L 1.53125 -9.03125 L 1.53125 -11.59375 Z M 3.03125 -11.59375 "/>
</symbol>
<symbol overflow="visible" id="glyph4-0">
<path style="stroke:none;" d="M 0.8125 2.90625 L 0.8125 -11.59375 L 9.03125 -11.59375 L 9.03125 2.90625 Z M 1.734375 1.984375 L 8.125 1.984375 L 8.125 -10.671875 L 1.734375 -10.671875 Z M 1.734375 1.984375 "/>
</symbol>
<symbol overflow="visible" id="glyph4-1">
<path style="stroke:none;" d="M -0.046875 -11.984375 L 10.09375 -11.984375 L 10.09375 -10.625 L 5.828125 -10.625 L 5.828125 0 L 4.203125 0 L 4.203125 -10.625 L -0.046875 -10.625 Z M -0.046875 -11.984375 "/>
</symbol>
<symbol overflow="visible" id="glyph4-2">
<path style="stroke:none;" d="M 6.765625 -7.609375 C 6.597656 -7.703125 6.414062 -7.769531 6.21875 -7.8125 C 6.019531 -7.863281 5.800781 -7.890625 5.5625 -7.890625 C 4.726562 -7.890625 4.085938 -7.617188 3.640625 -7.078125 C 3.203125 -6.535156 2.984375 -5.753906 2.984375 -4.734375 L 2.984375 0 L 1.5 0 L 1.5 -8.984375 L 2.984375 -8.984375 L 2.984375 -7.59375 C 3.285156 -8.132812 3.6875 -8.535156 4.1875 -8.796875 C 4.6875 -9.066406 5.289062 -9.203125 6 -9.203125 C 6.101562 -9.203125 6.21875 -9.195312 6.34375 -9.1875 C 6.46875 -9.175781 6.601562 -9.15625 6.75 -9.125 Z M 6.765625 -7.609375 "/>
</symbol>
<symbol overflow="visible" id="glyph4-3">
<path style="stroke:none;" d="M 1.546875 -8.984375 L 3.03125 -8.984375 L 3.03125 0 L 1.546875 0 Z M 1.546875 -12.484375 L 3.03125 -12.484375 L 3.03125 -10.625 L 1.546875 -10.625 Z M 1.546875 -12.484375 "/>
</symbol>
<symbol overflow="visible" id="glyph4-4">
<path style="stroke:none;" d="M 5.03125 -7.953125 C 4.238281 -7.953125 3.613281 -7.640625 3.15625 -7.015625 C 2.695312 -6.398438 2.46875 -5.554688 2.46875 -4.484375 C 2.46875 -3.410156 2.695312 -2.5625 3.15625 -1.9375 C 3.613281 -1.320312 4.238281 -1.015625 5.03125 -1.015625 C 5.820312 -1.015625 6.445312 -1.320312 6.90625 -1.9375 C 7.363281 -2.5625 7.59375 -3.410156 7.59375 -4.484375 C 7.59375 -5.546875 7.363281 -6.390625 6.90625 -7.015625 C 6.445312 -7.640625 5.820312 -7.953125 5.03125 -7.953125 Z M 5.03125 -9.203125 C 6.3125 -9.203125 7.316406 -8.785156 8.046875 -7.953125 C 8.785156 -7.117188 9.15625 -5.960938 9.15625 -4.484375 C 9.15625 -3.015625 8.785156 -1.859375 8.046875 -1.015625 C 7.316406 -0.179688 6.3125 0.234375 5.03125 0.234375 C 3.738281 0.234375 2.726562 -0.179688 2 -1.015625 C 1.269531 -1.859375 0.90625 -3.015625 0.90625 -4.484375 C 0.90625 -5.960938 1.269531 -7.117188 2 -7.953125 C 2.726562 -8.785156 3.738281 -9.203125 5.03125 -9.203125 Z M 5.03125 -9.203125 "/>
</symbol>
<symbol overflow="visible" id="glyph5-0">
<path style="stroke:none;" d="M 0.8125 2.875 L 0.8125 -11.46875 L 8.9375 -11.46875 L 8.9375 2.875 Z M 1.71875 1.96875 L 8.03125 1.96875 L 8.03125 -10.5625 L 1.71875 -10.5625 Z M 1.71875 1.96875 "/>
</symbol>
<symbol overflow="visible" id="glyph5-1">
<path style="stroke:none;" d="M 2.40625 -4.4375 C 2.40625 -3.363281 2.625 -2.519531 3.0625 -1.90625 C 3.507812 -1.300781 4.117188 -1 4.890625 -1 C 5.660156 -1 6.269531 -1.300781 6.71875 -1.90625 C 7.164062 -2.519531 7.390625 -3.363281 7.390625 -4.4375 C 7.390625 -5.507812 7.164062 -6.351562 6.71875 -6.96875 C 6.269531 -7.582031 5.660156 -7.890625 4.890625 -7.890625 C 4.117188 -7.890625 3.507812 -7.582031 3.0625 -6.96875 C 2.625 -6.351562 2.40625 -5.507812 2.40625 -4.4375 Z M 7.390625 -1.328125 C 7.078125 -0.804688 6.6875 -0.414062 6.21875 -0.15625 C 5.75 0.101562 5.1875 0.234375 4.53125 0.234375 C 3.457031 0.234375 2.582031 -0.191406 1.90625 -1.046875 C 1.226562 -1.910156 0.890625 -3.039062 0.890625 -4.4375 C 0.890625 -5.832031 1.226562 -6.957031 1.90625 -7.8125 C 2.582031 -8.675781 3.457031 -9.109375 4.53125 -9.109375 C 5.1875 -9.109375 5.75 -8.976562 6.21875 -8.71875 C 6.6875 -8.46875 7.078125 -8.078125 7.390625 -7.546875 L 7.390625 -8.890625 L 8.84375 -8.890625 L 8.84375 3.390625 L 7.390625 3.390625 Z M 7.390625 -1.328125 "/>
</symbol>
<symbol overflow="visible" id="glyph5-2">
<path style="stroke:none;" d="M 1.375 -3.515625 L 1.375 -8.890625 L 2.84375 -8.890625 L 2.84375 -3.5625 C 2.84375 -2.71875 3.003906 -2.085938 3.328125 -1.671875 C 3.660156 -1.253906 4.15625 -1.046875 4.8125 -1.046875 C 5.601562 -1.046875 6.226562 -1.296875 6.6875 -1.796875 C 7.144531 -2.296875 7.375 -2.984375 7.375 -3.859375 L 7.375 -8.890625 L 8.828125 -8.890625 L 8.828125 0 L 7.375 0 L 7.375 -1.359375 C 7.019531 -0.828125 6.609375 -0.425781 6.140625 -0.15625 C 5.671875 0.101562 5.125 0.234375 4.5 0.234375 C 3.476562 0.234375 2.703125 -0.0820312 2.171875 -0.71875 C 1.640625 -1.351562 1.375 -2.285156 1.375 -3.515625 Z M 5.0625 -9.109375 Z M 5.0625 -9.109375 "/>
</symbol>
<symbol overflow="visible" id="glyph5-3">
<path style="stroke:none;" d="M 5.578125 -4.46875 C 4.390625 -4.46875 3.566406 -4.332031 3.109375 -4.0625 C 2.660156 -3.789062 2.4375 -3.332031 2.4375 -2.6875 C 2.4375 -2.164062 2.609375 -1.753906 2.953125 -1.453125 C 3.296875 -1.148438 3.757812 -1 4.34375 -1 C 5.15625 -1 5.804688 -1.285156 6.296875 -1.859375 C 6.785156 -2.429688 7.03125 -3.191406 7.03125 -4.140625 L 7.03125 -4.46875 Z M 8.484375 -5.078125 L 8.484375 0 L 7.03125 0 L 7.03125 -1.34375 C 6.695312 -0.8125 6.28125 -0.414062 5.78125 -0.15625 C 5.28125 0.101562 4.671875 0.234375 3.953125 0.234375 C 3.046875 0.234375 2.320312 -0.0195312 1.78125 -0.53125 C 1.25 -1.039062 0.984375 -1.726562 0.984375 -2.59375 C 0.984375 -3.59375 1.316406 -4.34375 1.984375 -4.84375 C 2.648438 -5.351562 3.648438 -5.609375 4.984375 -5.609375 L 7.03125 -5.609375 L 7.03125 -5.765625 C 7.03125 -6.429688 6.804688 -6.945312 6.359375 -7.3125 C 5.921875 -7.6875 5.300781 -7.875 4.5 -7.875 C 3.988281 -7.875 3.492188 -7.8125 3.015625 -7.6875 C 2.535156 -7.5625 2.070312 -7.378906 1.625 -7.140625 L 1.625 -8.484375 C 2.164062 -8.691406 2.6875 -8.847656 3.1875 -8.953125 C 3.6875 -9.054688 4.175781 -9.109375 4.65625 -9.109375 C 5.9375 -9.109375 6.894531 -8.773438 7.53125 -8.109375 C 8.164062 -7.441406 8.484375 -6.429688 8.484375 -5.078125 Z M 8.484375 -5.078125 "/>
</symbol>
<symbol overflow="visible" id="glyph5-4">
<path style="stroke:none;" d="M 6.6875 -7.53125 C 6.519531 -7.625 6.335938 -7.691406 6.140625 -7.734375 C 5.953125 -7.785156 5.742188 -7.8125 5.515625 -7.8125 C 4.679688 -7.8125 4.046875 -7.539062 3.609375 -7 C 3.171875 -6.457031 2.953125 -5.6875 2.953125 -4.6875 L 2.953125 0 L 1.484375 0 L 1.484375 -8.890625 L 2.953125 -8.890625 L 2.953125 -7.515625 C 3.253906 -8.054688 3.648438 -8.457031 4.140625 -8.71875 C 4.640625 -8.976562 5.238281 -9.109375 5.9375 -9.109375 C 6.039062 -9.109375 6.148438 -9.097656 6.265625 -9.078125 C 6.390625 -9.066406 6.523438 -9.050781 6.671875 -9.03125 Z M 6.6875 -7.53125 "/>
</symbol>
<symbol overflow="visible" id="glyph5-5">
<path style="stroke:none;" d="M 2.984375 -11.421875 L 2.984375 -8.890625 L 5.984375 -8.890625 L 5.984375 -7.765625 L 2.984375 -7.765625 L 2.984375 -2.9375 C 2.984375 -2.207031 3.082031 -1.738281 3.28125 -1.53125 C 3.476562 -1.320312 3.878906 -1.21875 4.484375 -1.21875 L 5.984375 -1.21875 L 5.984375 0 L 4.484375 0 C 3.359375 0 2.582031 -0.207031 2.15625 -0.625 C 1.726562 -1.050781 1.515625 -1.820312 1.515625 -2.9375 L 1.515625 -7.765625 L 0.4375 -7.765625 L 0.4375 -8.890625 L 1.515625 -8.890625 L 1.515625 -11.421875 Z M 2.984375 -11.421875 "/>
</symbol>
<symbol overflow="visible" id="glyph5-6">
<path style="stroke:none;" d="M 9.140625 -4.8125 L 9.140625 -4.09375 L 2.421875 -4.09375 C 2.484375 -3.09375 2.785156 -2.328125 3.328125 -1.796875 C 3.867188 -1.273438 4.625 -1.015625 5.59375 -1.015625 C 6.15625 -1.015625 6.695312 -1.082031 7.21875 -1.21875 C 7.75 -1.351562 8.273438 -1.554688 8.796875 -1.828125 L 8.796875 -0.453125 C 8.273438 -0.234375 7.738281 -0.0664062 7.1875 0.046875 C 6.632812 0.171875 6.078125 0.234375 5.515625 0.234375 C 4.097656 0.234375 2.972656 -0.175781 2.140625 -1 C 1.304688 -1.832031 0.890625 -2.953125 0.890625 -4.359375 C 0.890625 -5.816406 1.28125 -6.972656 2.0625 -7.828125 C 2.851562 -8.679688 3.914062 -9.109375 5.25 -9.109375 C 6.445312 -9.109375 7.394531 -8.722656 8.09375 -7.953125 C 8.789062 -7.179688 9.140625 -6.132812 9.140625 -4.8125 Z M 7.6875 -5.234375 C 7.675781 -6.035156 7.453125 -6.675781 7.015625 -7.15625 C 6.578125 -7.632812 6 -7.875 5.28125 -7.875 C 4.457031 -7.875 3.800781 -7.640625 3.3125 -7.171875 C 2.820312 -6.710938 2.539062 -6.066406 2.46875 -5.234375 Z M 7.6875 -5.234375 "/>
</symbol>
<symbol overflow="visible" id="glyph6-0">
<path style="stroke:none;" d="M 1.5625 5.53125 L 1.5625 -22.046875 L 17.1875 -22.046875 L 17.1875 5.53125 Z M 3.3125 3.78125 L 15.453125 3.78125 L 15.453125 -20.296875 L 3.3125 -20.296875 Z M 3.3125 3.78125 "/>
</symbol>
<symbol overflow="visible" id="glyph6-1">
<path style="stroke:none;" d="M 15.984375 -13.75 L 11.546875 -13.75 L 10.265625 -8.65625 L 14.734375 -8.65625 Z M 13.6875 -22.4375 L 12.109375 -16.109375 L 16.5625 -16.109375 L 18.171875 -22.4375 L 20.609375 -22.4375 L 19.03125 -16.109375 L 23.796875 -16.109375 L 23.796875 -13.75 L 18.4375 -13.75 L 17.1875 -8.65625 L 22.046875 -8.65625 L 22.046875 -6.3125 L 16.59375 -6.3125 L 15 0 L 12.5625 0 L 14.140625 -6.3125 L 9.65625 -6.3125 L 8.09375 0 L 5.640625 0 L 7.21875 -6.3125 L 2.40625 -6.3125 L 2.40625 -8.65625 L 7.78125 -8.65625 L 9.0625 -13.75 L 4.15625 -13.75 L 4.15625 -16.109375 L 9.65625 -16.109375 L 11.21875 -22.4375 Z M 13.6875 -22.4375 "/>
</symbol>
<symbol overflow="visible" id="glyph6-2">
<path style="stroke:none;" d="M 3.875 -2.59375 L 8.921875 -2.59375 L 8.921875 -19.984375 L 3.4375 -18.890625 L 3.4375 -21.6875 L 8.890625 -22.796875 L 11.96875 -22.796875 L 11.96875 -2.59375 L 17 -2.59375 L 17 0 L 3.875 0 Z M 3.875 -2.59375 "/>
</symbol>
<symbol overflow="visible" id="glyph7-0">
<path style="stroke:none;" d="M 1.515625 5.40625 L 1.515625 -21.53125 L 16.796875 -21.53125 L 16.796875 5.40625 Z M 3.234375 3.703125 L 15.09375 3.703125 L 15.09375 -19.828125 L 3.234375 -19.828125 Z M 3.234375 3.703125 "/>
</symbol>
<symbol overflow="visible" id="glyph7-1">
<path style="stroke:none;" d="M 15.609375 -13.4375 L 11.28125 -13.4375 L 10.015625 -8.453125 L 14.390625 -8.453125 Z M 13.375 -21.921875 L 11.828125 -15.734375 L 16.1875 -15.734375 L 17.75 -21.921875 L 20.140625 -21.921875 L 18.59375 -15.734375 L 23.25 -15.734375 L 23.25 -13.4375 L 18.015625 -13.4375 L 16.796875 -8.453125 L 21.53125 -8.453125 L 21.53125 -6.171875 L 16.21875 -6.171875 L 14.65625 0 L 12.28125 0 L 13.8125 -6.171875 L 9.4375 -6.171875 L 7.90625 0 L 5.5 0 L 7.0625 -6.171875 L 2.359375 -6.171875 L 2.359375 -8.453125 L 7.609375 -8.453125 L 8.859375 -13.4375 L 4.0625 -13.4375 L 4.0625 -15.734375 L 9.4375 -15.734375 L 10.96875 -21.921875 Z M 13.375 -21.921875 "/>
</symbol>
<symbol overflow="visible" id="glyph7-2">
<path style="stroke:none;" d="M 12.390625 -12 C 13.835938 -11.695312 14.960938 -11.054688 15.765625 -10.078125 C 16.578125 -9.109375 16.984375 -7.90625 16.984375 -6.46875 C 16.984375 -4.269531 16.226562 -2.566406 14.71875 -1.359375 C 13.207031 -0.160156 11.0625 0.4375 8.28125 0.4375 C 7.34375 0.4375 6.378906 0.34375 5.390625 0.15625 C 4.398438 -0.03125 3.378906 -0.304688 2.328125 -0.671875 L 2.328125 -3.578125 C 3.160156 -3.085938 4.070312 -2.71875 5.0625 -2.46875 C 6.0625 -2.226562 7.101562 -2.109375 8.1875 -2.109375 C 10.070312 -2.109375 11.507812 -2.476562 12.5 -3.21875 C 13.488281 -3.96875 13.984375 -5.050781 13.984375 -6.46875 C 13.984375 -7.78125 13.523438 -8.804688 12.609375 -9.546875 C 11.691406 -10.296875 10.410156 -10.671875 8.765625 -10.671875 L 6.171875 -10.671875 L 6.171875 -13.140625 L 8.890625 -13.140625 C 10.367188 -13.140625 11.5 -13.4375 12.28125 -14.03125 C 13.070312 -14.625 13.46875 -15.476562 13.46875 -16.59375 C 13.46875 -17.726562 13.0625 -18.601562 12.25 -19.21875 C 11.4375 -19.832031 10.273438 -20.140625 8.765625 -20.140625 C 7.941406 -20.140625 7.054688 -20.046875 6.109375 -19.859375 C 5.171875 -19.679688 4.132812 -19.40625 3 -19.03125 L 3 -21.71875 C 4.144531 -22.03125 5.21875 -22.265625 6.21875 -22.421875 C 7.21875 -22.585938 8.15625 -22.671875 9.03125 -22.671875 C 11.320312 -22.671875 13.132812 -22.148438 14.46875 -21.109375 C 15.800781 -20.066406 16.46875 -18.664062 16.46875 -16.90625 C 16.46875 -15.664062 16.113281 -14.617188 15.40625 -13.765625 C 14.695312 -12.921875 13.691406 -12.332031 12.390625 -12 Z M 12.390625 -12 "/>
</symbol>
<symbol overflow="visible" id="glyph8-0">
<path style="stroke:none;" d="M 1.296875 4.625 L 1.296875 -18.46875 L 14.390625 -18.46875 L 14.390625 4.625 Z M 2.78125 3.171875 L 12.9375 3.171875 L 12.9375 -17 L 2.78125 -17 Z M 2.78125 3.171875 "/>
</symbol>
<symbol overflow="visible" id="glyph8-1">
<path style="stroke:none;" d="M 13.390625 -11.515625 L 9.671875 -11.515625 L 8.59375 -7.25 L 12.34375 -7.25 Z M 11.46875 -18.796875 L 10.140625 -13.484375 L 13.875 -13.484375 L 15.21875 -18.796875 L 17.265625 -18.796875 L 15.9375 -13.484375 L 19.9375 -13.484375 L 19.9375 -11.515625 L 15.453125 -11.515625 L 14.390625 -7.25 L 18.46875 -7.25 L 18.46875 -5.296875 L 13.90625 -5.296875 L 12.5625 0 L 10.53125 0 L 11.84375 -5.296875 L 8.09375 -5.296875 L 6.78125 0 L 4.71875 0 L 6.046875 -5.296875 L 2.015625 -5.296875 L 2.015625 -7.25 L 6.515625 -7.25 L 7.59375 -11.515625 L 3.484375 -11.515625 L 3.484375 -13.484375 L 8.09375 -13.484375 L 9.390625 -18.796875 Z M 11.46875 -18.796875 "/>
</symbol>
<symbol overflow="visible" id="glyph8-2">
<path style="stroke:none;" d="M 9.890625 -16.84375 L 3.375 -6.65625 L 9.890625 -6.65625 Z M 9.21875 -19.09375 L 12.46875 -19.09375 L 12.46875 -6.65625 L 15.1875 -6.65625 L 15.1875 -4.5 L 12.46875 -4.5 L 12.46875 0 L 9.890625 0 L 9.890625 -4.5 L 1.28125 -4.5 L 1.28125 -7 Z M 9.21875 -19.09375 "/>
</symbol>
<symbol overflow="visible" id="glyph9-0">
<path style="stroke:none;" d="M 1.125 3.984375 L 1.125 -15.890625 L 12.390625 -15.890625 L 12.390625 3.984375 Z M 2.390625 2.734375 L 11.140625 2.734375 L 11.140625 -14.625 L 2.390625 -14.625 Z M 2.390625 2.734375 "/>
</symbol>
<symbol overflow="visible" id="glyph9-1">
<path style="stroke:none;" d="M 11.53125 -9.921875 L 8.328125 -9.921875 L 7.390625 -6.25 L 10.625 -6.25 Z M 9.875 -16.1875 L 8.734375 -11.609375 L 11.9375 -11.609375 L 13.09375 -16.1875 L 14.859375 -16.1875 L 13.734375 -11.609375 L 17.15625 -11.609375 L 17.15625 -9.921875 L 13.296875 -9.921875 L 12.390625 -6.25 L 15.890625 -6.25 L 15.890625 -4.5625 L 11.96875 -4.5625 L 10.828125 0 L 9.0625 0 L 10.1875 -4.5625 L 6.96875 -4.5625 L 5.828125 0 L 4.0625 0 L 5.203125 -4.5625 L 1.734375 -4.5625 L 1.734375 -6.25 L 5.609375 -6.25 L 6.546875 -9.921875 L 3 -9.921875 L 3 -11.609375 L 6.96875 -11.609375 L 8.09375 -16.1875 Z M 9.875 -16.1875 "/>
</symbol>
<symbol overflow="visible" id="glyph9-2">
<path style="stroke:none;" d="M 2.4375 -16.4375 L 11.15625 -16.4375 L 11.15625 -14.5625 L 4.46875 -14.5625 L 4.46875 -10.53125 C 4.789062 -10.644531 5.113281 -10.726562 5.4375 -10.78125 C 5.757812 -10.832031 6.082031 -10.859375 6.40625 -10.859375 C 8.238281 -10.859375 9.691406 -10.351562 10.765625 -9.34375 C 11.835938 -8.34375 12.375 -6.984375 12.375 -5.265625 C 12.375 -3.503906 11.820312 -2.132812 10.71875 -1.15625 C 9.625 -0.175781 8.070312 0.3125 6.0625 0.3125 C 5.375 0.3125 4.671875 0.253906 3.953125 0.140625 C 3.242188 0.0234375 2.503906 -0.148438 1.734375 -0.390625 L 1.734375 -2.625 C 2.398438 -2.257812 3.082031 -1.988281 3.78125 -1.8125 C 4.488281 -1.632812 5.234375 -1.546875 6.015625 -1.546875 C 7.285156 -1.546875 8.289062 -1.878906 9.03125 -2.546875 C 9.78125 -3.222656 10.15625 -4.128906 10.15625 -5.265625 C 10.15625 -6.410156 9.78125 -7.316406 9.03125 -7.984375 C 8.289062 -8.660156 7.285156 -9 6.015625 -9 C 5.421875 -9 4.828125 -8.929688 4.234375 -8.796875 C 3.648438 -8.660156 3.050781 -8.457031 2.4375 -8.1875 Z M 2.4375 -16.4375 "/>
</symbol>
<symbol overflow="visible" id="glyph10-0">
<path style="stroke:none;" d="M 1 3.53125 L 1 -14.109375 L 11 -14.109375 L 11 3.53125 Z M 2.125 2.421875 L 9.890625 2.421875 L 9.890625 -12.984375 L 2.125 -12.984375 Z M 2.125 2.421875 "/>
</symbol>
<symbol overflow="visible" id="glyph10-1">
<path style="stroke:none;" d="M 10.21875 -8.796875 L 7.390625 -8.796875 L 6.5625 -5.53125 L 9.421875 -5.53125 Z M 8.765625 -14.359375 L 7.75 -10.296875 L 10.59375 -10.296875 L 11.625 -14.359375 L 13.1875 -14.359375 L 12.171875 -10.296875 L 15.21875 -10.296875 L 15.21875 -8.796875 L 11.796875 -8.796875 L 11 -5.53125 L 14.109375 -5.53125 L 14.109375 -4.046875 L 10.609375 -4.046875 L 9.59375 0 L 8.03125 0 L 9.046875 -4.046875 L 6.1875 -4.046875 L 5.171875 0 L 3.609375 0 L 4.625 -4.046875 L 1.546875 -4.046875 L 1.546875 -5.53125 L 4.984375 -5.53125 L 5.796875 -8.796875 L 2.65625 -8.796875 L 2.65625 -10.296875 L 6.1875 -10.296875 L 7.171875 -14.359375 Z M 8.765625 -14.359375 "/>
</symbol>
<symbol overflow="visible" id="glyph10-2">
<path style="stroke:none;" d="M 6.609375 -8.078125 C 5.722656 -8.078125 5.019531 -7.773438 4.5 -7.171875 C 3.976562 -6.566406 3.71875 -5.734375 3.71875 -4.671875 C 3.71875 -3.628906 3.976562 -2.800781 4.5 -2.1875 C 5.019531 -1.582031 5.722656 -1.28125 6.609375 -1.28125 C 7.492188 -1.28125 8.191406 -1.582031 8.703125 -2.1875 C 9.222656 -2.800781 9.484375 -3.628906 9.484375 -4.671875 C 9.484375 -5.734375 9.222656 -6.566406 8.703125 -7.171875 C 8.191406 -7.773438 7.492188 -8.078125 6.609375 -8.078125 Z M 10.515625 -14.265625 L 10.515625 -12.46875 C 10.023438 -12.695312 9.523438 -12.875 9.015625 -13 C 8.515625 -13.125 8.015625 -13.1875 7.515625 -13.1875 C 6.210938 -13.1875 5.21875 -12.742188 4.53125 -11.859375 C 3.84375 -10.984375 3.453125 -9.65625 3.359375 -7.875 C 3.742188 -8.445312 4.222656 -8.882812 4.796875 -9.1875 C 5.378906 -9.488281 6.019531 -9.640625 6.71875 -9.640625 C 8.1875 -9.640625 9.34375 -9.191406 10.1875 -8.296875 C 11.039062 -7.410156 11.46875 -6.203125 11.46875 -4.671875 C 11.46875 -3.179688 11.023438 -1.984375 10.140625 -1.078125 C 9.253906 -0.171875 8.078125 0.28125 6.609375 0.28125 C 4.921875 0.28125 3.628906 -0.363281 2.734375 -1.65625 C 1.835938 -2.945312 1.390625 -4.820312 1.390625 -7.28125 C 1.390625 -9.582031 1.9375 -11.414062 3.03125 -12.78125 C 4.125 -14.15625 5.59375 -14.84375 7.4375 -14.84375 C 7.9375 -14.84375 8.4375 -14.789062 8.9375 -14.6875 C 9.445312 -14.59375 9.972656 -14.453125 10.515625 -14.265625 Z M 10.515625 -14.265625 "/>
</symbol>
<symbol overflow="visible" id="glyph11-0">
<path style="stroke:none;" d="M 0.90625 3.21875 L 0.90625 -12.828125 L 10 -12.828125 L 10 3.21875 Z M 1.921875 2.203125 L 8.984375 2.203125 L 8.984375 -11.796875 L 1.921875 -11.796875 Z M 1.921875 2.203125 "/>
</symbol>
<symbol overflow="visible" id="glyph11-1">
<path style="stroke:none;" d="M 9.296875 -8 L 6.71875 -8 L 5.96875 -5.03125 L 8.5625 -5.03125 Z M 7.96875 -13.046875 L 7.046875 -9.375 L 9.640625 -9.375 L 10.5625 -13.046875 L 11.984375 -13.046875 L 11.078125 -9.375 L 13.84375 -9.375 L 13.84375 -8 L 10.734375 -8 L 10 -5.03125 L 12.828125 -5.03125 L 12.828125 -3.671875 L 9.65625 -3.671875 L 8.734375 0 L 7.3125 0 L 8.21875 -3.671875 L 5.625 -3.671875 L 4.703125 0 L 3.28125 0 L 4.203125 -3.671875 L 1.40625 -3.671875 L 1.40625 -5.03125 L 4.53125 -5.03125 L 5.28125 -8 L 2.421875 -8 L 2.421875 -9.375 L 5.625 -9.375 L 6.53125 -13.046875 Z M 7.96875 -13.046875 "/>
</symbol>
<symbol overflow="visible" id="glyph11-2">
<path style="stroke:none;" d="M 2.25 -1.515625 L 5.1875 -1.515625 L 5.1875 -11.625 L 2 -10.984375 L 2 -12.625 L 5.171875 -13.265625 L 6.96875 -13.265625 L 6.96875 -1.515625 L 9.890625 -1.515625 L 9.890625 0 L 2.25 0 Z M 2.25 -1.515625 "/>
</symbol>
<symbol overflow="visible" id="glyph11-3">
<path style="stroke:none;" d="M 7.375 -7.15625 C 8.238281 -6.96875 8.910156 -6.582031 9.390625 -6 C 9.867188 -5.425781 10.109375 -4.710938 10.109375 -3.859375 C 10.109375 -2.546875 9.660156 -1.53125 8.765625 -0.8125 C 7.867188 -0.101562 6.585938 0.25 4.921875 0.25 C 4.367188 0.25 3.796875 0.191406 3.203125 0.078125 C 2.617188 -0.0234375 2.015625 -0.1875 1.390625 -0.40625 L 1.390625 -2.125 C 1.878906 -1.84375 2.421875 -1.625 3.015625 -1.46875 C 3.609375 -1.320312 4.226562 -1.25 4.875 -1.25 C 6 -1.25 6.851562 -1.46875 7.4375 -1.90625 C 8.03125 -2.351562 8.328125 -3.003906 8.328125 -3.859375 C 8.328125 -4.640625 8.050781 -5.25 7.5 -5.6875 C 6.957031 -6.125 6.195312 -6.34375 5.21875 -6.34375 L 3.671875 -6.34375 L 3.671875 -7.828125 L 5.296875 -7.828125 C 6.171875 -7.828125 6.84375 -8 7.3125 -8.34375 C 7.78125 -8.695312 8.015625 -9.207031 8.015625 -9.875 C 8.015625 -10.550781 7.773438 -11.070312 7.296875 -11.4375 C 6.816406 -11.800781 6.125 -11.984375 5.21875 -11.984375 C 4.726562 -11.984375 4.203125 -11.929688 3.640625 -11.828125 C 3.078125 -11.722656 2.457031 -11.554688 1.78125 -11.328125 L 1.78125 -12.9375 C 2.46875 -13.125 3.109375 -13.265625 3.703125 -13.359375 C 4.296875 -13.453125 4.851562 -13.5 5.375 -13.5 C 6.738281 -13.5 7.816406 -13.1875 8.609375 -12.5625 C 9.398438 -11.945312 9.796875 -11.113281 9.796875 -10.0625 C 9.796875 -9.320312 9.585938 -8.695312 9.171875 -8.1875 C 8.753906 -7.6875 8.15625 -7.34375 7.375 -7.15625 Z M 7.375 -7.15625 "/>
</symbol>
<symbol overflow="visible" id="glyph11-4">
<path style="stroke:none;" d="M 5.78125 -6.296875 C 4.925781 -6.296875 4.253906 -6.066406 3.765625 -5.609375 C 3.273438 -5.148438 3.03125 -4.523438 3.03125 -3.734375 C 3.03125 -2.929688 3.273438 -2.300781 3.765625 -1.84375 C 4.253906 -1.382812 4.925781 -1.15625 5.78125 -1.15625 C 6.632812 -1.15625 7.304688 -1.382812 7.796875 -1.84375 C 8.285156 -2.3125 8.53125 -2.941406 8.53125 -3.734375 C 8.53125 -4.523438 8.285156 -5.148438 7.796875 -5.609375 C 7.304688 -6.066406 6.632812 -6.296875 5.78125 -6.296875 Z M 3.984375 -7.0625 C 3.210938 -7.25 2.613281 -7.601562 2.1875 -8.125 C 1.757812 -8.65625 1.546875 -9.300781 1.546875 -10.0625 C 1.546875 -11.125 1.921875 -11.960938 2.671875 -12.578125 C 3.429688 -13.191406 4.46875 -13.5 5.78125 -13.5 C 7.101562 -13.5 8.140625 -13.191406 8.890625 -12.578125 C 9.640625 -11.960938 10.015625 -11.125 10.015625 -10.0625 C 10.015625 -9.300781 9.800781 -8.65625 9.375 -8.125 C 8.945312 -7.601562 8.347656 -7.25 7.578125 -7.0625 C 8.441406 -6.863281 9.113281 -6.46875 9.59375 -5.875 C 10.082031 -5.289062 10.328125 -4.578125 10.328125 -3.734375 C 10.328125 -2.441406 9.929688 -1.453125 9.140625 -0.765625 C 8.359375 -0.0859375 7.238281 0.25 5.78125 0.25 C 4.320312 0.25 3.195312 -0.0859375 2.40625 -0.765625 C 1.625 -1.453125 1.234375 -2.441406 1.234375 -3.734375 C 1.234375 -4.578125 1.472656 -5.289062 1.953125 -5.875 C 2.441406 -6.46875 3.117188 -6.863281 3.984375 -7.0625 Z M 3.328125 -9.890625 C 3.328125 -9.203125 3.539062 -8.664062 3.96875 -8.28125 C 4.40625 -7.894531 5.007812 -7.703125 5.78125 -7.703125 C 6.550781 -7.703125 7.148438 -7.894531 7.578125 -8.28125 C 8.015625 -8.664062 8.234375 -9.203125 8.234375 -9.890625 C 8.234375 -10.578125 8.015625 -11.113281 7.578125 -11.5 C 7.148438 -11.882812 6.550781 -12.078125 5.78125 -12.078125 C 5.007812 -12.078125 4.40625 -11.882812 3.96875 -11.5 C 3.539062 -11.113281 3.328125 -10.578125 3.328125 -9.890625 Z M 3.328125 -9.890625 "/>
</symbol>
<symbol overflow="visible" id="glyph11-5">
<path style="stroke:none;" d="M 5.78125 -12.078125 C 4.851562 -12.078125 4.15625 -11.617188 3.6875 -10.703125 C 3.226562 -9.796875 3 -8.429688 3 -6.609375 C 3 -4.796875 3.226562 -3.429688 3.6875 -2.515625 C 4.15625 -1.609375 4.851562 -1.15625 5.78125 -1.15625 C 6.707031 -1.15625 7.398438 -1.609375 7.859375 -2.515625 C 8.328125 -3.429688 8.5625 -4.796875 8.5625 -6.609375 C 8.5625 -8.429688 8.328125 -9.796875 7.859375 -10.703125 C 7.398438 -11.617188 6.707031 -12.078125 5.78125 -12.078125 Z M 5.78125 -13.5 C 7.269531 -13.5 8.40625 -12.910156 9.1875 -11.734375 C 9.96875 -10.554688 10.359375 -8.847656 10.359375 -6.609375 C 10.359375 -4.378906 9.96875 -2.675781 9.1875 -1.5 C 8.40625 -0.332031 7.269531 0.25 5.78125 0.25 C 4.289062 0.25 3.15625 -0.332031 2.375 -1.5 C 1.59375 -2.675781 1.203125 -4.378906 1.203125 -6.609375 C 1.203125 -8.847656 1.59375 -10.554688 2.375 -11.734375 C 3.15625 -12.910156 4.289062 -13.5 5.78125 -13.5 Z M 5.78125 -13.5 "/>
</symbol>
<symbol overflow="visible" id="glyph11-6">
<path style="stroke:none;" d="M 1.484375 -13.265625 L 10.015625 -13.265625 L 10.015625 -12.5 L 5.203125 0 L 3.328125 0 L 7.859375 -11.75 L 1.484375 -11.75 Z M 1.484375 -13.265625 "/>
</symbol>
<symbol overflow="visible" id="glyph12-0">
<path style="stroke:none;" d="M 0.890625 3.15625 L 0.890625 -12.5625 L 9.796875 -12.5625 L 9.796875 3.15625 Z M 1.890625 2.15625 L 8.796875 2.15625 L 8.796875 -11.5625 L 1.890625 -11.5625 Z M 1.890625 2.15625 "/>
</symbol>
<symbol overflow="visible" id="glyph12-1">
<path style="stroke:none;" d="M 9.109375 -7.84375 L 6.578125 -7.84375 L 5.84375 -4.9375 L 8.390625 -4.9375 Z M 7.796875 -12.78125 L 6.890625 -9.171875 L 9.4375 -9.171875 L 10.34375 -12.78125 L 11.734375 -12.78125 L 10.84375 -9.171875 L 13.5625 -9.171875 L 13.5625 -7.84375 L 10.5 -7.84375 L 9.796875 -4.9375 L 12.5625 -4.9375 L 12.5625 -3.59375 L 9.453125 -3.59375 L 8.546875 0 L 7.15625 0 L 8.046875 -3.59375 L 5.5 -3.59375 L 4.609375 0 L 3.203125 0 L 4.109375 -3.59375 L 1.375 -3.59375 L 1.375 -4.9375 L 4.4375 -4.9375 L 5.171875 -7.84375 L 2.359375 -7.84375 L 2.359375 -9.171875 L 5.5 -9.171875 L 6.390625 -12.78125 Z M 7.796875 -12.78125 "/>
</symbol>
<symbol overflow="visible" id="glyph12-2">
<path style="stroke:none;" d="M 2.203125 -1.484375 L 5.078125 -1.484375 L 5.078125 -11.390625 L 1.953125 -10.765625 L 1.953125 -12.359375 L 5.0625 -12.984375 L 6.8125 -12.984375 L 6.8125 -1.484375 L 9.6875 -1.484375 L 9.6875 0 L 2.203125 0 Z M 2.203125 -1.484375 "/>
</symbol>
<symbol overflow="visible" id="glyph13-0">
<path style="stroke:none;" d="M 0.875 3.078125 L 0.875 -12.3125 L 9.59375 -12.3125 L 9.59375 3.078125 Z M 1.84375 2.109375 L 8.625 2.109375 L 8.625 -11.328125 L 1.84375 -11.328125 Z M 1.84375 2.109375 "/>
</symbol>
<symbol overflow="visible" id="glyph13-1">
<path style="stroke:none;" d="M 8.921875 -7.671875 L 6.4375 -7.671875 L 5.734375 -4.828125 L 8.21875 -4.828125 Z M 7.640625 -12.53125 L 6.765625 -8.984375 L 9.25 -8.984375 L 10.140625 -12.53125 L 11.5 -12.53125 L 10.625 -8.984375 L 13.28125 -8.984375 L 13.28125 -7.671875 L 10.296875 -7.671875 L 9.59375 -4.828125 L 12.3125 -4.828125 L 12.3125 -3.53125 L 9.265625 -3.53125 L 8.375 0 L 7.015625 0 L 7.890625 -3.53125 L 5.390625 -3.53125 L 4.515625 0 L 3.140625 0 L 4.03125 -3.53125 L 1.34375 -3.53125 L 1.34375 -4.828125 L 4.34375 -4.828125 L 5.0625 -7.671875 L 2.3125 -7.671875 L 2.3125 -8.984375 L 5.390625 -8.984375 L 6.265625 -12.53125 Z M 7.640625 -12.53125 "/>
</symbol>
<symbol overflow="visible" id="glyph13-2">
<path style="stroke:none;" d="M 2.171875 -1.453125 L 4.984375 -1.453125 L 4.984375 -11.15625 L 1.921875 -10.546875 L 1.921875 -12.109375 L 4.953125 -12.71875 L 6.6875 -12.71875 L 6.6875 -1.453125 L 9.5 -1.453125 L 9.5 0 L 2.171875 0 Z M 2.171875 -1.453125 "/>
</symbol>
<symbol overflow="visible" id="glyph13-3">
<path style="stroke:none;" d="M 6.59375 -11.21875 L 2.25 -4.4375 L 6.59375 -4.4375 Z M 6.140625 -12.71875 L 8.3125 -12.71875 L 8.3125 -4.4375 L 10.125 -4.4375 L 10.125 -3 L 8.3125 -3 L 8.3125 0 L 6.59375 0 L 6.59375 -3 L 0.859375 -3 L 0.859375 -4.65625 Z M 6.140625 -12.71875 "/>
</symbol>
<symbol overflow="visible" id="glyph13-4">
<path style="stroke:none;" d="M 1.890625 -12.71875 L 8.640625 -12.71875 L 8.640625 -11.28125 L 3.453125 -11.28125 L 3.453125 -8.15625 C 3.703125 -8.238281 3.953125 -8.300781 4.203125 -8.34375 C 4.453125 -8.382812 4.703125 -8.40625 4.953125 -8.40625 C 6.378906 -8.40625 7.503906 -8.015625 8.328125 -7.234375 C 9.160156 -6.460938 9.578125 -5.410156 9.578125 -4.078125 C 9.578125 -2.710938 9.148438 -1.648438 8.296875 -0.890625 C 7.441406 -0.128906 6.242188 0.25 4.703125 0.25 C 4.160156 0.25 3.613281 0.203125 3.0625 0.109375 C 2.507812 0.015625 1.9375 -0.117188 1.34375 -0.296875 L 1.34375 -2.03125 C 1.851562 -1.75 2.378906 -1.539062 2.921875 -1.40625 C 3.472656 -1.269531 4.050781 -1.203125 4.65625 -1.203125 C 5.644531 -1.203125 6.425781 -1.457031 7 -1.96875 C 7.570312 -2.488281 7.859375 -3.191406 7.859375 -4.078125 C 7.859375 -4.960938 7.570312 -5.664062 7 -6.1875 C 6.425781 -6.707031 5.644531 -6.96875 4.65625 -6.96875 C 4.195312 -6.96875 3.738281 -6.914062 3.28125 -6.8125 C 2.820312 -6.707031 2.359375 -6.546875 1.890625 -6.328125 Z M 1.890625 -12.71875 "/>
</symbol>
<symbol overflow="visible" id="glyph13-5">
<path style="stroke:none;" d="M 3.34375 -1.453125 L 9.359375 -1.453125 L 9.359375 0 L 1.28125 0 L 1.28125 -1.453125 C 1.9375 -2.128906 2.828125 -3.035156 3.953125 -4.171875 C 5.078125 -5.304688 5.785156 -6.039062 6.078125 -6.375 C 6.628906 -6.988281 7.015625 -7.507812 7.234375 -7.9375 C 7.453125 -8.375 7.5625 -8.800781 7.5625 -9.21875 C 7.5625 -9.882812 7.320312 -10.429688 6.84375 -10.859375 C 6.375 -11.285156 5.757812 -11.5 5 -11.5 C 4.457031 -11.5 3.882812 -11.40625 3.28125 -11.21875 C 2.6875 -11.03125 2.046875 -10.75 1.359375 -10.375 L 1.359375 -12.109375 C 2.054688 -12.390625 2.703125 -12.597656 3.296875 -12.734375 C 3.898438 -12.878906 4.453125 -12.953125 4.953125 -12.953125 C 6.273438 -12.953125 7.328125 -12.617188 8.109375 -11.953125 C 8.890625 -11.296875 9.28125 -10.421875 9.28125 -9.328125 C 9.28125 -8.804688 9.179688 -8.3125 8.984375 -7.84375 C 8.796875 -7.375 8.441406 -6.816406 7.921875 -6.171875 C 7.785156 -6.015625 7.332031 -5.539062 6.5625 -4.75 C 5.800781 -3.96875 4.726562 -2.867188 3.34375 -1.453125 Z M 3.34375 -1.453125 "/>
</symbol>
<symbol overflow="visible" id="glyph14-0">
<path style="stroke:none;" d="M 1.84375 6.546875 L 1.84375 -26.09375 L 20.34375 -26.09375 L 20.34375 6.546875 Z M 3.921875 4.484375 L 18.28125 4.484375 L 18.28125 -24.015625 L 3.921875 -24.015625 Z M 3.921875 4.484375 "/>
</symbol>
<symbol overflow="visible" id="glyph14-1">
<path style="stroke:none;" d="M 12.640625 -23.375 L 7.703125 -9.953125 L 17.609375 -9.953125 Z M 10.59375 -26.96875 L 14.71875 -26.96875 L 25 0 L 21.203125 0 L 18.75 -6.921875 L 6.59375 -6.921875 L 4.140625 0 L 0.296875 0 Z M 10.59375 -26.96875 "/>
</symbol>
<symbol overflow="visible" id="glyph15-0">
<path style="stroke:none;" d="M 1.390625 4.953125 L 1.390625 -19.75 L 15.390625 -19.75 L 15.390625 4.953125 Z M 2.96875 3.390625 L 13.84375 3.390625 L 13.84375 -18.171875 L 2.96875 -18.171875 Z M 2.96875 3.390625 "/>
</symbol>
<symbol overflow="visible" id="glyph15-1">
<path style="stroke:none;" d="M 16.671875 -2.90625 L 16.671875 -8.390625 L 12.15625 -8.390625 L 12.15625 -10.671875 L 19.40625 -10.671875 L 19.40625 -1.90625 C 18.332031 -1.144531 17.15625 -0.570312 15.875 -0.1875 C 14.59375 0.195312 13.222656 0.390625 11.765625 0.390625 C 8.566406 0.390625 6.066406 -0.539062 4.265625 -2.40625 C 2.472656 -4.269531 1.578125 -6.863281 1.578125 -10.1875 C 1.578125 -13.519531 2.472656 -16.117188 4.265625 -17.984375 C 6.066406 -19.847656 8.566406 -20.78125 11.765625 -20.78125 C 13.085938 -20.78125 14.347656 -20.613281 15.546875 -20.28125 C 16.742188 -19.957031 17.851562 -19.476562 18.875 -18.84375 L 18.875 -15.90625 C 17.851562 -16.769531 16.765625 -17.421875 15.609375 -17.859375 C 14.460938 -18.296875 13.253906 -18.515625 11.984375 -18.515625 C 9.492188 -18.515625 7.617188 -17.816406 6.359375 -16.421875 C 5.109375 -15.023438 4.484375 -12.945312 4.484375 -10.1875 C 4.484375 -7.4375 5.109375 -5.363281 6.359375 -3.96875 C 7.617188 -2.570312 9.492188 -1.875 11.984375 -1.875 C 12.960938 -1.875 13.832031 -1.957031 14.59375 -2.125 C 15.363281 -2.289062 16.054688 -2.550781 16.671875 -2.90625 Z M 16.671875 -2.90625 "/>
</symbol>
<symbol overflow="visible" id="glyph16-0">
<path style="stroke:none;" d="M 1.015625 3.625 L 1.015625 -14.453125 L 11.265625 -14.453125 L 11.265625 3.625 Z M 2.171875 2.484375 L 10.125 2.484375 L 10.125 -13.296875 L 2.171875 -13.296875 Z M 2.171875 2.484375 "/>
</symbol>
<symbol overflow="visible" id="glyph16-1">
<path style="stroke:none;" d="M 2.015625 -14.9375 L 10.59375 -14.9375 L 10.59375 -13.25 L 4.03125 -13.25 L 4.03125 -8.84375 L 9.953125 -8.84375 L 9.953125 -7.140625 L 4.03125 -7.140625 L 4.03125 0 L 2.015625 0 Z M 2.015625 -14.9375 "/>
</symbol>
<symbol overflow="visible" id="glyph16-2">
<path style="stroke:none;" d="M 2.015625 -14.9375 L 11.46875 -14.9375 L 11.46875 -13.25 L 4.03125 -13.25 L 4.03125 -8.8125 L 11.15625 -8.8125 L 11.15625 -7.109375 L 4.03125 -7.109375 L 4.03125 -1.703125 L 11.640625 -1.703125 L 11.640625 0 L 2.015625 0 Z M 2.015625 -14.9375 "/>
</symbol>
<symbol overflow="visible" id="glyph16-3">
<path style="stroke:none;" d="M 1 -6.4375 L 6.390625 -6.4375 L 6.390625 -4.796875 L 1 -4.796875 Z M 1 -6.4375 "/>
</symbol>
<symbol overflow="visible" id="glyph16-4">
<path style="stroke:none;" d="M 7.03125 -5.640625 C 5.539062 -5.640625 4.507812 -5.46875 3.9375 -5.125 C 3.363281 -4.78125 3.078125 -4.203125 3.078125 -3.390625 C 3.078125 -2.734375 3.289062 -2.210938 3.71875 -1.828125 C 4.144531 -1.441406 4.726562 -1.25 5.46875 -1.25 C 6.488281 -1.25 7.304688 -1.609375 7.921875 -2.328125 C 8.546875 -3.054688 8.859375 -4.019531 8.859375 -5.21875 L 8.859375 -5.640625 Z M 10.703125 -6.390625 L 10.703125 0 L 8.859375 0 L 8.859375 -1.703125 C 8.441406 -1.023438 7.914062 -0.519531 7.28125 -0.1875 C 6.65625 0.132812 5.890625 0.296875 4.984375 0.296875 C 3.835938 0.296875 2.925781 -0.0234375 2.25 -0.671875 C 1.570312 -1.316406 1.234375 -2.179688 1.234375 -3.265625 C 1.234375 -4.523438 1.65625 -5.472656 2.5 -6.109375 C 3.34375 -6.753906 4.601562 -7.078125 6.28125 -7.078125 L 8.859375 -7.078125 L 8.859375 -7.25 C 8.859375 -8.101562 8.578125 -8.757812 8.015625 -9.21875 C 7.460938 -9.6875 6.679688 -9.921875 5.671875 -9.921875 C 5.035156 -9.921875 4.410156 -9.84375 3.796875 -9.6875 C 3.191406 -9.53125 2.609375 -9.300781 2.046875 -9 L 2.046875 -10.703125 C 2.722656 -10.960938 3.378906 -11.15625 4.015625 -11.28125 C 4.648438 -11.414062 5.265625 -11.484375 5.859375 -11.484375 C 7.484375 -11.484375 8.695312 -11.0625 9.5 -10.21875 C 10.300781 -9.375 10.703125 -8.097656 10.703125 -6.390625 Z M 10.703125 -6.390625 "/>
</symbol>
<symbol overflow="visible" id="glyph16-5">
<path style="stroke:none;" d="M 3.75 -14.390625 L 3.75 -11.21875 L 7.546875 -11.21875 L 7.546875 -9.78125 L 3.75 -9.78125 L 3.75 -3.6875 C 3.75 -2.78125 3.875 -2.195312 4.125 -1.9375 C 4.375 -1.675781 4.882812 -1.546875 5.65625 -1.546875 L 7.546875 -1.546875 L 7.546875 0 L 5.65625 0 C 4.238281 0 3.257812 -0.265625 2.71875 -0.796875 C 2.175781 -1.328125 1.90625 -2.289062 1.90625 -3.6875 L 1.90625 -9.78125 L 0.546875 -9.78125 L 0.546875 -11.21875 L 1.90625 -11.21875 L 1.90625 -14.390625 Z M 3.75 -14.390625 "/>
</symbol>
<symbol overflow="visible" id="glyph17-0">
<path style="stroke:none;" d="M 1.46875 5.21875 L 1.46875 -20.796875 L 16.21875 -20.796875 L 16.21875 5.21875 Z M 3.125 3.578125 L 14.578125 3.578125 L 14.578125 -19.140625 L 3.125 -19.140625 Z M 3.125 3.578125 "/>
</symbol>
<symbol overflow="visible" id="glyph17-1">
<path style="stroke:none;" d="M 2.890625 -21.5 L 16.5 -21.5 L 16.5 -19.0625 L 5.8125 -19.0625 L 5.8125 -12.6875 L 16.046875 -12.6875 L 16.046875 -10.234375 L 5.8125 -10.234375 L 5.8125 -2.453125 L 16.75 -2.453125 L 16.75 0 L 2.890625 0 Z M 2.890625 -21.5 "/>
</symbol>
<symbol overflow="visible" id="glyph18-0">
<path style="stroke:none;" d="M 1.25 4.421875 L 1.25 -17.625 L 13.75 -17.625 L 13.75 4.421875 Z M 2.65625 3.03125 L 12.359375 3.03125 L 12.359375 -16.21875 L 2.65625 -16.21875 Z M 2.65625 3.03125 "/>
</symbol>
<symbol overflow="visible" id="glyph18-1">
<path style="stroke:none;" d="M 16.09375 -16.828125 L 16.09375 -14.21875 C 15.269531 -14.988281 14.382812 -15.566406 13.4375 -15.953125 C 12.5 -16.335938 11.503906 -16.53125 10.453125 -16.53125 C 8.367188 -16.53125 6.769531 -15.890625 5.65625 -14.609375 C 4.550781 -13.335938 4 -11.5 4 -9.09375 C 4 -6.695312 4.550781 -4.859375 5.65625 -3.578125 C 6.769531 -2.304688 8.367188 -1.671875 10.453125 -1.671875 C 11.503906 -1.671875 12.5 -1.859375 13.4375 -2.234375 C 14.382812 -2.617188 15.269531 -3.203125 16.09375 -3.984375 L 16.09375 -1.40625 C 15.238281 -0.820312 14.328125 -0.378906 13.359375 -0.078125 C 12.398438 0.210938 11.378906 0.359375 10.296875 0.359375 C 7.546875 0.359375 5.375 -0.484375 3.78125 -2.171875 C 2.195312 -3.867188 1.40625 -6.175781 1.40625 -9.09375 C 1.40625 -12.019531 2.195312 -14.328125 3.78125 -16.015625 C 5.375 -17.710938 7.546875 -18.5625 10.296875 -18.5625 C 11.390625 -18.5625 12.414062 -18.414062 13.375 -18.125 C 14.34375 -17.832031 15.25 -17.398438 16.09375 -16.828125 Z M 16.09375 -16.828125 "/>
</symbol>
<symbol overflow="visible" id="glyph19-0">
<path style="stroke:none;" d="M 1.015625 3.625 L 1.015625 -14.453125 L 11.265625 -14.453125 L 11.265625 3.625 Z M 2.171875 2.484375 L 10.125 2.484375 L 10.125 -13.296875 L 2.171875 -13.296875 Z M 2.171875 2.484375 "/>
</symbol>
<symbol overflow="visible" id="glyph19-1">
<path style="stroke:none;" d="M 5.859375 -15.578125 L 10.984375 -15.578125 L 10.984375 0 L 9.140625 0 L 9.140625 -14.046875 L 5.84375 -14.046875 C 5.1875 -14.046875 4.726562 -13.910156 4.46875 -13.640625 C 4.207031 -13.378906 4.078125 -12.898438 4.078125 -12.203125 L 4.078125 -11.21875 L 7.109375 -11.21875 L 7.109375 -9.78125 L 4.078125 -9.78125 L 4.078125 0 L 2.234375 0 L 2.234375 -9.78125 L 0.46875 -9.78125 L 0.46875 -11.21875 L 2.234375 -11.21875 L 2.234375 -11.984375 C 2.234375 -13.234375 2.519531 -14.144531 3.09375 -14.71875 C 3.675781 -15.289062 4.597656 -15.578125 5.859375 -15.578125 Z M 5.859375 -15.578125 "/>
</symbol>
</g>
<clipPath id="clip1">
  <path d="M 36 36 L 2056 36 L 2056 1085.769531 L 36 1085.769531 Z M 36 36 "/>
</clipPath>
<clipPath id="clip2">
  <path d="M 601 36 L 1135 36 L 1135 440 L 601 440 Z M 601 36 "/>
</clipPath>
</defs>
<g id="surface1">
<g clip-path="url(#clip1)" clip-rule="nonzero">
<path style=" stroke:none;fill-rule:nonzero;fill:rgb(97.253418%,97.253418%,97.253418%);fill-opacity:1;" d="M 36 36 L 2056 36 L 2056 1085.769531 L 36 1085.769531 Z M 36 36 "/>
</g>
<g style="fill:rgb(0%,0%,0%);fill-opacity:1;">
  <use xlink:href="#glyph0-1" x="120.5" y="942.769531"/>
</g>
<g style="fill:rgb(0%,0%,0%);fill-opacity:1;">
  <use xlink:href="#glyph0-2" x="145.979845" y="942.769531"/>
  <use xlink:href="#glyph0-3" x="161.659749" y="942.769531"/>
</g>
<g style="fill:rgb(0%,0%,0%);fill-opacity:1;">
  <use xlink:href="#glyph0-4" x="178.219648" y="942.769531"/>
</g>
<g style="fill:rgb(0%,0%,0%);fill-opacity:1;">
  <use xlink:href="#glyph0-5" x="189.41958" y="942.769531"/>
</g>
<g style="fill:rgb(0%,0%,0%);fill-opacity:1;">
  <use xlink:href="#glyph0-6" x="214.899424" y="942.769531"/>
</g>
<g style="fill:rgb(0%,0%,0%);fill-opacity:1;">
  <use xlink:href="#glyph0-7" x="495.499992" y="489.769534"/>
  <use xlink:href="#glyph0-8" x="526.9798" y="489.769534"/>
</g>
<g style="fill:rgb(0%,0%,0%);fill-opacity:1;">
  <use xlink:href="#glyph0-9" x="552.459645" y="489.769534"/>
</g>
<g style="fill:rgb(0%,0%,0%);fill-opacity:1;">
  <use xlink:href="#glyph0-3" x="577.179494" y="489.769534"/>
  <use xlink:href="#glyph0-2" x="593.619394" y="489.769534"/>
</g>
<g style="fill:rgb(0%,0%,0%);fill-opacity:1;">
  <use xlink:href="#glyph0-10" x="609.419298" y="489.769534"/>
</g>
<g style="fill:rgb(0%,0%,0%);fill-opacity:1;">
  <use xlink:href="#glyph0-2" x="634.179147" y="489.769534"/>
</g>
<path style="fill:none;stroke-width:1;stroke-linecap:butt;stroke-linejoin:miter;stroke:rgb(66.665649%,66.665649%,66.665649%);stroke-opacity:1;stroke-miterlimit:10;" d="M 249.5 932.769531 C 476.929688 932.769531 260.070312 479.769531 487.5 479.769531 "/>
<g style="fill:rgb(0%,0%,0%);fill-opacity:1;">
  <use xlink:href="#glyph1-1" x="539.5" y="106.390625"/>
</g>
<g style="fill:rgb(0%,0%,0%);fill-opacity:1;">
  <use xlink:href="#glyph1-2" x="553.744653" y="106.390625"/>
</g>
<g style="fill:rgb(0%,0%,0%);fill-opacity:1;">
  <use xlink:href="#glyph1-3" x="564.988574" y="106.390625"/>
</g>
<g style="fill:rgb(0%,0%,0%);fill-opacity:1;">
  <use xlink:href="#glyph1-4" x="570.213379" y="106.390625"/>
</g>
<g style="fill:rgb(0%,0%,0%);fill-opacity:1;">
  <use xlink:href="#glyph1-5" x="581.457299" y="106.390625"/>
</g>
<g style="fill:rgb(0%,0%,0%);fill-opacity:1;">
  <use xlink:href="#glyph1-6" x="588.200122" y="106.390625"/>
</g>
<g style="fill:rgb(0%,0%,0%);fill-opacity:1;">
  <use xlink:href="#glyph1-5" x="598.702685" y="106.390625"/>
</g>
<path style="fill:none;stroke-width:1;stroke-linecap:butt;stroke-linejoin:miter;stroke:rgb(66.665649%,66.665649%,66.665649%);stroke-opacity:1;stroke-miterlimit:10;" d="M 249.5 932.769531 C 639.304688 932.769531 140.195312 101.769531 530 101.769531 "/>
<g style="fill:rgb(0%,0%,0%);fill-opacity:1;">
  <use xlink:href="#glyph2-1" x="1110.5" y="836.972656"/>
  <use xlink:href="#glyph2-2" x="1123.981218" y="836.972656"/>
</g>
<g style="fill:rgb(0%,0%,0%);fill-opacity:1;">
  <use xlink:href="#glyph2-3" x="1134.481836" y="836.972656"/>
  <use xlink:href="#glyph2-4" x="1144.965325" y="836.972656"/>
</g>
<g style="fill:rgb(0%,0%,0%);fill-opacity:1;">
  <use xlink:href="#glyph2-5" x="1151.714498" y="836.972656"/>
  <use xlink:href="#glyph2-6" x="1158.429413" y="836.972656"/>
  <use xlink:href="#glyph2-5" x="1168.964291" y="836.972656"/>
  <use xlink:href="#glyph2-7" x="1175.679205" y="836.972656"/>
</g>
<path style="fill:none;stroke-width:1;stroke-linecap:butt;stroke-linejoin:miter;stroke:rgb(66.665649%,66.665649%,66.665649%);stroke-opacity:1;stroke-miterlimit:10;" d="M 249.5 932.769531 C 403.226562 932.769531 789.390625 921.578125 940 890.769531 C 1015.128906 875.398438 1025.816406 832.769531 1102.5 832.769531 "/>
<g style="fill:rgb(0%,0%,0%);fill-opacity:1;">
  <use xlink:href="#glyph3-1" x="545.5" y="959.984375"/>
  <use xlink:href="#glyph3-2" x="555.974466" y="959.984375"/>
</g>
<g style="fill:rgb(0%,0%,0%);fill-opacity:1;">
  <use xlink:href="#glyph3-3" x="565.738519" y="959.984375"/>
  <use xlink:href="#glyph3-4" x="575.502572" y="959.984375"/>
</g>
<g style="fill:rgb(0%,0%,0%);fill-opacity:1;">
  <use xlink:href="#glyph3-2" x="582.226717" y="959.984375"/>
</g>
<g style="fill:rgb(0%,0%,0%);fill-opacity:1;">
  <use xlink:href="#glyph3-4" x="592.717704" y="959.984375"/>
</g>
<path style="fill:none;stroke-width:1;stroke-linecap:butt;stroke-linejoin:miter;stroke:rgb(66.665649%,66.665649%,66.665649%);stroke-opacity:1;stroke-miterlimit:10;" d="M 249.5 932.769531 C 377.242188 932.769531 408.257812 955.769531 536 955.769531 "/>
<g style="fill:rgb(0%,0%,0%);fill-opacity:1;">
  <use xlink:href="#glyph4-1" x="558.5" y="1013.917969"/>
</g>
<g style="fill:rgb(0%,0%,0%);fill-opacity:1;">
  <use xlink:href="#glyph4-2" x="565.994275" y="1013.917969"/>
  <use xlink:href="#glyph4-3" x="572.748984" y="1013.917969"/>
</g>
<g style="fill:rgb(0%,0%,0%);fill-opacity:1;">
  <use xlink:href="#glyph4-4" x="577.219253" y="1013.917969"/>
</g>
<path style="fill:none;stroke-width:1;stroke-linecap:butt;stroke-linejoin:miter;stroke:rgb(66.665649%,66.665649%,66.665649%);stroke-opacity:1;stroke-miterlimit:10;" d="M 249.5 932.769531 C 385.21875 932.769531 409.28125 1009.769531 545 1009.769531 "/>
<g style="fill:rgb(0%,0%,0%);fill-opacity:1;">
  <use xlink:href="#glyph5-1" x="542.5" y="1067.777344"/>
</g>
<g style="fill:rgb(0%,0%,0%);fill-opacity:1;">
  <use xlink:href="#glyph5-2" x="552.988021" y="1067.777344"/>
</g>
<g style="fill:rgb(0%,0%,0%);fill-opacity:1;">
  <use xlink:href="#glyph5-3" x="563.476042" y="1067.777344"/>
</g>
<g style="fill:rgb(0%,0%,0%);fill-opacity:1;">
  <use xlink:href="#glyph5-4" x="573.216081" y="1067.777344"/>
</g>
<g style="fill:rgb(0%,0%,0%);fill-opacity:1;">
  <use xlink:href="#glyph5-5" x="579.964187" y="1067.777344"/>
</g>
<g style="fill:rgb(0%,0%,0%);fill-opacity:1;">
  <use xlink:href="#glyph5-6" x="586.712294" y="1067.777344"/>
</g>
<g style="fill:rgb(0%,0%,0%);fill-opacity:1;">
  <use xlink:href="#glyph5-5" x="596.452332" y="1067.777344"/>
</g>
<path style="fill:none;stroke-width:1;stroke-linecap:butt;stroke-linejoin:miter;stroke:rgb(66.665649%,66.665649%,66.665649%);stroke-opacity:1;stroke-miterlimit:10;" d="M 249.5 932.769531 C 388.300781 932.769531 394.199219 1063.769531 533 1063.769531 "/>
<g style="fill:rgb(0%,0%,0%);fill-opacity:1;">
  <use xlink:href="#glyph0-11" x="872" y="111.769531"/>
</g>
<g style="fill:rgb(0%,0%,0%);fill-opacity:1;">
  <use xlink:href="#glyph0-12" x="905.719794" y="111.769531"/>
</g>
<path style="fill:none;stroke-width:1;stroke-linecap:butt;stroke-linejoin:miter;stroke:rgb(66.665649%,66.665649%,66.665649%);stroke-opacity:1;stroke-miterlimit:10;" d="M 658.5 479.769531 C 849.722656 479.769531 672.777344 101.769531 864 101.769531 "/>
<g style="fill:rgb(0%,0%,0%);fill-opacity:1;">
  <use xlink:href="#glyph0-4" x="1129.5" y="435.769531"/>
</g>
<g style="fill:rgb(0%,0%,0%);fill-opacity:1;">
  <use xlink:href="#glyph0-5" x="1140.699932" y="435.769531"/>
</g>
<path style="fill:none;stroke-width:1;stroke-linecap:butt;stroke-linejoin:miter;stroke:rgb(66.665649%,66.665649%,66.665649%);stroke-opacity:1;stroke-miterlimit:10;" d="M 658.5 479.769531 C 756.671875 479.769531 767.550781 417.089844 864 398.769531 C 976.398438 377.417969 1005.589844 425.769531 1120 425.769531 "/>
<g style="fill:rgb(0%,0%,0%);fill-opacity:1;">
  <use xlink:href="#glyph0-13" x="1938" y="435.769531"/>
</g>
<g style="fill:rgb(0%,0%,0%);fill-opacity:1;">
  <use xlink:href="#glyph0-14" x="1962.719849" y="435.769531"/>
</g>
<g style="fill:rgb(0%,0%,0%);fill-opacity:1;">
  <use xlink:href="#glyph0-15" x="1988.199694" y="435.769531"/>
</g>
<path style="fill:none;stroke-width:1;stroke-linecap:butt;stroke-linejoin:miter;stroke:rgb(66.665649%,66.665649%,66.665649%);stroke-opacity:1;stroke-miterlimit:10;" d="M 658.5 479.769531 C 863.523438 479.769531 689.703125 174.726562 864 66.769531 C 902.320312 43.035156 1024.5 88.503906 1147 101.769531 "/>
<g style="fill:rgb(0%,0%,0%);fill-opacity:1;">
  <use xlink:href="#glyph6-1" x="878.5" y="868.785156"/>
  <use xlink:href="#glyph6-2" x="904.674846" y="868.785156"/>
</g>
<path style="fill:none;stroke-width:1;stroke-linecap:butt;stroke-linejoin:miter;stroke:rgb(66.665649%,66.665649%,66.665649%);stroke-opacity:1;stroke-miterlimit:10;" d="M 658.5 479.769531 C 851.960938 479.769531 675.539062 860.769531 869 860.769531 "/>
<g style="fill:rgb(0%,0%,0%);fill-opacity:1;">
  <use xlink:href="#glyph7-1" x="879" y="174.203125"/>
</g>
<g style="fill:rgb(0%,0%,0%);fill-opacity:1;">
  <use xlink:href="#glyph7-2" x="904.474465" y="174.203125"/>
</g>
<path style="fill:none;stroke-width:1;stroke-linecap:butt;stroke-linejoin:miter;stroke:rgb(66.665649%,66.665649%,66.665649%);stroke-opacity:1;stroke-miterlimit:10;" d="M 658.5 479.769531 C 826.390625 479.769531 702.109375 166.769531 870 166.769531 "/>
<g style="fill:rgb(0%,0%,0%);fill-opacity:1;">
  <use xlink:href="#glyph8-1" x="882.5" y="231.214844"/>
</g>
<g style="fill:rgb(0%,0%,0%);fill-opacity:1;">
  <use xlink:href="#glyph8-2" x="904.230965" y="231.214844"/>
</g>
<path style="fill:none;stroke-width:1;stroke-linecap:butt;stroke-linejoin:miter;stroke:rgb(66.665649%,66.665649%,66.665649%);stroke-opacity:1;stroke-miterlimit:10;" d="M 658.5 479.769531 C 806.597656 479.769531 724.902344 224.769531 873 224.769531 "/>
<g style="fill:rgb(0%,0%,0%);fill-opacity:1;">
  <use xlink:href="#glyph9-1" x="885" y="431.304688"/>
</g>
<g style="fill:rgb(0%,0%,0%);fill-opacity:1;">
  <use xlink:href="#glyph9-2" x="903.734627" y="431.304688"/>
</g>
<path style="fill:none;stroke-width:1;stroke-linecap:butt;stroke-linejoin:miter;stroke:rgb(66.665649%,66.665649%,66.665649%);stroke-opacity:1;stroke-miterlimit:10;" d="M 658.5 479.769531 C 757.238281 479.769531 775.261719 425.769531 874 425.769531 "/>
<g style="fill:rgb(0%,0%,0%);fill-opacity:1;">
  <use xlink:href="#glyph10-1" x="887" y="484.769531"/>
</g>
<g style="fill:rgb(0%,0%,0%);fill-opacity:1;">
  <use xlink:href="#glyph10-2" x="903.480201" y="484.769531"/>
</g>
<path style="fill:none;stroke-width:1;stroke-linecap:butt;stroke-linejoin:miter;stroke:rgb(66.665649%,66.665649%,66.665649%);stroke-opacity:1;stroke-miterlimit:10;" d="M 658.5 479.769531 C 754.277344 479.769531 778.222656 479.769531 874 479.769531 "/>
<g style="fill:rgb(0%,0%,0%);fill-opacity:1;">
  <use xlink:href="#glyph11-1" x="883" y="538.3125"/>
</g>
<g style="fill:rgb(0%,0%,0%);fill-opacity:1;">
  <use xlink:href="#glyph11-2" x="897.981672" y="538.3125"/>
</g>
<g style="fill:rgb(0%,0%,0%);fill-opacity:1;">
  <use xlink:href="#glyph11-3" x="909.236108" y="538.3125"/>
</g>
<path style="fill:none;stroke-width:1;stroke-linecap:butt;stroke-linejoin:miter;stroke:rgb(66.665649%,66.665649%,66.665649%);stroke-opacity:1;stroke-miterlimit:10;" d="M 658.5 479.769531 C 757.238281 479.769531 775.261719 533.769531 874 533.769531 "/>
<g style="fill:rgb(0%,0%,0%);fill-opacity:1;">
  <use xlink:href="#glyph11-1" x="888.5" y="646.3125"/>
</g>
<g style="fill:rgb(0%,0%,0%);fill-opacity:1;">
  <use xlink:href="#glyph11-4" x="903.481672" y="646.3125"/>
</g>
<path style="fill:none;stroke-width:1;stroke-linecap:butt;stroke-linejoin:miter;stroke:rgb(66.665649%,66.665649%,66.665649%);stroke-opacity:1;stroke-miterlimit:10;" d="M 658.5 479.769531 C 778.324219 479.769531 754.175781 641.769531 874 641.769531 "/>
<g style="fill:rgb(0%,0%,0%);fill-opacity:1;">
  <use xlink:href="#glyph11-1" x="883" y="592.3125"/>
</g>
<g style="fill:rgb(0%,0%,0%);fill-opacity:1;">
  <use xlink:href="#glyph11-2" x="897.981672" y="592.3125"/>
</g>
<g style="fill:rgb(0%,0%,0%);fill-opacity:1;">
  <use xlink:href="#glyph11-5" x="909.236108" y="592.3125"/>
</g>
<path style="fill:none;stroke-width:1;stroke-linecap:butt;stroke-linejoin:miter;stroke:rgb(66.665649%,66.665649%,66.665649%);stroke-opacity:1;stroke-miterlimit:10;" d="M 658.5 479.769531 C 765.632812 479.769531 766.867188 587.769531 874 587.769531 "/>
<g style="fill:rgb(0%,0%,0%);fill-opacity:1;">
  <use xlink:href="#glyph11-1" x="888.5" y="700.3125"/>
</g>
<g style="fill:rgb(0%,0%,0%);fill-opacity:1;">
  <use xlink:href="#glyph11-6" x="903.481672" y="700.3125"/>
</g>
<path style="fill:none;stroke-width:1;stroke-linecap:butt;stroke-linejoin:miter;stroke:rgb(66.665649%,66.665649%,66.665649%);stroke-opacity:1;stroke-miterlimit:10;" d="M 658.5 479.769531 C 794.109375 479.769531 738.390625 695.769531 874 695.769531 "/>
<g style="fill:rgb(0%,0%,0%);fill-opacity:1;">
  <use xlink:href="#glyph12-1" x="883" y="754.023438"/>
</g>
<g style="fill:rgb(0%,0%,0%);fill-opacity:1;">
  <use xlink:href="#glyph12-2" x="897.984624" y="754.023438"/>
</g>
<g style="fill:rgb(0%,0%,0%);fill-opacity:1;">
  <use xlink:href="#glyph12-2" x="909.227547" y="754.023438"/>
</g>
<path style="fill:none;stroke-width:1;stroke-linecap:butt;stroke-linejoin:miter;stroke:rgb(66.665649%,66.665649%,66.665649%);stroke-opacity:1;stroke-miterlimit:10;" d="M 658.5 479.769531 C 812.035156 479.769531 720.464844 749.769531 874 749.769531 "/>
<g style="fill:rgb(0%,0%,0%);fill-opacity:1;">
  <use xlink:href="#glyph13-1" x="883.5" y="808.230469"/>
</g>
<g style="fill:rgb(0%,0%,0%);fill-opacity:1;">
  <use xlink:href="#glyph13-2" x="897.742746" y="808.230469"/>
</g>
<g style="fill:rgb(0%,0%,0%);fill-opacity:1;">
  <use xlink:href="#glyph13-3" x="908.983345" y="808.230469"/>
</g>
<path style="fill:none;stroke-width:1;stroke-linecap:butt;stroke-linejoin:miter;stroke:rgb(66.665649%,66.665649%,66.665649%);stroke-opacity:1;stroke-miterlimit:10;" d="M 658.5 479.769531 C 831.441406 479.769531 701.058594 803.769531 874 803.769531 "/>
<g style="fill:rgb(0%,0%,0%);fill-opacity:1;">
  <use xlink:href="#glyph13-1" x="883.5" y="284.230469"/>
</g>
<g style="fill:rgb(0%,0%,0%);fill-opacity:1;">
  <use xlink:href="#glyph13-2" x="897.742746" y="284.230469"/>
</g>
<g style="fill:rgb(0%,0%,0%);fill-opacity:1;">
  <use xlink:href="#glyph13-4" x="908.983345" y="284.230469"/>
</g>
<path style="fill:none;stroke-width:1;stroke-linecap:butt;stroke-linejoin:miter;stroke:rgb(66.665649%,66.665649%,66.665649%);stroke-opacity:1;stroke-miterlimit:10;" d="M 658.5 479.769531 C 789.167969 479.769531 743.332031 279.769531 874 279.769531 "/>
<g style="fill:rgb(0%,0%,0%);fill-opacity:1;">
  <use xlink:href="#glyph13-1" x="883.5" y="338.230469"/>
</g>
<g style="fill:rgb(0%,0%,0%);fill-opacity:1;">
  <use xlink:href="#glyph13-2" x="897.742746" y="338.230469"/>
</g>
<g style="fill:rgb(0%,0%,0%);fill-opacity:1;">
  <use xlink:href="#glyph13-5" x="908.983345" y="338.230469"/>
</g>
<path style="fill:none;stroke-width:1;stroke-linecap:butt;stroke-linejoin:miter;stroke:rgb(66.665649%,66.665649%,66.665649%);stroke-opacity:1;stroke-miterlimit:10;" d="M 658.5 479.769531 C 774.1875 479.769531 758.3125 333.769531 874 333.769531 "/>
<path style="fill:none;stroke-width:1;stroke-linecap:butt;stroke-linejoin:miter;stroke:rgb(66.665649%,66.665649%,66.665649%);stroke-opacity:1;stroke-miterlimit:10;" d="M 940 101.769531 C 1104.730469 101.769531 955.269531 425.769531 1120 425.769531 "/>
<path style="fill:none;stroke-width:1;stroke-linecap:butt;stroke-linejoin:miter;stroke:rgb(66.665649%,66.665649%,66.665649%);stroke-opacity:1;stroke-miterlimit:10;" d="M 940 101.769531 C 1032 101.769531 1055.535156 91.863281 1147 101.769531 "/>
<g style="fill:rgb(0%,0%,0%);fill-opacity:1;">
  <use xlink:href="#glyph14-1" x="1376" y="340.867188"/>
</g>
<path style="fill:none;stroke-width:1;stroke-linecap:butt;stroke-linejoin:miter;stroke:rgb(66.665649%,66.665649%,66.665649%);stroke-opacity:1;stroke-miterlimit:10;" d="M 1176 425.769531 C 1268.226562 425.769531 1268.773438 331.769531 1361 331.769531 "/>
<g style="fill:rgb(0%,0%,0%);fill-opacity:1;">
  <use xlink:href="#glyph15-1" x="1378" y="400.667969"/>
</g>
<path style="fill:none;stroke-width:1;stroke-linecap:butt;stroke-linejoin:miter;stroke:rgb(66.665649%,66.665649%,66.665649%);stroke-opacity:1;stroke-miterlimit:10;" d="M 1176 425.769531 C 1259.441406 425.769531 1277.558594 393.769531 1361 393.769531 "/>
<g style="fill:rgb(0%,0%,0%);fill-opacity:1;">
  <use xlink:href="#glyph0-16" x="1373.5" y="467.769531"/>
</g>
<path style="fill:none;stroke-width:1;stroke-linecap:butt;stroke-linejoin:miter;stroke:rgb(66.665649%,66.665649%,66.665649%);stroke-opacity:1;stroke-miterlimit:10;" d="M 1176 425.769531 C 1259.441406 425.769531 1277.558594 457.769531 1361 457.769531 "/>
<g style="fill:rgb(0%,0%,0%);fill-opacity:1;">
  <use xlink:href="#glyph16-1" x="1382.5" y="636.667969"/>
</g>
<path style="fill:none;stroke-width:1;stroke-linecap:butt;stroke-linejoin:miter;stroke:rgb(66.665649%,66.665649%,66.665649%);stroke-opacity:1;stroke-miterlimit:10;" d="M 1176 425.769531 C 1299.054688 425.769531 1237.945312 631.769531 1361 631.769531 "/>
<g style="fill:rgb(0%,0%,0%);fill-opacity:1;">
  <use xlink:href="#glyph17-1" x="1379.5" y="529.367188"/>
</g>
<path style="fill:none;stroke-width:1;stroke-linecap:butt;stroke-linejoin:miter;stroke:rgb(66.665649%,66.665649%,66.665649%);stroke-opacity:1;stroke-miterlimit:10;" d="M 1176 425.769531 C 1268.632812 425.769531 1268.367188 521.769531 1361 521.769531 "/>
<g style="fill:rgb(0%,0%,0%);fill-opacity:1;">
  <use xlink:href="#glyph18-1" x="1380" y="276.769531"/>
</g>
<path style="fill:none;stroke-width:1;stroke-linecap:butt;stroke-linejoin:miter;stroke:rgb(66.665649%,66.665649%,66.665649%);stroke-opacity:1;stroke-miterlimit:10;" d="M 1176 425.769531 C 1283.265625 425.769531 1253.734375 270.769531 1361 270.769531 "/>
<g style="fill:rgb(0%,0%,0%);fill-opacity:1;">
  <use xlink:href="#glyph16-2" x="1361.5" y="582.667969"/>
</g>
<g style="fill:rgb(0%,0%,0%);fill-opacity:1;">
  <use xlink:href="#glyph16-3" x="1374.230348" y="582.667969"/>
</g>
<g style="fill:rgb(0%,0%,0%);fill-opacity:1;">
  <use xlink:href="#glyph19-1" x="1381.712759" y="582.667969"/>
</g>
<g style="fill:rgb(0%,0%,0%);fill-opacity:1;">
  <use xlink:href="#glyph16-4" x="1394.443108" y="582.667969"/>
</g>
<g style="fill:rgb(0%,0%,0%);fill-opacity:1;">
  <use xlink:href="#glyph16-5" x="1407.173456" y="582.667969"/>
</g>
<path style="fill:none;stroke-width:1;stroke-linecap:butt;stroke-linejoin:miter;stroke:rgb(66.665649%,66.665649%,66.665649%);stroke-opacity:1;stroke-miterlimit:10;" d="M 1176 425.769531 C 1279.863281 425.769531 1249.636719 577.769531 1353.5 577.769531 "/>
<g style="fill:rgb(0%,0%,0%);fill-opacity:1;">
  <use xlink:href="#glyph0-17" x="1616" y="435.769531"/>
  <use xlink:href="#glyph0-4" x="1654.959762" y="435.769531"/>
</g>
<g style="fill:rgb(0%,0%,0%);fill-opacity:1;">
  <use xlink:href="#glyph0-5" x="1666.199694" y="435.769531"/>
</g>
<g style="fill:rgb(0%,0%,0%);fill-opacity:1;">
  <use xlink:href="#glyph0-13" x="1691.679538" y="435.769531"/>
</g>
<g style="fill:rgb(0%,0%,0%);fill-opacity:1;">
  <use xlink:href="#glyph0-3" x="1716.399388" y="435.769531"/>
</g>
<path style="fill:none;stroke-width:1;stroke-linecap:butt;stroke-linejoin:miter;stroke:rgb(66.665649%,66.665649%,66.665649%);stroke-opacity:1;stroke-miterlimit:10;" d="M 1417 331.769531 C 1511.613281 331.769531 1513.386719 425.769531 1608 425.769531 "/>
<path style="fill:none;stroke-width:1;stroke-linecap:butt;stroke-linejoin:miter;stroke:rgb(66.665649%,66.665649%,66.665649%);stroke-opacity:1;stroke-miterlimit:10;" d="M 1742 425.769531 C 1825.554688 425.769531 1846.445312 425.769531 1930 425.769531 "/>
<path style="fill:none;stroke-width:1;stroke-linecap:butt;stroke-linejoin:miter;stroke:rgb(66.665649%,66.665649%,66.665649%);stroke-opacity:1;stroke-miterlimit:10;" d="M 1417 393.769531 C 1503.070312 393.769531 1521.929688 425.769531 1608 425.769531 "/>
<path style="fill:none;stroke-width:1;stroke-linecap:butt;stroke-linejoin:miter;stroke:rgb(66.665649%,66.665649%,66.665649%);stroke-opacity:1;stroke-miterlimit:10;" d="M 1417 457.769531 C 1503.070312 457.769531 1521.929688 425.769531 1608 425.769531 "/>
<path style="fill:none;stroke-width:1;stroke-linecap:butt;stroke-linejoin:miter;stroke:rgb(66.665649%,66.665649%,66.665649%);stroke-opacity:1;stroke-miterlimit:10;" d="M 1417 521.769531 C 1512.007812 521.769531 1512.992188 425.769531 1608 425.769531 "/>
<path style="fill:none;stroke-width:1;stroke-linecap:butt;stroke-linejoin:miter;stroke:rgb(66.665649%,66.665649%,66.665649%);stroke-opacity:1;stroke-miterlimit:10;" d="M 1417 521.769531 C 1550.617188 521.769531 1543.613281 706.972656 1674 677.769531 "/>
<path style="fill:none;stroke-width:1;stroke-linecap:butt;stroke-linejoin:miter;stroke:rgb(66.665649%,66.665649%,66.665649%);stroke-opacity:1;stroke-miterlimit:10;" d="M 935 860.769531 C 1145.089844 860.769531 909.910156 425.769531 1120 425.769531 "/>
<path style="fill:none;stroke-width:1;stroke-linecap:butt;stroke-linejoin:miter;stroke:rgb(66.665649%,66.665649%,66.665649%);stroke-opacity:1;stroke-miterlimit:10;" d="M 935 860.769531 C 1043.570312 860.769531 1280.742188 694.589844 1388 677.769531 "/>
<path style="fill:none;stroke-width:1;stroke-linecap:butt;stroke-linejoin:miter;stroke:rgb(66.665649%,66.665649%,66.665649%);stroke-opacity:1;stroke-miterlimit:10;" d="M 934 166.769531 C 1075.71875 166.769531 978.28125 425.769531 1120 425.769531 "/>
<path style="fill:none;stroke-width:1;stroke-linecap:butt;stroke-linejoin:miter;stroke:rgb(66.665649%,66.665649%,66.665649%);stroke-opacity:1;stroke-miterlimit:10;" d="M 934 166.769531 C 1032.976562 166.769531 1048.597656 91.113281 1147 101.769531 "/>
<path style="fill:none;stroke-width:1;stroke-linecap:butt;stroke-linejoin:miter;stroke:rgb(66.665649%,66.665649%,66.665649%);stroke-opacity:1;stroke-miterlimit:10;" d="M 931 224.769531 C 1053.625 224.769531 997.375 425.769531 1120 425.769531 "/>
<path style="fill:none;stroke-width:1;stroke-linecap:butt;stroke-linejoin:miter;stroke:rgb(66.665649%,66.665649%,66.665649%);stroke-opacity:1;stroke-miterlimit:10;" d="M 931 224.769531 C 1041.472656 224.769531 1036.65625 107.136719 1147 101.769531 "/>
<path style="fill:none;stroke-width:1;stroke-linecap:butt;stroke-linejoin:miter;stroke:rgb(66.665649%,66.665649%,66.665649%);stroke-opacity:1;stroke-miterlimit:10;" d="M 1149 101.769531 C 1336.675781 92.636719 1742.101562 425.769531 1930 425.769531 "/>
<path style="fill:none;stroke-width:1;stroke-linecap:butt;stroke-linejoin:miter;stroke:rgb(66.665649%,66.665649%,66.665649%);stroke-opacity:1;stroke-miterlimit:10;" d="M 930 425.769531 C 1014.445312 425.769531 1035.554688 425.769531 1120 425.769531 "/>
<path style="fill:none;stroke-width:1;stroke-linecap:butt;stroke-linejoin:miter;stroke:rgb(66.665649%,66.665649%,66.665649%);stroke-opacity:1;stroke-miterlimit:10;" d="M 930 479.769531 C 1017.789062 479.769531 1032.210938 425.769531 1120 425.769531 "/>
<path style="fill:none;stroke-width:1;stroke-linecap:butt;stroke-linejoin:miter;stroke:rgb(66.665649%,66.665649%,66.665649%);stroke-opacity:1;stroke-miterlimit:10;" d="M 930 533.769531 C 1027.132812 533.769531 1022.867188 425.769531 1120 425.769531 "/>
<path style="fill:none;stroke-width:1;stroke-linecap:butt;stroke-linejoin:miter;stroke:rgb(66.665649%,66.665649%,66.665649%);stroke-opacity:1;stroke-miterlimit:10;" d="M 930 587.769531 C 1040.972656 587.769531 1009.027344 425.769531 1120 425.769531 "/>
<path style="fill:none;stroke-width:1;stroke-linecap:butt;stroke-linejoin:miter;stroke:rgb(66.665649%,66.665649%,66.665649%);stroke-opacity:1;stroke-miterlimit:10;" d="M 930 749.769531 C 1096.933594 749.769531 953.066406 425.769531 1120 425.769531 "/>
<path style="fill:none;stroke-width:1;stroke-linecap:butt;stroke-linejoin:miter;stroke:rgb(66.665649%,66.665649%,66.665649%);stroke-opacity:1;stroke-miterlimit:10;" d="M 930 803.769531 C 1118.027344 803.769531 931.972656 425.769531 1120 425.769531 "/>
<path style="fill:none;stroke-width:1;stroke-linecap:butt;stroke-linejoin:miter;stroke:rgb(66.665649%,66.665649%,66.665649%);stroke-opacity:1;stroke-miterlimit:10;" d="M 930 279.769531 C 1036.496094 279.769531 1013.503906 425.769531 1120 425.769531 "/>
<path style="fill:none;stroke-width:1;stroke-linecap:butt;stroke-linejoin:miter;stroke:rgb(66.665649%,66.665649%,66.665649%);stroke-opacity:1;stroke-miterlimit:10;" d="M 930 333.769531 C 1023.824219 333.769531 1026.175781 425.769531 1120 425.769531 "/>
<path style="fill:none;stroke-width:1;stroke-linecap:butt;stroke-linejoin:miter;stroke:rgb(66.665649%,66.665649%,66.665649%);stroke-opacity:1;stroke-miterlimit:10;" d="M 616 101.769531 C 726.222656 101.769531 753.777344 101.769531 864 101.769531 "/>
<g clip-path="url(#clip2)" clip-rule="nonzero">
<path style="fill:none;stroke-width:1;stroke-linecap:butt;stroke-linejoin:miter;stroke:rgb(66.665649%,66.665649%,66.665649%);stroke-opacity:1;stroke-miterlimit:10;" d="M 616 101.769531 C 760.835938 101.769531 816.75 -9.308594 940 66.769531 C 1091.882812 160.519531 941.511719 425.769531 1120 425.769531 "/>
</g>
<path style="fill:none;stroke-width:1;stroke-linecap:butt;stroke-linejoin:miter;stroke:rgb(66.665649%,66.665649%,66.665649%);stroke-opacity:1;stroke-miterlimit:10;" d="M 1676 677.769531 C 1831.175781 643.011719 1770.976562 425.769531 1930 425.769531 "/>
<path style="fill:none;stroke-width:1;stroke-linecap:butt;stroke-linejoin:miter;stroke:rgb(66.665649%,66.665649%,66.665649%);stroke-opacity:1;stroke-miterlimit:10;" d="M 1193.5 832.769531 C 1304.035156 832.769531 1278.796875 694.894531 1388 677.769531 "/>
<path style="fill:none;stroke-width:1;stroke-linecap:butt;stroke-linejoin:miter;stroke:rgb(66.665649%,66.665649%,66.665649%);stroke-opacity:1;stroke-miterlimit:10;" d="M 1390 677.769531 C 1514.699219 658.210938 1550.828125 705.355469 1674 677.769531 "/>
</g>
</svg>
