<?xml version="1.0" encoding="UTF-8"?>
<svg xmlns="http://www.w3.org/2000/svg" xmlns:xlink="http://www.w3.org/1999/xlink" width="1410pt" height="434pt" viewBox="0 0 1410 434" version="1.1">
<defs>
<g>
<symbol overflow="visible" id="glyph0-0">
<path style="stroke:none;" d="M 2 7.078125 L 2 -28.203125 L 22 -28.203125 L 22 7.078125 Z M 4.234375 4.84375 L 19.765625 4.84375 L 19.765625 -25.953125 L 4.234375 -25.953125 Z M 4.234375 4.84375 "/>
</symbol>
<symbol overflow="visible" id="glyph0-1">
<path style="stroke:none;" d="M 11.453125 0 L 0.3125 -29.15625 L 4.4375 -29.15625 L 13.671875 -4.609375 L 22.9375 -29.15625 L 27.03125 -29.15625 L 15.921875 0 Z M 11.453125 0 "/>
</symbol>
<symbol overflow="visible" id="glyph0-2">
<path style="stroke:none;" d="M 3.765625 -21.875 L 7.359375 -21.875 L 7.359375 0 L 3.765625 0 Z M 3.765625 -30.390625 L 7.359375 -30.390625 L 7.359375 -25.84375 L 3.765625 -25.84375 Z M 3.765625 -30.390625 "/>
</symbol>
<symbol overflow="visible" id="glyph0-3">
<path style="stroke:none;" d="M 12.25 -19.359375 C 10.320312 -19.359375 8.796875 -18.601562 7.671875 -17.09375 C 6.554688 -15.59375 6 -13.535156 6 -10.921875 C 6 -8.304688 6.554688 -6.242188 7.671875 -4.734375 C 8.785156 -3.234375 10.3125 -2.484375 12.25 -2.484375 C 14.164062 -2.484375 15.679688 -3.238281 16.796875 -4.75 C 17.921875 -6.257812 18.484375 -8.316406 18.484375 -10.921875 C 18.484375 -13.515625 17.921875 -15.566406 16.796875 -17.078125 C 15.679688 -18.597656 14.164062 -19.359375 12.25 -19.359375 Z M 12.25 -22.40625 C 15.375 -22.40625 17.828125 -21.390625 19.609375 -19.359375 C 21.390625 -17.328125 22.28125 -14.515625 22.28125 -10.921875 C 22.28125 -7.335938 21.390625 -4.523438 19.609375 -2.484375 C 17.828125 -0.453125 15.375 0.5625 12.25 0.5625 C 9.113281 0.5625 6.65625 -0.453125 4.875 -2.484375 C 3.09375 -4.523438 2.203125 -7.335938 2.203125 -10.921875 C 2.203125 -14.515625 3.09375 -17.328125 4.875 -19.359375 C 6.65625 -21.390625 9.113281 -22.40625 12.25 -22.40625 Z M 12.25 -22.40625 "/>
</symbol>
<symbol overflow="visible" id="glyph0-4">
<path style="stroke:none;" d="M 3.765625 -30.390625 L 7.359375 -30.390625 L 7.359375 0 L 3.765625 0 Z M 3.765625 -30.390625 "/>
</symbol>
<symbol overflow="visible" id="glyph0-5">
<path style="stroke:none;" d="M 21.953125 -13.203125 L 21.953125 0 L 18.359375 0 L 18.359375 -13.09375 C 18.359375 -15.15625 17.953125 -16.703125 17.140625 -17.734375 C 16.335938 -18.765625 15.128906 -19.28125 13.515625 -19.28125 C 11.578125 -19.28125 10.046875 -18.660156 8.921875 -17.421875 C 7.804688 -16.179688 7.25 -14.492188 7.25 -12.359375 L 7.25 0 L 3.640625 0 L 3.640625 -21.875 L 7.25 -21.875 L 7.25 -18.484375 C 8.101562 -19.796875 9.113281 -20.773438 10.28125 -21.421875 C 11.445312 -22.078125 12.789062 -22.40625 14.3125 -22.40625 C 16.832031 -22.40625 18.734375 -21.625 20.015625 -20.0625 C 21.304688 -18.507812 21.953125 -16.222656 21.953125 -13.203125 Z M 21.953125 -13.203125 "/>
</symbol>
<symbol overflow="visible" id="glyph0-6">
<path style="stroke:none;" d="M 25.765625 -26.921875 L 25.765625 -22.75 C 24.429688 -23.988281 23.015625 -24.914062 21.515625 -25.53125 C 20.015625 -26.144531 18.414062 -26.453125 16.71875 -26.453125 C 13.382812 -26.453125 10.832031 -25.429688 9.0625 -23.390625 C 7.289062 -21.347656 6.40625 -18.398438 6.40625 -14.546875 C 6.40625 -10.710938 7.289062 -7.773438 9.0625 -5.734375 C 10.832031 -3.691406 13.382812 -2.671875 16.71875 -2.671875 C 18.414062 -2.671875 20.015625 -2.976562 21.515625 -3.59375 C 23.015625 -4.207031 24.429688 -5.132812 25.765625 -6.375 L 25.765625 -2.25 C 24.378906 -1.3125 22.914062 -0.609375 21.375 -0.140625 C 19.832031 0.328125 18.203125 0.5625 16.484375 0.5625 C 12.066406 0.5625 8.585938 -0.785156 6.046875 -3.484375 C 3.515625 -6.191406 2.25 -9.878906 2.25 -14.546875 C 2.25 -19.234375 3.515625 -22.925781 6.046875 -25.625 C 8.585938 -28.332031 12.066406 -29.6875 16.484375 -29.6875 C 18.234375 -29.6875 19.878906 -29.453125 21.421875 -28.984375 C 22.960938 -28.523438 24.410156 -27.835938 25.765625 -26.921875 Z M 25.765625 -26.921875 "/>
</symbol>
<symbol overflow="visible" id="glyph0-7">
<path style="stroke:none;" d="M 19.515625 -21.03125 L 19.515625 -17.671875 C 18.492188 -18.234375 17.472656 -18.65625 16.453125 -18.9375 C 15.429688 -19.21875 14.398438 -19.359375 13.359375 -19.359375 C 11.023438 -19.359375 9.210938 -18.617188 7.921875 -17.140625 C 6.640625 -15.660156 6 -13.585938 6 -10.921875 C 6 -8.253906 6.640625 -6.179688 7.921875 -4.703125 C 9.210938 -3.222656 11.023438 -2.484375 13.359375 -2.484375 C 14.398438 -2.484375 15.429688 -2.625 16.453125 -2.90625 C 17.472656 -3.1875 18.492188 -3.601562 19.515625 -4.15625 L 19.515625 -0.84375 C 18.515625 -0.375 17.472656 -0.0234375 16.390625 0.203125 C 15.316406 0.441406 14.175781 0.5625 12.96875 0.5625 C 9.675781 0.5625 7.054688 -0.46875 5.109375 -2.53125 C 3.171875 -4.601562 2.203125 -7.398438 2.203125 -10.921875 C 2.203125 -14.484375 3.179688 -17.285156 5.140625 -19.328125 C 7.109375 -21.378906 9.796875 -22.40625 13.203125 -22.40625 C 14.304688 -22.40625 15.382812 -22.289062 16.4375 -22.0625 C 17.5 -21.832031 18.523438 -21.488281 19.515625 -21.03125 Z M 19.515625 -21.03125 "/>
</symbol>
<symbol overflow="visible" id="glyph0-8">
<path style="stroke:none;" d="M 22.484375 -11.84375 L 22.484375 -10.078125 L 5.953125 -10.078125 C 6.109375 -7.609375 6.851562 -5.722656 8.1875 -4.421875 C 9.53125 -3.128906 11.390625 -2.484375 13.765625 -2.484375 C 15.148438 -2.484375 16.488281 -2.648438 17.78125 -2.984375 C 19.082031 -3.328125 20.367188 -3.835938 21.640625 -4.515625 L 21.640625 -1.109375 C 20.347656 -0.566406 19.023438 -0.15625 17.671875 0.125 C 16.316406 0.414062 14.945312 0.5625 13.5625 0.5625 C 10.070312 0.5625 7.304688 -0.453125 5.265625 -2.484375 C 3.222656 -4.515625 2.203125 -7.257812 2.203125 -10.71875 C 2.203125 -14.300781 3.171875 -17.144531 5.109375 -19.25 C 7.046875 -21.351562 9.65625 -22.40625 12.9375 -22.40625 C 15.875 -22.40625 18.195312 -21.457031 19.90625 -19.5625 C 21.625 -17.664062 22.484375 -15.09375 22.484375 -11.84375 Z M 18.890625 -12.890625 C 18.859375 -14.859375 18.304688 -16.425781 17.234375 -17.59375 C 16.160156 -18.769531 14.738281 -19.359375 12.96875 -19.359375 C 10.96875 -19.359375 9.363281 -18.789062 8.15625 -17.65625 C 6.945312 -16.519531 6.253906 -14.925781 6.078125 -12.875 Z M 18.890625 -12.890625 "/>
</symbol>
<symbol overflow="visible" id="glyph0-9">
<path style="stroke:none;" d="M 16.453125 -18.515625 C 16.046875 -18.753906 15.601562 -18.925781 15.125 -19.03125 C 14.65625 -19.144531 14.132812 -19.203125 13.5625 -19.203125 C 11.53125 -19.203125 9.96875 -18.539062 8.875 -17.21875 C 7.789062 -15.894531 7.25 -14 7.25 -11.53125 L 7.25 0 L 3.640625 0 L 3.640625 -21.875 L 7.25 -21.875 L 7.25 -18.484375 C 8 -19.804688 8.976562 -20.789062 10.1875 -21.4375 C 11.40625 -22.082031 12.878906 -22.40625 14.609375 -22.40625 C 14.859375 -22.40625 15.128906 -22.390625 15.421875 -22.359375 C 15.722656 -22.328125 16.054688 -22.273438 16.421875 -22.203125 Z M 16.453125 -18.515625 "/>
</symbol>
<symbol overflow="visible" id="glyph0-10">
<path style="stroke:none;" d="M 7.328125 -28.09375 L 7.328125 -21.875 L 14.734375 -21.875 L 14.734375 -19.078125 L 7.328125 -19.078125 L 7.328125 -7.203125 C 7.328125 -5.421875 7.570312 -4.273438 8.0625 -3.765625 C 8.550781 -3.265625 9.539062 -3.015625 11.03125 -3.015625 L 14.734375 -3.015625 L 14.734375 0 L 11.03125 0 C 8.257812 0 6.347656 -0.515625 5.296875 -1.546875 C 4.242188 -2.585938 3.71875 -4.472656 3.71875 -7.203125 L 3.71875 -19.078125 L 1.078125 -19.078125 L 1.078125 -21.875 L 3.71875 -21.875 L 3.71875 -28.09375 Z M 7.328125 -28.09375 "/>
</symbol>
<symbol overflow="visible" id="glyph0-11">
<path style="stroke:none;" d="M 7.25 -3.28125 L 7.25 8.328125 L 3.640625 8.328125 L 3.640625 -21.875 L 7.25 -21.875 L 7.25 -18.5625 C 8 -19.863281 8.953125 -20.828125 10.109375 -21.453125 C 11.265625 -22.085938 12.640625 -22.40625 14.234375 -22.40625 C 16.890625 -22.40625 19.046875 -21.347656 20.703125 -19.234375 C 22.367188 -17.128906 23.203125 -14.359375 23.203125 -10.921875 C 23.203125 -7.484375 22.367188 -4.707031 20.703125 -2.59375 C 19.046875 -0.488281 16.890625 0.5625 14.234375 0.5625 C 12.640625 0.5625 11.265625 0.25 10.109375 -0.375 C 8.953125 -1.007812 8 -1.976562 7.25 -3.28125 Z M 19.46875 -10.921875 C 19.46875 -13.566406 18.925781 -15.640625 17.84375 -17.140625 C 16.757812 -18.640625 15.265625 -19.390625 13.359375 -19.390625 C 11.460938 -19.390625 9.96875 -18.640625 8.875 -17.140625 C 7.789062 -15.640625 7.25 -13.566406 7.25 -10.921875 C 7.25 -8.273438 7.789062 -6.195312 8.875 -4.6875 C 9.96875 -3.1875 11.460938 -2.4375 13.359375 -2.4375 C 15.265625 -2.4375 16.757812 -3.1875 17.84375 -4.6875 C 18.925781 -6.195312 19.46875 -8.273438 19.46875 -10.921875 Z M 19.46875 -10.921875 "/>
</symbol>
<symbol overflow="visible" id="glyph0-12">
<path style="stroke:none;" d="M 4.28125 -4.96875 L 8.40625 -4.96875 L 8.40625 0 L 4.28125 0 Z M 4.28125 -4.96875 "/>
</symbol>
<symbol overflow="visible" id="glyph0-13">
<path style="stroke:none;" d="M 20.453125 -17.59375 L 14.765625 -17.59375 L 13.125 -11.078125 L 18.84375 -11.078125 Z M 17.515625 -28.71875 L 15.484375 -20.609375 L 21.1875 -20.609375 L 23.25 -28.71875 L 26.375 -28.71875 L 24.359375 -20.609375 L 30.453125 -20.609375 L 30.453125 -17.59375 L 23.59375 -17.59375 L 22 -11.078125 L 28.203125 -11.078125 L 28.203125 -8.09375 L 21.234375 -8.09375 L 19.203125 0 L 16.078125 0 L 18.09375 -8.09375 L 12.359375 -8.09375 L 10.359375 0 L 7.203125 0 L 9.234375 -8.09375 L 3.09375 -8.09375 L 3.09375 -11.078125 L 9.96875 -11.078125 L 11.609375 -17.59375 L 5.3125 -17.59375 L 5.3125 -20.609375 L 12.359375 -20.609375 L 14.359375 -28.71875 Z M 17.515625 -28.71875 "/>
</symbol>
<symbol overflow="visible" id="glyph0-14">
<path style="stroke:none;" d="M 4.96875 -3.328125 L 11.40625 -3.328125 L 11.40625 -25.5625 L 4.390625 -24.15625 L 4.390625 -27.75 L 11.375 -29.15625 L 15.3125 -29.15625 L 15.3125 -3.328125 L 21.765625 -3.328125 L 21.765625 0 L 4.96875 0 Z M 4.96875 -3.328125 "/>
</symbol>
<symbol overflow="visible" id="glyph0-15">
<path style="stroke:none;" d="M 7.875 -25.921875 L 7.875 -3.25 L 12.640625 -3.25 C 16.660156 -3.25 19.601562 -4.160156 21.46875 -5.984375 C 23.34375 -7.804688 24.28125 -10.679688 24.28125 -14.609375 C 24.28125 -18.515625 23.34375 -21.375 21.46875 -23.1875 C 19.601562 -25.007812 16.660156 -25.921875 12.640625 -25.921875 Z M 3.921875 -29.15625 L 12.03125 -29.15625 C 17.6875 -29.15625 21.832031 -27.976562 24.46875 -25.625 C 27.113281 -23.28125 28.4375 -19.609375 28.4375 -14.609375 C 28.4375 -9.585938 27.109375 -5.894531 24.453125 -3.53125 C 21.796875 -1.175781 17.65625 0 12.03125 0 L 3.921875 0 Z M 3.921875 -29.15625 "/>
</symbol>
<symbol overflow="visible" id="glyph0-16">
<path style="stroke:none;" d="M 20.796875 -17.671875 C 21.703125 -19.285156 22.78125 -20.476562 24.03125 -21.25 C 25.28125 -22.019531 26.75 -22.40625 28.4375 -22.40625 C 30.71875 -22.40625 32.472656 -21.609375 33.703125 -20.015625 C 34.941406 -18.421875 35.5625 -16.148438 35.5625 -13.203125 L 35.5625 0 L 31.953125 0 L 31.953125 -13.09375 C 31.953125 -15.1875 31.582031 -16.738281 30.84375 -17.75 C 30.101562 -18.769531 28.96875 -19.28125 27.4375 -19.28125 C 25.582031 -19.28125 24.113281 -18.660156 23.03125 -17.421875 C 21.945312 -16.179688 21.40625 -14.492188 21.40625 -12.359375 L 21.40625 0 L 17.796875 0 L 17.796875 -13.09375 C 17.796875 -15.195312 17.421875 -16.753906 16.671875 -17.765625 C 15.929688 -18.773438 14.789062 -19.28125 13.25 -19.28125 C 11.40625 -19.28125 9.941406 -18.65625 8.859375 -17.40625 C 7.785156 -16.164062 7.25 -14.484375 7.25 -12.359375 L 7.25 0 L 3.640625 0 L 3.640625 -21.875 L 7.25 -21.875 L 7.25 -18.484375 C 8.070312 -19.816406 9.054688 -20.800781 10.203125 -21.4375 C 11.347656 -22.082031 12.707031 -22.40625 14.28125 -22.40625 C 15.863281 -22.40625 17.210938 -22 18.328125 -21.1875 C 19.441406 -20.382812 20.265625 -19.210938 20.796875 -17.671875 Z M 20.796875 -17.671875 "/>
</symbol>
<symbol overflow="visible" id="glyph1-0">
<path style="stroke:none;" d="M 1.578125 5.625 L 1.578125 -22.421875 L 17.484375 -22.421875 L 17.484375 5.625 Z M 3.375 3.84375 L 15.71875 3.84375 L 15.71875 -20.640625 L 3.375 -20.640625 Z M 3.375 3.84375 "/>
</symbol>
<symbol overflow="visible" id="glyph1-1">
<path style="stroke:none;" d="M 17.015625 -22.421875 L 17.015625 -19.359375 C 15.828125 -19.929688 14.703125 -20.351562 13.640625 -20.625 C 12.585938 -20.90625 11.570312 -21.046875 10.59375 -21.046875 C 8.882812 -21.046875 7.566406 -20.710938 6.640625 -20.046875 C 5.710938 -19.390625 5.25 -18.453125 5.25 -17.234375 C 5.25 -16.210938 5.554688 -15.4375 6.171875 -14.90625 C 6.785156 -14.382812 7.953125 -13.960938 9.671875 -13.640625 L 11.5625 -13.265625 C 13.90625 -12.816406 15.628906 -12.03125 16.734375 -10.90625 C 17.847656 -9.78125 18.40625 -8.273438 18.40625 -6.390625 C 18.40625 -4.148438 17.648438 -2.445312 16.140625 -1.28125 C 14.640625 -0.125 12.4375 0.453125 9.53125 0.453125 C 8.4375 0.453125 7.269531 0.328125 6.03125 0.078125 C 4.789062 -0.171875 3.507812 -0.539062 2.1875 -1.03125 L 2.1875 -4.25 C 3.457031 -3.539062 4.703125 -3.003906 5.921875 -2.640625 C 7.148438 -2.273438 8.351562 -2.09375 9.53125 -2.09375 C 11.320312 -2.09375 12.703125 -2.441406 13.671875 -3.140625 C 14.648438 -3.847656 15.140625 -4.851562 15.140625 -6.15625 C 15.140625 -7.300781 14.789062 -8.191406 14.09375 -8.828125 C 13.394531 -9.472656 12.25 -9.957031 10.65625 -10.28125 L 8.734375 -10.65625 C 6.398438 -11.113281 4.707031 -11.835938 3.65625 -12.828125 C 2.613281 -13.828125 2.09375 -15.210938 2.09375 -16.984375 C 2.09375 -19.035156 2.8125 -20.648438 4.25 -21.828125 C 5.695312 -23.003906 7.691406 -23.59375 10.234375 -23.59375 C 11.316406 -23.59375 12.421875 -23.492188 13.546875 -23.296875 C 14.679688 -23.109375 15.835938 -22.816406 17.015625 -22.421875 Z M 17.015625 -22.421875 "/>
</symbol>
<symbol overflow="visible" id="glyph1-2">
<path style="stroke:none;" d="M 9.734375 -15.390625 C 8.203125 -15.390625 6.988281 -14.789062 6.09375 -13.59375 C 5.207031 -12.394531 4.765625 -10.753906 4.765625 -8.671875 C 4.765625 -6.597656 5.207031 -4.960938 6.09375 -3.765625 C 6.976562 -2.566406 8.191406 -1.96875 9.734375 -1.96875 C 11.253906 -1.96875 12.457031 -2.566406 13.34375 -3.765625 C 14.238281 -4.972656 14.6875 -6.609375 14.6875 -8.671875 C 14.6875 -10.734375 14.238281 -12.367188 13.34375 -13.578125 C 12.457031 -14.785156 11.253906 -15.390625 9.734375 -15.390625 Z M 9.734375 -17.8125 C 12.210938 -17.8125 14.160156 -17.003906 15.578125 -15.390625 C 17.003906 -13.773438 17.71875 -11.535156 17.71875 -8.671875 C 17.71875 -5.828125 17.003906 -3.59375 15.578125 -1.96875 C 14.160156 -0.351562 12.210938 0.453125 9.734375 0.453125 C 7.242188 0.453125 5.289062 -0.351562 3.875 -1.96875 C 2.457031 -3.59375 1.75 -5.828125 1.75 -8.671875 C 1.75 -11.535156 2.457031 -13.773438 3.875 -15.390625 C 5.289062 -17.003906 7.242188 -17.8125 9.734375 -17.8125 Z M 9.734375 -17.8125 "/>
</symbol>
<symbol overflow="visible" id="glyph1-3">
<path style="stroke:none;" d="M 17.453125 -10.5 L 17.453125 0 L 14.59375 0 L 14.59375 -10.40625 C 14.59375 -12.050781 14.269531 -13.28125 13.625 -14.09375 C 12.988281 -14.914062 12.03125 -15.328125 10.75 -15.328125 C 9.207031 -15.328125 7.988281 -14.832031 7.09375 -13.84375 C 6.207031 -12.863281 5.765625 -11.523438 5.765625 -9.828125 L 5.765625 0 L 2.890625 0 L 2.890625 -17.390625 L 5.765625 -17.390625 L 5.765625 -14.6875 C 6.441406 -15.726562 7.242188 -16.507812 8.171875 -17.03125 C 9.097656 -17.550781 10.164062 -17.8125 11.375 -17.8125 C 13.375 -17.8125 14.882812 -17.191406 15.90625 -15.953125 C 16.9375 -14.710938 17.453125 -12.894531 17.453125 -10.5 Z M 17.453125 -10.5 "/>
</symbol>
<symbol overflow="visible" id="glyph1-4">
<path style="stroke:none;" d="M 10.90625 -8.734375 C 8.59375 -8.734375 6.988281 -8.46875 6.09375 -7.9375 C 5.207031 -7.414062 4.765625 -6.519531 4.765625 -5.25 C 4.765625 -4.226562 5.097656 -3.421875 5.765625 -2.828125 C 6.429688 -2.234375 7.34375 -1.9375 8.5 -1.9375 C 10.082031 -1.9375 11.347656 -2.5 12.296875 -3.625 C 13.253906 -4.75 13.734375 -6.242188 13.734375 -8.109375 L 13.734375 -8.734375 Z M 16.59375 -9.921875 L 16.59375 0 L 13.734375 0 L 13.734375 -2.640625 C 13.085938 -1.585938 12.273438 -0.804688 11.296875 -0.296875 C 10.328125 0.203125 9.140625 0.453125 7.734375 0.453125 C 5.953125 0.453125 4.535156 -0.046875 3.484375 -1.046875 C 2.429688 -2.046875 1.90625 -3.382812 1.90625 -5.0625 C 1.90625 -7.019531 2.5625 -8.492188 3.875 -9.484375 C 5.1875 -10.484375 7.140625 -10.984375 9.734375 -10.984375 L 13.734375 -10.984375 L 13.734375 -11.25 C 13.734375 -12.570312 13.300781 -13.59375 12.4375 -14.3125 C 11.570312 -15.03125 10.359375 -15.390625 8.796875 -15.390625 C 7.804688 -15.390625 6.835938 -15.269531 5.890625 -15.03125 C 4.953125 -14.789062 4.050781 -14.429688 3.1875 -13.953125 L 3.1875 -16.59375 C 4.226562 -17 5.238281 -17.300781 6.21875 -17.5 C 7.207031 -17.707031 8.164062 -17.8125 9.09375 -17.8125 C 11.613281 -17.8125 13.492188 -17.15625 14.734375 -15.84375 C 15.972656 -14.539062 16.59375 -12.566406 16.59375 -9.921875 Z M 16.59375 -9.921875 "/>
</symbol>
<symbol overflow="visible" id="glyph1-5">
<path style="stroke:none;" d="M 5.828125 -22.328125 L 5.828125 -17.390625 L 11.703125 -17.390625 L 11.703125 -15.171875 L 5.828125 -15.171875 L 5.828125 -5.734375 C 5.828125 -4.316406 6.019531 -3.40625 6.40625 -3 C 6.789062 -2.59375 7.578125 -2.390625 8.765625 -2.390625 L 11.703125 -2.390625 L 11.703125 0 L 8.765625 0 C 6.566406 0 5.046875 -0.410156 4.203125 -1.234375 C 3.367188 -2.054688 2.953125 -3.554688 2.953125 -5.734375 L 2.953125 -15.171875 L 0.859375 -15.171875 L 0.859375 -17.390625 L 2.953125 -17.390625 L 2.953125 -22.328125 Z M 5.828125 -22.328125 "/>
</symbol>
<symbol overflow="visible" id="glyph2-0">
<path style="stroke:none;" d="M 0.84375 2.984375 L 0.84375 -11.875 L 9.265625 -11.875 L 9.265625 2.984375 Z M 1.78125 2.046875 L 8.328125 2.046875 L 8.328125 -10.9375 L 1.78125 -10.9375 Z M 1.78125 2.046875 "/>
</symbol>
<symbol overflow="visible" id="glyph2-1">
<path style="stroke:none;" d="M 9.015625 -11.875 L 9.015625 -10.25 C 8.378906 -10.550781 7.78125 -10.773438 7.21875 -10.921875 C 6.664062 -11.078125 6.128906 -11.15625 5.609375 -11.15625 C 4.703125 -11.15625 4.003906 -10.976562 3.515625 -10.625 C 3.023438 -10.269531 2.78125 -9.769531 2.78125 -9.125 C 2.78125 -8.582031 2.941406 -8.171875 3.265625 -7.890625 C 3.597656 -7.617188 4.21875 -7.398438 5.125 -7.234375 L 6.125 -7.03125 C 7.363281 -6.789062 8.273438 -6.375 8.859375 -5.78125 C 9.453125 -5.1875 9.75 -4.390625 9.75 -3.390625 C 9.75 -2.203125 9.347656 -1.300781 8.546875 -0.6875 C 7.753906 -0.0703125 6.585938 0.234375 5.046875 0.234375 C 4.460938 0.234375 3.84375 0.164062 3.1875 0.03125 C 2.539062 -0.09375 1.863281 -0.285156 1.15625 -0.546875 L 1.15625 -2.25 C 1.832031 -1.875 2.492188 -1.585938 3.140625 -1.390625 C 3.785156 -1.203125 4.421875 -1.109375 5.046875 -1.109375 C 5.992188 -1.109375 6.722656 -1.296875 7.234375 -1.671875 C 7.753906 -2.046875 8.015625 -2.578125 8.015625 -3.265625 C 8.015625 -3.867188 7.828125 -4.335938 7.453125 -4.671875 C 7.085938 -5.015625 6.484375 -5.269531 5.640625 -5.4375 L 4.625 -5.640625 C 3.382812 -5.890625 2.488281 -6.273438 1.9375 -6.796875 C 1.382812 -7.328125 1.109375 -8.0625 1.109375 -9 C 1.109375 -10.082031 1.488281 -10.9375 2.25 -11.5625 C 3.019531 -12.1875 4.078125 -12.5 5.421875 -12.5 C 5.992188 -12.5 6.578125 -12.445312 7.171875 -12.34375 C 7.773438 -12.238281 8.390625 -12.082031 9.015625 -11.875 Z M 9.015625 -11.875 "/>
</symbol>
<symbol overflow="visible" id="glyph2-2">
<path style="stroke:none;" d="M 5.15625 -8.15625 C 4.34375 -8.15625 3.703125 -7.835938 3.234375 -7.203125 C 2.765625 -6.566406 2.53125 -5.695312 2.53125 -4.59375 C 2.53125 -3.488281 2.765625 -2.617188 3.234375 -1.984375 C 3.703125 -1.359375 4.34375 -1.046875 5.15625 -1.046875 C 5.957031 -1.046875 6.59375 -1.363281 7.0625 -2 C 7.539062 -2.632812 7.78125 -3.5 7.78125 -4.59375 C 7.78125 -5.6875 7.539062 -6.550781 7.0625 -7.1875 C 6.59375 -7.832031 5.957031 -8.15625 5.15625 -8.15625 Z M 5.15625 -9.4375 C 6.46875 -9.4375 7.5 -9.007812 8.25 -8.15625 C 9.007812 -7.300781 9.390625 -6.113281 9.390625 -4.59375 C 9.390625 -3.082031 9.007812 -1.898438 8.25 -1.046875 C 7.5 -0.191406 6.46875 0.234375 5.15625 0.234375 C 3.832031 0.234375 2.796875 -0.191406 2.046875 -1.046875 C 1.296875 -1.898438 0.921875 -3.082031 0.921875 -4.59375 C 0.921875 -6.113281 1.296875 -7.300781 2.046875 -8.15625 C 2.796875 -9.007812 3.832031 -9.4375 5.15625 -9.4375 Z M 5.15625 -9.4375 "/>
</symbol>
<symbol overflow="visible" id="glyph2-3">
<path style="stroke:none;" d="M 9.25 -5.5625 L 9.25 0 L 7.734375 0 L 7.734375 -5.515625 C 7.734375 -6.378906 7.5625 -7.03125 7.21875 -7.46875 C 6.882812 -7.90625 6.375 -8.125 5.6875 -8.125 C 4.875 -8.125 4.226562 -7.863281 3.75 -7.34375 C 3.28125 -6.820312 3.046875 -6.109375 3.046875 -5.203125 L 3.046875 0 L 1.53125 0 L 1.53125 -9.21875 L 3.046875 -9.21875 L 3.046875 -7.78125 C 3.410156 -8.332031 3.835938 -8.742188 4.328125 -9.015625 C 4.816406 -9.296875 5.382812 -9.4375 6.03125 -9.4375 C 7.082031 -9.4375 7.878906 -9.109375 8.421875 -8.453125 C 8.972656 -7.796875 9.25 -6.832031 9.25 -5.5625 Z M 9.25 -5.5625 "/>
</symbol>
<symbol overflow="visible" id="glyph2-4">
<path style="stroke:none;" d="M 5.78125 -4.625 C 4.550781 -4.625 3.703125 -4.484375 3.234375 -4.203125 C 2.765625 -3.929688 2.53125 -3.457031 2.53125 -2.78125 C 2.53125 -2.238281 2.703125 -1.8125 3.046875 -1.5 C 3.398438 -1.1875 3.882812 -1.03125 4.5 -1.03125 C 5.332031 -1.03125 6.003906 -1.328125 6.515625 -1.921875 C 7.023438 -2.515625 7.28125 -3.304688 7.28125 -4.296875 L 7.28125 -4.625 Z M 8.796875 -5.25 L 8.796875 0 L 7.28125 0 L 7.28125 -1.390625 C 6.9375 -0.835938 6.503906 -0.425781 5.984375 -0.15625 C 5.472656 0.101562 4.84375 0.234375 4.09375 0.234375 C 3.15625 0.234375 2.40625 -0.0234375 1.84375 -0.546875 C 1.289062 -1.078125 1.015625 -1.789062 1.015625 -2.6875 C 1.015625 -3.71875 1.359375 -4.492188 2.046875 -5.015625 C 2.742188 -5.546875 3.78125 -5.8125 5.15625 -5.8125 L 7.28125 -5.8125 L 7.28125 -5.96875 C 7.28125 -6.65625 7.050781 -7.191406 6.59375 -7.578125 C 6.132812 -7.960938 5.488281 -8.15625 4.65625 -8.15625 C 4.132812 -8.15625 3.625 -8.085938 3.125 -7.953125 C 2.625 -7.828125 2.144531 -7.640625 1.6875 -7.390625 L 1.6875 -8.796875 C 2.238281 -9.003906 2.773438 -9.160156 3.296875 -9.265625 C 3.816406 -9.378906 4.320312 -9.4375 4.8125 -9.4375 C 6.144531 -9.4375 7.140625 -9.085938 7.796875 -8.390625 C 8.460938 -7.703125 8.796875 -6.65625 8.796875 -5.25 Z M 8.796875 -5.25 "/>
</symbol>
<symbol overflow="visible" id="glyph2-5">
<path style="stroke:none;" d="M 3.078125 -11.828125 L 3.078125 -9.21875 L 6.203125 -9.21875 L 6.203125 -8.03125 L 3.078125 -8.03125 L 3.078125 -3.03125 C 3.078125 -2.28125 3.179688 -1.796875 3.390625 -1.578125 C 3.597656 -1.367188 4.015625 -1.265625 4.640625 -1.265625 L 6.203125 -1.265625 L 6.203125 0 L 4.640625 0 C 3.472656 0 2.664062 -0.21875 2.21875 -0.65625 C 1.78125 -1.09375 1.5625 -1.882812 1.5625 -3.03125 L 1.5625 -8.03125 L 0.453125 -8.03125 L 0.453125 -9.21875 L 1.5625 -9.21875 L 1.5625 -11.828125 Z M 3.078125 -11.828125 "/>
</symbol>
<symbol overflow="visible" id="glyph2-6">
<path style="stroke:none;" d="M 7.453125 -8.9375 L 7.453125 -7.515625 C 7.023438 -7.734375 6.582031 -7.894531 6.125 -8 C 5.664062 -8.113281 5.191406 -8.171875 4.703125 -8.171875 C 3.941406 -8.171875 3.375 -8.050781 3 -7.8125 C 2.625 -7.582031 2.4375 -7.238281 2.4375 -6.78125 C 2.4375 -6.4375 2.570312 -6.160156 2.84375 -5.953125 C 3.113281 -5.753906 3.65625 -5.566406 4.46875 -5.390625 L 4.984375 -5.265625 C 6.054688 -5.035156 6.816406 -4.710938 7.265625 -4.296875 C 7.722656 -3.878906 7.953125 -3.296875 7.953125 -2.546875 C 7.953125 -1.691406 7.613281 -1.015625 6.9375 -0.515625 C 6.257812 -0.015625 5.328125 0.234375 4.140625 0.234375 C 3.648438 0.234375 3.132812 0.1875 2.59375 0.09375 C 2.0625 0 1.5 -0.144531 0.90625 -0.34375 L 0.90625 -1.90625 C 1.46875 -1.613281 2.019531 -1.394531 2.5625 -1.25 C 3.101562 -1.101562 3.640625 -1.03125 4.171875 -1.03125 C 4.890625 -1.03125 5.441406 -1.148438 5.828125 -1.390625 C 6.210938 -1.640625 6.40625 -1.984375 6.40625 -2.421875 C 6.40625 -2.835938 6.265625 -3.15625 5.984375 -3.375 C 5.703125 -3.59375 5.09375 -3.800781 4.15625 -4 L 3.640625 -4.125 C 2.703125 -4.320312 2.023438 -4.625 1.609375 -5.03125 C 1.191406 -5.445312 0.984375 -6.007812 0.984375 -6.71875 C 0.984375 -7.582031 1.289062 -8.25 1.90625 -8.71875 C 2.519531 -9.195312 3.390625 -9.4375 4.515625 -9.4375 C 5.078125 -9.4375 5.601562 -9.394531 6.09375 -9.3125 C 6.582031 -9.226562 7.035156 -9.101562 7.453125 -8.9375 Z M 7.453125 -8.9375 "/>
</symbol>
<symbol overflow="visible" id="glyph3-0">
<path style="stroke:none;" d="M 1.90625 6.765625 L 1.90625 -26.984375 L 21.046875 -26.984375 L 21.046875 6.765625 Z M 4.0625 4.640625 L 18.921875 4.640625 L 18.921875 -24.84375 L 4.0625 -24.84375 Z M 4.0625 4.640625 "/>
</symbol>
<symbol overflow="visible" id="glyph3-1">
<path style="stroke:none;" d="M 19.578125 -16.84375 L 14.125 -16.84375 L 12.5625 -10.59375 L 18.03125 -10.59375 Z M 16.765625 -27.484375 L 14.828125 -19.71875 L 20.28125 -19.71875 L 22.25 -27.484375 L 25.234375 -27.484375 L 23.3125 -19.71875 L 29.140625 -19.71875 L 29.140625 -16.84375 L 22.578125 -16.84375 L 21.046875 -10.59375 L 26.984375 -10.59375 L 26.984375 -7.734375 L 20.3125 -7.734375 L 18.375 0 L 15.390625 0 L 17.3125 -7.734375 L 11.828125 -7.734375 L 9.90625 0 L 6.890625 0 L 8.84375 -7.734375 L 2.953125 -7.734375 L 2.953125 -10.59375 L 9.53125 -10.59375 L 11.109375 -16.84375 L 5.078125 -16.84375 L 5.078125 -19.71875 L 11.828125 -19.71875 L 13.734375 -27.484375 Z M 16.765625 -27.484375 "/>
</symbol>
<symbol overflow="visible" id="glyph3-2">
<path style="stroke:none;" d="M 7.34375 -3.171875 L 20.53125 -3.171875 L 20.53125 0 L 2.796875 0 L 2.796875 -3.171875 C 4.234375 -4.660156 6.1875 -6.648438 8.65625 -9.140625 C 11.132812 -11.640625 12.691406 -13.253906 13.328125 -13.984375 C 14.535156 -15.335938 15.378906 -16.484375 15.859375 -17.421875 C 16.335938 -18.367188 16.578125 -19.296875 16.578125 -20.203125 C 16.578125 -21.691406 16.054688 -22.898438 15.015625 -23.828125 C 13.972656 -24.765625 12.617188 -25.234375 10.953125 -25.234375 C 9.765625 -25.234375 8.515625 -25.023438 7.203125 -24.609375 C 5.890625 -24.203125 4.484375 -23.582031 2.984375 -22.75 L 2.984375 -26.5625 C 4.503906 -27.175781 5.925781 -27.632812 7.25 -27.9375 C 8.570312 -28.25 9.78125 -28.40625 10.875 -28.40625 C 13.769531 -28.40625 16.078125 -27.679688 17.796875 -26.234375 C 19.515625 -24.796875 20.375 -22.867188 20.375 -20.453125 C 20.375 -19.304688 20.15625 -18.21875 19.71875 -17.1875 C 19.289062 -16.15625 18.515625 -14.941406 17.390625 -13.546875 C 17.078125 -13.191406 16.082031 -12.148438 14.40625 -10.421875 C 12.738281 -8.691406 10.382812 -6.273438 7.34375 -3.171875 Z M 7.34375 -3.171875 "/>
</symbol>
<symbol overflow="visible" id="glyph4-0">
<path style="stroke:none;" d="M 1.265625 4.5 L 1.265625 -17.921875 L 13.984375 -17.921875 L 13.984375 4.5 Z M 2.6875 3.078125 L 12.5625 3.078125 L 12.5625 -16.5 L 2.6875 -16.5 Z M 2.6875 3.078125 "/>
</symbol>
<symbol overflow="visible" id="glyph4-1">
<path style="stroke:none;" d="M 13 -11.1875 L 9.390625 -11.1875 L 8.34375 -7.03125 L 11.984375 -7.03125 Z M 11.140625 -18.25 L 9.84375 -13.09375 L 13.46875 -13.09375 L 14.765625 -18.25 L 16.75 -18.25 L 15.484375 -13.09375 L 19.359375 -13.09375 L 19.359375 -11.1875 L 15 -11.1875 L 13.984375 -7.03125 L 17.921875 -7.03125 L 17.921875 -5.140625 L 13.5 -5.140625 L 12.203125 0 L 10.21875 0 L 11.5 -5.140625 L 7.859375 -5.140625 L 6.578125 0 L 4.578125 0 L 5.875 -5.140625 L 1.96875 -5.140625 L 1.96875 -7.03125 L 6.328125 -7.03125 L 7.375 -11.1875 L 3.375 -11.1875 L 3.375 -13.09375 L 7.859375 -13.09375 L 9.125 -18.25 Z M 11.140625 -18.25 "/>
</symbol>
<symbol overflow="visible" id="glyph4-2">
<path style="stroke:none;" d="M 10.3125 -10 C 11.507812 -9.738281 12.445312 -9.203125 13.125 -8.390625 C 13.800781 -7.578125 14.140625 -6.578125 14.140625 -5.390625 C 14.140625 -3.554688 13.507812 -2.140625 12.25 -1.140625 C 10.988281 -0.140625 9.203125 0.359375 6.890625 0.359375 C 6.109375 0.359375 5.304688 0.28125 4.484375 0.125 C 3.660156 -0.0195312 2.8125 -0.25 1.9375 -0.5625 L 1.9375 -2.984375 C 2.632812 -2.578125 3.394531 -2.269531 4.21875 -2.0625 C 5.050781 -1.851562 5.914062 -1.75 6.8125 -1.75 C 8.382812 -1.75 9.582031 -2.054688 10.40625 -2.671875 C 11.226562 -3.296875 11.640625 -4.203125 11.640625 -5.390625 C 11.640625 -6.484375 11.253906 -7.335938 10.484375 -7.953125 C 9.722656 -8.566406 8.660156 -8.875 7.296875 -8.875 L 5.140625 -8.875 L 5.140625 -10.9375 L 7.390625 -10.9375 C 8.628906 -10.9375 9.570312 -11.179688 10.21875 -11.671875 C 10.875 -12.160156 11.203125 -12.867188 11.203125 -13.796875 C 11.203125 -14.753906 10.863281 -15.484375 10.1875 -15.984375 C 9.519531 -16.492188 8.554688 -16.75 7.296875 -16.75 C 6.609375 -16.75 5.867188 -16.675781 5.078125 -16.53125 C 4.296875 -16.382812 3.4375 -16.15625 2.5 -15.84375 L 2.5 -18.078125 C 3.445312 -18.335938 4.335938 -18.535156 5.171875 -18.671875 C 6.003906 -18.804688 6.785156 -18.875 7.515625 -18.875 C 9.421875 -18.875 10.925781 -18.441406 12.03125 -17.578125 C 13.144531 -16.710938 13.703125 -15.539062 13.703125 -14.0625 C 13.703125 -13.039062 13.40625 -12.175781 12.8125 -11.46875 C 12.226562 -10.757812 11.394531 -10.269531 10.3125 -10 Z M 10.3125 -10 "/>
</symbol>
<symbol overflow="visible" id="glyph5-0">
<path style="stroke:none;" d="M 1.53125 5.453125 L 1.53125 -21.765625 L 16.96875 -21.765625 L 16.96875 5.453125 Z M 3.265625 3.734375 L 15.25 3.734375 L 15.25 -20.03125 L 3.265625 -20.03125 Z M 3.265625 3.734375 "/>
</symbol>
<symbol overflow="visible" id="glyph5-1">
<path style="stroke:none;" d="M 10.546875 -19.5 L 6.421875 -8.296875 L 14.6875 -8.296875 Z M 8.828125 -22.5 L 12.28125 -22.5 L 20.859375 0 L 17.6875 0 L 15.640625 -5.765625 L 5.5 -5.765625 L 3.453125 0 L 0.234375 0 Z M 8.828125 -22.5 "/>
</symbol>
<symbol overflow="visible" id="glyph6-0">
<path style="stroke:none;" d="M 0.96875 3.4375 L 0.96875 -13.6875 L 10.671875 -13.6875 L 10.671875 3.4375 Z M 2.0625 2.359375 L 9.59375 2.359375 L 9.59375 -12.609375 L 2.0625 -12.609375 Z M 2.0625 2.359375 "/>
</symbol>
<symbol overflow="visible" id="glyph6-1">
<path style="stroke:none;" d="M 1.90625 -14.15625 L 10.859375 -14.15625 L 10.859375 -12.546875 L 3.828125 -12.546875 L 3.828125 -8.359375 L 10.5625 -8.359375 L 10.5625 -6.75 L 3.828125 -6.75 L 3.828125 -1.609375 L 11.03125 -1.609375 L 11.03125 0 L 1.90625 0 Z M 1.90625 -14.15625 "/>
</symbol>
<symbol overflow="visible" id="glyph7-0">
<path style="stroke:none;" d="M 1.078125 3.84375 L 1.078125 -15.3125 L 11.9375 -15.3125 L 11.9375 3.84375 Z M 2.296875 2.625 L 10.734375 2.625 L 10.734375 -14.09375 L 2.296875 -14.09375 Z M 2.296875 2.625 "/>
</symbol>
<symbol overflow="visible" id="glyph7-1">
<path style="stroke:none;" d="M 12.921875 -2.265625 L 12.921875 -6.515625 L 9.421875 -6.515625 L 9.421875 -8.265625 L 15.046875 -8.265625 L 15.046875 -1.46875 C 14.222656 -0.882812 13.3125 -0.441406 12.3125 -0.140625 C 11.3125 0.160156 10.25 0.3125 9.125 0.3125 C 6.644531 0.3125 4.707031 -0.410156 3.3125 -1.859375 C 1.914062 -3.304688 1.21875 -5.320312 1.21875 -7.90625 C 1.21875 -10.488281 1.914062 -12.503906 3.3125 -13.953125 C 4.707031 -15.398438 6.644531 -16.125 9.125 -16.125 C 10.15625 -16.125 11.132812 -15.992188 12.0625 -15.734375 C 12.988281 -15.484375 13.847656 -15.109375 14.640625 -14.609375 L 14.640625 -12.328125 C 13.847656 -13.003906 13.003906 -13.507812 12.109375 -13.84375 C 11.222656 -14.1875 10.285156 -14.359375 9.296875 -14.359375 C 7.359375 -14.359375 5.90625 -13.816406 4.9375 -12.734375 C 3.96875 -11.648438 3.484375 -10.039062 3.484375 -7.90625 C 3.484375 -5.769531 3.96875 -4.160156 4.9375 -3.078125 C 5.90625 -1.992188 7.359375 -1.453125 9.296875 -1.453125 C 10.054688 -1.453125 10.734375 -1.515625 11.328125 -1.640625 C 11.921875 -1.773438 12.453125 -1.984375 12.921875 -2.265625 Z M 12.921875 -2.265625 "/>
</symbol>
<symbol overflow="visible" id="glyph8-0">
<path style="stroke:none;" d="M 0.921875 3.28125 L 0.921875 -13.09375 L 10.21875 -13.09375 L 10.21875 3.28125 Z M 1.96875 2.25 L 9.1875 2.25 L 9.1875 -12.0625 L 1.96875 -12.0625 Z M 1.96875 2.25 "/>
</symbol>
<symbol overflow="visible" id="glyph8-1">
<path style="stroke:none;" d="M 5.765625 -14.09375 C 4.953125 -12.707031 4.347656 -11.332031 3.953125 -9.96875 C 3.554688 -8.601562 3.359375 -7.222656 3.359375 -5.828125 C 3.359375 -4.429688 3.554688 -3.046875 3.953125 -1.671875 C 4.347656 -0.304688 4.953125 1.066406 5.765625 2.453125 L 4.3125 2.453125 C 3.40625 1.023438 2.722656 -0.367188 2.265625 -1.734375 C 1.816406 -3.109375 1.59375 -4.472656 1.59375 -5.828125 C 1.59375 -7.179688 1.816406 -8.539062 2.265625 -9.90625 C 2.710938 -11.269531 3.394531 -12.664062 4.3125 -14.09375 Z M 5.765625 -14.09375 "/>
</symbol>
<symbol overflow="visible" id="glyph8-2">
<path style="stroke:none;" d="M 9.9375 -13.09375 L 9.9375 -11.3125 C 9.25 -11.644531 8.59375 -11.890625 7.96875 -12.046875 C 7.351562 -12.210938 6.757812 -12.296875 6.1875 -12.296875 C 5.1875 -12.296875 4.414062 -12.101562 3.875 -11.71875 C 3.332031 -11.332031 3.0625 -10.78125 3.0625 -10.0625 C 3.0625 -9.46875 3.238281 -9.015625 3.59375 -8.703125 C 3.957031 -8.398438 4.644531 -8.15625 5.65625 -7.96875 L 6.765625 -7.75 C 8.128906 -7.488281 9.132812 -7.03125 9.78125 -6.375 C 10.4375 -5.71875 10.765625 -4.835938 10.765625 -3.734375 C 10.765625 -2.421875 10.320312 -1.425781 9.4375 -0.75 C 8.5625 -0.0703125 7.269531 0.265625 5.5625 0.265625 C 4.925781 0.265625 4.242188 0.191406 3.515625 0.046875 C 2.796875 -0.0976562 2.050781 -0.3125 1.28125 -0.59375 L 1.28125 -2.484375 C 2.019531 -2.066406 2.742188 -1.75 3.453125 -1.53125 C 4.171875 -1.320312 4.875 -1.21875 5.5625 -1.21875 C 6.613281 -1.21875 7.421875 -1.421875 7.984375 -1.828125 C 8.554688 -2.242188 8.84375 -2.832031 8.84375 -3.59375 C 8.84375 -4.257812 8.640625 -4.78125 8.234375 -5.15625 C 7.828125 -5.53125 7.15625 -5.8125 6.21875 -6 L 5.109375 -6.21875 C 3.742188 -6.488281 2.753906 -6.914062 2.140625 -7.5 C 1.523438 -8.082031 1.21875 -8.890625 1.21875 -9.921875 C 1.21875 -11.117188 1.640625 -12.0625 2.484375 -12.75 C 3.328125 -13.4375 4.492188 -13.78125 5.984375 -13.78125 C 6.617188 -13.78125 7.265625 -13.722656 7.921875 -13.609375 C 8.578125 -13.492188 9.25 -13.320312 9.9375 -13.09375 Z M 9.9375 -13.09375 "/>
</symbol>
<symbol overflow="visible" id="glyph8-3">
<path style="stroke:none;" d="M 5.6875 -8.984375 C 4.789062 -8.984375 4.082031 -8.632812 3.5625 -7.9375 C 3.039062 -7.238281 2.78125 -6.285156 2.78125 -5.078125 C 2.78125 -3.859375 3.039062 -2.898438 3.5625 -2.203125 C 4.082031 -1.503906 4.789062 -1.15625 5.6875 -1.15625 C 6.570312 -1.15625 7.273438 -1.503906 7.796875 -2.203125 C 8.316406 -2.898438 8.578125 -3.859375 8.578125 -5.078125 C 8.578125 -6.273438 8.316406 -7.222656 7.796875 -7.921875 C 7.273438 -8.628906 6.570312 -8.984375 5.6875 -8.984375 Z M 5.6875 -10.40625 C 7.132812 -10.40625 8.269531 -9.929688 9.09375 -8.984375 C 9.925781 -8.046875 10.34375 -6.742188 10.34375 -5.078125 C 10.34375 -3.410156 9.925781 -2.101562 9.09375 -1.15625 C 8.269531 -0.207031 7.132812 0.265625 5.6875 0.265625 C 4.226562 0.265625 3.085938 -0.207031 2.265625 -1.15625 C 1.441406 -2.101562 1.03125 -3.410156 1.03125 -5.078125 C 1.03125 -6.742188 1.441406 -8.046875 2.265625 -8.984375 C 3.085938 -9.929688 4.226562 -10.40625 5.6875 -10.40625 Z M 5.6875 -10.40625 "/>
</symbol>
<symbol overflow="visible" id="glyph8-4">
<path style="stroke:none;" d="M 10.203125 -6.125 L 10.203125 0 L 8.53125 0 L 8.53125 -6.078125 C 8.53125 -7.035156 8.34375 -7.753906 7.96875 -8.234375 C 7.59375 -8.710938 7.03125 -8.953125 6.28125 -8.953125 C 5.375 -8.953125 4.660156 -8.664062 4.140625 -8.09375 C 3.617188 -7.519531 3.359375 -6.734375 3.359375 -5.734375 L 3.359375 0 L 1.6875 0 L 1.6875 -10.15625 L 3.359375 -10.15625 L 3.359375 -8.578125 C 3.765625 -9.191406 4.238281 -9.648438 4.78125 -9.953125 C 5.320312 -10.253906 5.945312 -10.40625 6.65625 -10.40625 C 7.820312 -10.40625 8.703125 -10.039062 9.296875 -9.3125 C 9.898438 -8.59375 10.203125 -7.53125 10.203125 -6.125 Z M 10.203125 -6.125 "/>
</symbol>
<symbol overflow="visible" id="glyph8-5">
<path style="stroke:none;" d="M 6.375 -5.109375 C 5.019531 -5.109375 4.082031 -4.953125 3.5625 -4.640625 C 3.039062 -4.335938 2.78125 -3.8125 2.78125 -3.0625 C 2.78125 -2.46875 2.972656 -2 3.359375 -1.65625 C 3.753906 -1.3125 4.289062 -1.140625 4.96875 -1.140625 C 5.882812 -1.140625 6.625 -1.46875 7.1875 -2.125 C 7.75 -2.78125 8.03125 -3.648438 8.03125 -4.734375 L 8.03125 -5.109375 Z M 9.703125 -5.796875 L 9.703125 0 L 8.03125 0 L 8.03125 -1.546875 C 7.644531 -0.921875 7.164062 -0.460938 6.59375 -0.171875 C 6.03125 0.117188 5.335938 0.265625 4.515625 0.265625 C 3.472656 0.265625 2.644531 -0.0234375 2.03125 -0.609375 C 1.414062 -1.191406 1.109375 -1.972656 1.109375 -2.953125 C 1.109375 -4.097656 1.488281 -4.957031 2.25 -5.53125 C 3.019531 -6.113281 4.164062 -6.40625 5.6875 -6.40625 L 8.03125 -6.40625 L 8.03125 -6.578125 C 8.03125 -7.347656 7.773438 -7.941406 7.265625 -8.359375 C 6.765625 -8.773438 6.054688 -8.984375 5.140625 -8.984375 C 4.554688 -8.984375 3.988281 -8.914062 3.4375 -8.78125 C 2.894531 -8.644531 2.367188 -8.4375 1.859375 -8.15625 L 1.859375 -9.703125 C 2.472656 -9.929688 3.066406 -10.101562 3.640625 -10.21875 C 4.210938 -10.34375 4.769531 -10.40625 5.3125 -10.40625 C 6.78125 -10.40625 7.878906 -10.023438 8.609375 -9.265625 C 9.335938 -8.503906 9.703125 -7.347656 9.703125 -5.796875 Z M 9.703125 -5.796875 "/>
</symbol>
<symbol overflow="visible" id="glyph8-6">
<path style="stroke:none;" d="M 3.40625 -13.046875 L 3.40625 -10.15625 L 6.84375 -10.15625 L 6.84375 -8.859375 L 3.40625 -8.859375 L 3.40625 -3.34375 C 3.40625 -2.519531 3.515625 -1.988281 3.734375 -1.75 C 3.960938 -1.507812 4.425781 -1.390625 5.125 -1.390625 L 6.84375 -1.390625 L 6.84375 0 L 5.125 0 C 3.832031 0 2.941406 -0.238281 2.453125 -0.71875 C 1.960938 -1.195312 1.71875 -2.070312 1.71875 -3.34375 L 1.71875 -8.859375 L 0.5 -8.859375 L 0.5 -10.15625 L 1.71875 -10.15625 L 1.71875 -13.046875 Z M 3.40625 -13.046875 "/>
</symbol>
<symbol overflow="visible" id="glyph8-7">
<path style="stroke:none;" d="M 1.75 -10.15625 L 3.421875 -10.15625 L 3.421875 0 L 1.75 0 Z M 1.75 -14.109375 L 3.421875 -14.109375 L 3.421875 -12 L 1.75 -12 Z M 1.75 -14.109375 "/>
</symbol>
<symbol overflow="visible" id="glyph8-8">
<path style="stroke:none;" d="M 1.484375 -14.09375 L 2.9375 -14.09375 C 3.84375 -12.664062 4.519531 -11.269531 4.96875 -9.90625 C 5.425781 -8.539062 5.65625 -7.179688 5.65625 -5.828125 C 5.65625 -4.472656 5.425781 -3.109375 4.96875 -1.734375 C 4.519531 -0.367188 3.84375 1.023438 2.9375 2.453125 L 1.484375 2.453125 C 2.285156 1.066406 2.882812 -0.304688 3.28125 -1.671875 C 3.675781 -3.046875 3.875 -4.429688 3.875 -5.828125 C 3.875 -7.222656 3.675781 -8.601562 3.28125 -9.96875 C 2.882812 -11.332031 2.285156 -12.707031 1.484375 -14.09375 Z M 1.484375 -14.09375 "/>
</symbol>
</g>
<clipPath id="clip1">
  <path d="M 36 36 L 1374 36 L 1374 398.296875 L 36 398.296875 Z M 36 36 "/>
</clipPath>
<clipPath id="clip2">
  <path d="M 644 36 L 1135 36 L 1135 82 L 644 82 Z M 644 36 "/>
</clipPath>
<clipPath id="clip3">
  <path d="M 447 226 L 1291 226 L 1291 398.296875 L 447 398.296875 Z M 447 226 "/>
</clipPath>
</defs>
<g id="surface1">
<g clip-path="url(#clip1)" clip-rule="nonzero">
<path style=" stroke:none;fill-rule:nonzero;fill:rgb(97.253418%,97.253418%,97.253418%);fill-opacity:1;" d="M 36 36 L 1374 36 L 1374 398.296875 L 36 398.296875 Z M 36 36 "/>
</g>
<g style="fill:rgb(0%,0%,0%);fill-opacity:1;">
  <use xlink:href="#glyph0-1" x="70.5" y="264.738281"/>
</g>
<g style="fill:rgb(0%,0%,0%);fill-opacity:1;">
  <use xlink:href="#glyph0-2" x="96.73984" y="264.738281"/>
</g>
<g style="fill:rgb(0%,0%,0%);fill-opacity:1;">
  <use xlink:href="#glyph0-3" x="107.979771" y="264.738281"/>
</g>
<g style="fill:rgb(0%,0%,0%);fill-opacity:1;">
  <use xlink:href="#glyph0-4" x="132.699621" y="264.738281"/>
</g>
<g style="fill:rgb(0%,0%,0%);fill-opacity:1;">
  <use xlink:href="#glyph0-2" x="143.899552" y="264.738281"/>
</g>
<g style="fill:rgb(0%,0%,0%);fill-opacity:1;">
  <use xlink:href="#glyph0-5" x="155.099484" y="264.738281"/>
</g>
<g style="fill:rgb(0%,0%,0%);fill-opacity:1;">
  <use xlink:href="#glyph0-6" x="306.000003" y="198.738284"/>
</g>
<g style="fill:rgb(0%,0%,0%);fill-opacity:1;">
  <use xlink:href="#glyph0-3" x="333.759834" y="198.738284"/>
</g>
<g style="fill:rgb(0%,0%,0%);fill-opacity:1;">
  <use xlink:href="#glyph0-5" x="358.439684" y="198.738284"/>
</g>
<g style="fill:rgb(0%,0%,0%);fill-opacity:1;">
  <use xlink:href="#glyph0-7" x="383.919528" y="198.738284"/>
</g>
<g style="fill:rgb(0%,0%,0%);fill-opacity:1;">
  <use xlink:href="#glyph0-8" x="405.639396" y="198.738284"/>
</g>
<g style="fill:rgb(0%,0%,0%);fill-opacity:1;">
  <use xlink:href="#glyph0-9" x="430.399245" y="198.738284"/>
  <use xlink:href="#glyph0-10" x="446.839144" y="198.738284"/>
</g>
<g style="fill:rgb(0%,0%,0%);fill-opacity:1;">
  <use xlink:href="#glyph0-3" x="462.639048" y="198.738284"/>
</g>
<path style="fill:none;stroke-width:1;stroke-linecap:butt;stroke-linejoin:miter;stroke:rgb(66.665649%,66.665649%,66.665649%);stroke-opacity:1;stroke-miterlimit:10;" d="M 189.5 254.738281 C 245.941406 254.738281 241.558594 188.738281 298 188.738281 "/>
<g style="fill:rgb(0%,0%,0%);fill-opacity:1;">
  <use xlink:href="#glyph1-1" x="341" y="262.671875"/>
  <use xlink:href="#glyph1-2" x="361.154421" y="262.671875"/>
</g>
<g style="fill:rgb(0%,0%,0%);fill-opacity:1;">
  <use xlink:href="#glyph1-3" x="380.704844" y="262.671875"/>
</g>
<g style="fill:rgb(0%,0%,0%);fill-opacity:1;">
  <use xlink:href="#glyph1-4" x="400.922844" y="262.671875"/>
  <use xlink:href="#glyph1-5" x="420.3779" y="262.671875"/>
</g>
<g style="fill:rgb(0%,0%,0%);fill-opacity:1;">
  <use xlink:href="#glyph1-4" x="433.157201" y="262.671875"/>
</g>
<path style="fill:none;stroke-width:1;stroke-linecap:butt;stroke-linejoin:miter;stroke:rgb(66.665649%,66.665649%,66.665649%);stroke-opacity:1;stroke-miterlimit:10;" d="M 189.5 254.738281 C 252.832031 254.738281 268.667969 254.738281 332 254.738281 "/>
<g style="fill:rgb(0%,0%,0%);fill-opacity:1;">
  <use xlink:href="#glyph2-1" x="362.5" y="316.714844"/>
</g>
<g style="fill:rgb(0%,0%,0%);fill-opacity:1;">
  <use xlink:href="#glyph2-2" x="372.992592" y="316.714844"/>
</g>
<g style="fill:rgb(0%,0%,0%);fill-opacity:1;">
  <use xlink:href="#glyph2-3" x="383.468341" y="316.714844"/>
</g>
<g style="fill:rgb(0%,0%,0%);fill-opacity:1;">
  <use xlink:href="#glyph2-4" x="393.960933" y="316.714844"/>
</g>
<g style="fill:rgb(0%,0%,0%);fill-opacity:1;">
  <use xlink:href="#glyph2-5" x="404.453524" y="316.714844"/>
</g>
<g style="fill:rgb(0%,0%,0%);fill-opacity:1;">
  <use xlink:href="#glyph2-4" x="411.190341" y="316.714844"/>
</g>
<g style="fill:rgb(0%,0%,0%);fill-opacity:1;">
  <use xlink:href="#glyph2-6" x="421.682932" y="316.714844"/>
</g>
<path style="fill:none;stroke-width:1;stroke-linecap:butt;stroke-linejoin:miter;stroke:rgb(66.665649%,66.665649%,66.665649%);stroke-opacity:1;stroke-miterlimit:10;" d="M 189.5 254.738281 C 266.601562 254.738281 275.898438 312.738281 353 312.738281 "/>
<g style="fill:rgb(0%,0%,0%);fill-opacity:1;">
  <use xlink:href="#glyph0-2" x="802.5" y="200.738281"/>
</g>
<g style="fill:rgb(0%,0%,0%);fill-opacity:1;">
  <use xlink:href="#glyph0-5" x="813.699932" y="200.738281"/>
</g>
<path style="fill:none;stroke-width:1;stroke-linecap:butt;stroke-linejoin:miter;stroke:rgb(66.665649%,66.665649%,66.665649%);stroke-opacity:1;stroke-miterlimit:10;" d="M 659 67.738281 C 685.265625 66.777344 693.671875 71.378906 715 86.738281 C 762.101562 120.660156 735.953125 190.738281 794 190.738281 "/>
<path style="fill:none;stroke-width:1;stroke-linecap:butt;stroke-linejoin:miter;stroke:rgb(66.665649%,66.665649%,66.665649%);stroke-opacity:1;stroke-miterlimit:10;" d="M 496 188.738281 C 561.0625 188.738281 545.5 120.691406 601 86.738281 C 623.421875 73.023438 630.734375 68.703125 657 67.738281 "/>
<g style="fill:rgb(0%,0%,0%);fill-opacity:1;">
  <use xlink:href="#glyph0-3" x="1284" y="250.738281"/>
</g>
<g style="fill:rgb(0%,0%,0%);fill-opacity:1;">
  <use xlink:href="#glyph0-11" x="1308.719849" y="250.738281"/>
</g>
<g style="fill:rgb(0%,0%,0%);fill-opacity:1;">
  <use xlink:href="#glyph0-12" x="1334.199694" y="250.738281"/>
</g>
<g clip-path="url(#clip2)" clip-rule="nonzero">
<path style="fill:none;stroke-width:1;stroke-linecap:butt;stroke-linejoin:miter;stroke:rgb(66.665649%,66.665649%,66.665649%);stroke-opacity:1;stroke-miterlimit:10;" d="M 659 67.738281 C 863.75 60.230469 923.5 9.710938 1120 67.738281 "/>
</g>
<g style="fill:rgb(0%,0%,0%);fill-opacity:1;">
  <use xlink:href="#glyph0-13" x="628" y="131.738281"/>
</g>
<g style="fill:rgb(0%,0%,0%);fill-opacity:1;">
  <use xlink:href="#glyph0-14" x="661.719794" y="131.738281"/>
</g>
<path style="fill:none;stroke-width:1;stroke-linecap:butt;stroke-linejoin:miter;stroke:rgb(66.665649%,66.665649%,66.665649%);stroke-opacity:1;stroke-miterlimit:10;" d="M 496 188.738281 C 558.25 188.738281 556.75 121.738281 619 121.738281 "/>
<g style="fill:rgb(0%,0%,0%);fill-opacity:1;">
  <use xlink:href="#glyph3-1" x="629.5" y="200.367188"/>
</g>
<g style="fill:rgb(0%,0%,0%);fill-opacity:1;">
  <use xlink:href="#glyph3-2" x="661.697816" y="200.367188"/>
</g>
<path style="fill:none;stroke-width:1;stroke-linecap:butt;stroke-linejoin:miter;stroke:rgb(66.665649%,66.665649%,66.665649%);stroke-opacity:1;stroke-miterlimit:10;" d="M 496 188.738281 C 551.117188 188.738281 564.882812 190.738281 620 190.738281 "/>
<g style="fill:rgb(0%,0%,0%);fill-opacity:1;">
  <use xlink:href="#glyph4-1" x="639" y="258.082031"/>
</g>
<g style="fill:rgb(0%,0%,0%);fill-opacity:1;">
  <use xlink:href="#glyph4-2" x="659.977679" y="258.082031"/>
</g>
<path style="fill:none;stroke-width:1;stroke-linecap:butt;stroke-linejoin:miter;stroke:rgb(66.665649%,66.665649%,66.665649%);stroke-opacity:1;stroke-miterlimit:10;" d="M 496 188.738281 C 561.808594 188.738281 564.191406 251.738281 630 251.738281 "/>
<g style="fill:rgb(0%,0%,0%);fill-opacity:1;">
  <use xlink:href="#glyph0-15" x="928.5" y="131.738281"/>
</g>
<path style="fill:none;stroke-width:1;stroke-linecap:butt;stroke-linejoin:miter;stroke:rgb(66.665649%,66.665649%,66.665649%);stroke-opacity:1;stroke-miterlimit:10;" d="M 848 190.738281 C 891.371094 190.738281 873.628906 121.738281 917 121.738281 "/>
<g style="fill:rgb(0%,0%,0%);fill-opacity:1;">
  <use xlink:href="#glyph5-1" x="933" y="248.425781"/>
</g>
<path style="fill:none;stroke-width:1;stroke-linecap:butt;stroke-linejoin:miter;stroke:rgb(66.665649%,66.665649%,66.665649%);stroke-opacity:1;stroke-miterlimit:10;" d="M 848 190.738281 C 885.871094 190.738281 879.128906 240.738281 917 240.738281 "/>
<g style="fill:rgb(0%,0%,0%);fill-opacity:1;">
  <use xlink:href="#glyph6-1" x="937.5" y="188.78125"/>
</g>
<path style="fill:none;stroke-width:1;stroke-linecap:butt;stroke-linejoin:miter;stroke:rgb(66.665649%,66.665649%,66.665649%);stroke-opacity:1;stroke-miterlimit:10;" d="M 848 190.738281 C 878.824219 190.738281 886.175781 183.738281 917 183.738281 "/>
<g style="fill:rgb(0%,0%,0%);fill-opacity:1;">
  <use xlink:href="#glyph7-1" x="935.5" y="303.113281"/>
</g>
<path style="fill:none;stroke-width:1;stroke-linecap:butt;stroke-linejoin:miter;stroke:rgb(66.665649%,66.665649%,66.665649%);stroke-opacity:1;stroke-miterlimit:10;" d="M 848 190.738281 C 904.585938 190.738281 860.414062 297.738281 917 297.738281 "/>
<g style="fill:rgb(0%,0%,0%);fill-opacity:1;">
  <use xlink:href="#glyph0-16" x="1062" y="250.738281"/>
  <use xlink:href="#glyph0-2" x="1100.959762" y="250.738281"/>
</g>
<g style="fill:rgb(0%,0%,0%);fill-opacity:1;">
  <use xlink:href="#glyph0-5" x="1112.199694" y="250.738281"/>
</g>
<g style="fill:rgb(0%,0%,0%);fill-opacity:1;">
  <use xlink:href="#glyph0-3" x="1137.679538" y="250.738281"/>
</g>
<g style="fill:rgb(0%,0%,0%);fill-opacity:1;">
  <use xlink:href="#glyph0-9" x="1162.399388" y="250.738281"/>
</g>
<path style="fill:none;stroke-width:1;stroke-linecap:butt;stroke-linejoin:miter;stroke:rgb(66.665649%,66.665649%,66.665649%);stroke-opacity:1;stroke-miterlimit:10;" d="M 971 121.738281 C 1035.484375 121.738281 989.515625 240.738281 1054 240.738281 "/>
<path style="fill:none;stroke-width:1;stroke-linecap:butt;stroke-linejoin:miter;stroke:rgb(66.665649%,66.665649%,66.665649%);stroke-opacity:1;stroke-miterlimit:10;" d="M 1122 67.738281 C 1220.722656 96.894531 1173.058594 240.738281 1276 240.738281 "/>
<path style="fill:none;stroke-width:1;stroke-linecap:butt;stroke-linejoin:miter;stroke:rgb(66.665649%,66.665649%,66.665649%);stroke-opacity:1;stroke-miterlimit:10;" d="M 971 121.738281 C 1041.4375 121.738281 1052.445312 47.789062 1120 67.738281 "/>
<path style="fill:none;stroke-width:1;stroke-linecap:butt;stroke-linejoin:miter;stroke:rgb(66.665649%,66.665649%,66.665649%);stroke-opacity:1;stroke-miterlimit:10;" d="M 1188 240.738281 C 1227.109375 240.738281 1236.890625 240.738281 1276 240.738281 "/>
<path style="fill:none;stroke-width:1;stroke-linecap:butt;stroke-linejoin:miter;stroke:rgb(66.665649%,66.665649%,66.665649%);stroke-opacity:1;stroke-miterlimit:10;" d="M 971 240.738281 C 1007.890625 240.738281 1017.109375 240.738281 1054 240.738281 "/>
<path style="fill:none;stroke-width:1;stroke-linecap:butt;stroke-linejoin:miter;stroke:rgb(66.665649%,66.665649%,66.665649%);stroke-opacity:1;stroke-miterlimit:10;" d="M 697 121.738281 C 749.90625 121.738281 741.09375 190.738281 794 190.738281 "/>
<path style="fill:none;stroke-width:1;stroke-linecap:butt;stroke-linejoin:miter;stroke:rgb(66.665649%,66.665649%,66.665649%);stroke-opacity:1;stroke-miterlimit:10;" d="M 696 190.738281 C 739.554688 190.738281 750.445312 190.738281 794 190.738281 "/>
<path style="fill:none;stroke-width:1;stroke-linecap:butt;stroke-linejoin:miter;stroke:rgb(66.665649%,66.665649%,66.665649%);stroke-opacity:1;stroke-miterlimit:10;" d="M 686 251.738281 C 741.128906 251.738281 738.871094 190.738281 794 190.738281 "/>
<path style="fill:none;stroke-width:1;stroke-linecap:butt;stroke-linejoin:miter;stroke:rgb(66.665649%,66.665649%,66.665649%);stroke-opacity:1;stroke-miterlimit:10;" d="M 462 254.738281 C 574.949219 254.738281 611.851562 324.757812 715 278.738281 C 763 257.328125 741.441406 190.738281 794 190.738281 "/>
<g clip-path="url(#clip3)" clip-rule="nonzero">
<path style="fill:none;stroke-width:1;stroke-linecap:butt;stroke-linejoin:miter;stroke:rgb(66.665649%,66.665649%,66.665649%);stroke-opacity:1;stroke-miterlimit:10;" d="M 462 254.738281 C 542.464844 254.738281 526.609375 340.074219 601 370.738281 C 691.324219 407.972656 722.300781 389.738281 820 389.738281 C 820 389.738281 820 389.738281 945 389.738281 C 985.332031 389.738281 1235.667969 240.738281 1276 240.738281 "/>
</g>
<path style="fill:none;stroke-width:1;stroke-linecap:butt;stroke-linejoin:miter;stroke:rgb(66.665649%,66.665649%,66.665649%);stroke-opacity:1;stroke-miterlimit:10;" d="M 462 254.738281 C 553.449219 254.738281 527.550781 121.738281 619 121.738281 "/>
<path style="fill:none;stroke-width:1;stroke-linecap:butt;stroke-linejoin:miter;stroke:rgb(66.665649%,66.665649%,66.665649%);stroke-opacity:1;stroke-miterlimit:10;" d="M 462 254.738281 C 537.765625 254.738281 544.234375 190.738281 620 190.738281 "/>
<path style="fill:none;stroke-width:1;stroke-linecap:butt;stroke-linejoin:miter;stroke:rgb(66.665649%,66.665649%,66.665649%);stroke-opacity:1;stroke-miterlimit:10;" d="M 462 254.738281 C 536.679688 254.738281 555.320312 251.738281 630 251.738281 "/>
<g style="fill:rgb(0%,0%,0%);fill-opacity:1;">
  <use xlink:href="#glyph8-1" x="609" y="348.597656"/>
</g>
<g style="fill:rgb(0%,0%,0%);fill-opacity:1;">
  <use xlink:href="#glyph8-2" x="616.502801" y="348.597656"/>
</g>
<g style="fill:rgb(0%,0%,0%);fill-opacity:1;">
  <use xlink:href="#glyph8-3" x="628.481282" y="348.597656"/>
</g>
<g style="fill:rgb(0%,0%,0%);fill-opacity:1;">
  <use xlink:href="#glyph8-4" x="639.716912" y="348.597656"/>
</g>
<g style="fill:rgb(0%,0%,0%);fill-opacity:1;">
  <use xlink:href="#glyph8-5" x="651.695393" y="348.597656"/>
</g>
<g style="fill:rgb(0%,0%,0%);fill-opacity:1;">
  <use xlink:href="#glyph8-6" x="662.931023" y="348.597656"/>
</g>
<g style="fill:rgb(0%,0%,0%);fill-opacity:1;">
  <use xlink:href="#glyph8-7" x="670.433824" y="348.597656"/>
</g>
<g style="fill:rgb(0%,0%,0%);fill-opacity:1;">
  <use xlink:href="#glyph8-4" x="675.670928" y="348.597656"/>
</g>
<g style="fill:rgb(0%,0%,0%);fill-opacity:1;">
  <use xlink:href="#glyph8-5" x="687.649409" y="348.597656"/>
</g>
<g style="fill:rgb(0%,0%,0%);fill-opacity:1;">
  <use xlink:href="#glyph8-8" x="698.885039" y="348.597656"/>
</g>
<path style="fill:none;stroke-width:1;stroke-linecap:butt;stroke-linejoin:miter;stroke:rgb(66.665649%,66.665649%,66.665649%);stroke-opacity:1;stroke-miterlimit:10;" d="M 462 254.738281 C 535.355469 254.738281 527.644531 343.738281 601 343.738281 "/>
<path style="fill:none;stroke-width:1;stroke-linecap:butt;stroke-linejoin:miter;stroke:rgb(66.665649%,66.665649%,66.665649%);stroke-opacity:1;stroke-miterlimit:10;" d="M 971 297.738281 C 1015.75 297.738281 1009.25 240.738281 1054 240.738281 "/>
</g>
</svg>
